v 0.0 0.0 0.0
v 0.0007256562027198669 -0.001094279001118208 -0.009913424057467023
l 1 2
v 0.00036575366346476687 -0.0005515512056693023 -0.004996679078753843
v 0.0010750819305890712 -0.0018783927009194082 -0.014882848461074828
l 3 4
v 0.0007232771412849419 -0.001220320529950028 -0.009979615504248543
v 0.0014310377019324198 -0.0027863295549199005 -0.019830843383173327
l 5 6
v 0.0010800104463490401 -0.002009637717568738 -0.014944940326775367
v 0.0017398690486121666 -0.0038096996522810223 -0.024759437953053506
l 7 8
v 0.0014125996765895028 -0.0029169248412006968 -0.019891751961154967
v 0.001980006342898982 -0.004937206954462529 -0.029669098731003207
l 9 10
v 0.0016985902596234157 -0.0039352097746907086 -0.024819838410016858
v 0.002132438704952048 -0.0061536764720736045 -0.03456099753196374
l 11 12
v 0.0019172633510675277 -0.005053385894038234 -0.029729685160375965
v 0.0021814221288788856 -0.007440619509908166 -0.039436967777224295
l 13 14
v 0.002050407579652589 -0.0062566257820737175 -0.03462245709998733
v 0.002115065922760811 -0.008776922342429574 -0.04429943620229632
l 15 16
v 0.002082997392817458 -0.00752693352696264 -0.039499955127067
v 0.0019257756186542674 -0.010139632667600805 -0.04915133246474464
l 17 18
v 0.002003752735452026 -0.0088438150422668 -0.04436454906960137
v 0.001610535854851279 -0.011504814544864442 -0.053995980018945594
l 19 20
v 0.0018055592146158637 -0.010185041440170586 -0.049219089412896294
v 0.0011708202570435895 -0.012854674054335647 -0.0588352304352153
l 21 22
v 0.0014856310587852382 -0.011530619222668471 -0.054065923259749696
v 0.0006095630069199948 -0.014187468317273987 -0.06366663456969933
l 23 24
v 0.0010440655506463688 -0.012869753686035748 -0.058904979950661414
v -6.776093547702965e-05 -0.01547424740176943 -0.06849562405569723
l 25 26
v 0.00048367046916604673 -0.014182499412333882 -0.06373896245761693
v -0.0008498769272430548 -0.016690777519341598 -0.07332698583469713
l 27 28
v -0.0001884788375789335 -0.015446749483451445 -0.068571624036285
v -0.0017214508571147496 -0.017818535635448197 -0.07816457078045683
l 29 30
v -0.0009611443483549501 -0.01664220336990853 -0.07340676714488333
v -0.0026638164431055664 -0.018842305336184563 -0.08301199796333562
l 31 32
v -0.0018193439677928207 -0.01775112309438381 -0.07824810180845283
v -0.0036556705228250707 -0.019750743616317845 -0.08787251984548466
l 33 34
v -0.002744909586417206 -0.01875899394411151 -0.08309910742612665
v -0.004673866563541064 -0.020536803388801452 -0.09274890113163023
l 35 36
v -0.0037171638148053112 -0.019655065121627006 -0.08796290316885895
v -0.005710103815366907 -0.021200865447746842 -0.09763961188132567
l 37 38
v -0.0047216676115524134 -0.020434196603840583 -0.09284026557763668
v -0.0067957007127266295 -0.021752413882750236 -0.10253359781690392
l 39 40
v -0.005767044712414547 -0.021098619055224203 -0.09772600609365917
v -0.007892782661593654 -0.022181402224988087 -0.10743727886187529
l 41 42
v -0.006838482662583886 -0.021644375403196296 -0.10262078919349087
v -0.008969795474037002 -0.022486570156135772 -0.1123546586038465
l 43 44
v -0.007912730516490243 -0.022068867716598 -0.10752696170279513
v -0.010003280549433686 -0.02267428129384554 -0.11728724217828582
l 45 46
v -0.008966432663967244 -0.022374014963210072 -0.11244644620923488
v -0.010971400628476173 -0.022755274340827827 -0.12223596840126609
l 47 48
v -0.00997699879084013 -0.022566181531151974 -0.11738066944903622
v -0.011854753197523712 -0.02274426308467741 -0.12720117480000845
l 49 50
v -0.010923445333413937 -0.022655940165204655 -0.12233050916325688
v -0.012637093202419479 -0.02265938833189651 -0.13218258504051236
l 51 52
v -0.011787177083975376 -0.02265767814831475 -0.12729626140328051
v -0.013305938151793905 -0.02252154219072976 -0.13717931922057225
l 53 54
v -0.012552679833704661 -0.02258906139741395 -0.13227762950335767
v -0.013853033070686183 -0.022353589872237296 -0.1421899266447827
l 55 56
v -0.013208098253113119 -0.022470376435160748 -0.13727373513094882
v -0.014274657985675976 -0.02217951799632009 -0.14721243986071267
l 57 58
v -0.013745677484848435 -0.02232377474814602 -0.14228315100326214
v -0.014571766488176915 -0.022023541126989152 -0.15224444794348568
l 59 60
v -0.014162052000214028 -0.02217244767805798 -0.14730395405134375
v -0.014749418553047646 -0.02187126969306608 -0.15728214488705983
l 61 62
v -0.014458103203010463 -0.022020644507988955 -0.15233327583412987
v -0.014822139650733925 -0.02163542660487331 -0.1623192201876624
l 63 64
v -0.01464158892210672 -0.02182648267500783 -0.15736650311678646
v -0.014768079251500511 -0.02144874323043443 -0.16735856562202447
l 65 66
v -0.014705343976813374 -0.021636090262646693 -0.16240281296519007
v -0.014601826872455932 -0.02133260202222073 -0.17239767059784442
l 67 68
v -0.01465316814105571 -0.021483122763361062 -0.16744053164462608
v -0.014338082819727418 -0.021296514436196366 -0.17743382432384427
l 69 70
v -0.014494355352798907 -0.021389066370559175 -0.17247746153892402
v -0.013994021622242496 -0.02135761306861153 -0.18246488747596426
l 71 72
v -0.014242171612618251 -0.021373212929462232 -0.17751143441294778
v -0.013589809499146392 -0.02152941047842698 -0.18748891034619883
l 73 74
v -0.013913360845563758 -0.021451941345516007 -0.18254039217602233
v -0.013147853199128619 -0.021821295865257676 -0.19250420546622382
l 75 76
v -0.013527521215682682 -0.021638107495332647 -0.18756246354264874
v -0.012691965383466996 -0.022238185336115584 -0.1975094104629983
l 77 78
v -0.013106375124525525 -0.021940565365042693 -0.19257603373501334
v -0.012246477640988322 -0.02278033878797818 -0.20250353880506683
l 79 80
v -0.012672960085069388 -0.022363837252917747 -0.19757980463097977
v -0.011853639174362867 -0.023437685534649966 -0.20748816287607263
l 81 82
v -0.01225999682148007 -0.022905090240884954 -0.20257392586508474
v -0.01159112775862161 -0.024163490999030316 -0.21247185704834975
l 83 84
v -0.011922866039241599 -0.023539363307948317 -0.2075627906035677
v -0.01146088971951321 -0.024885783946522567 -0.21746095858274603
l 85 86
v -0.011690015288935785 -0.024218002109399377 -0.212551781905026
v -0.011397944060101532 -0.025419323743538044 -0.2224750636569787
l 87 88
v -0.011542802318095959 -0.024823505525129748 -0.21755342411749667
v -0.01135609582972487 -0.025808884856085106 -0.22750300542835222
l 89 90
v -0.011448696448997238 -0.02532016731305415 -0.2225683221244984
v -0.011280516062818522 -0.026077737987251326 -0.23253816675875932
l 91 92
v -0.01136392822733414 -0.02570200683842882 -0.22759343842436
v -0.011021727977463683 -0.026310130923270128 -0.23756906292042163
l 93 94
v -0.011191448672923291 -0.026008520265054427 -0.23262146300558686
v -0.01061939318713048 -0.026549122102882967 -0.24259043999292668
l 95 96
v -0.01090311491393906 -0.02628100040707922 -0.23764613749848745
v -0.010094067648670227 -0.02685230283095915 -0.24759696942667467
l 97 98
v -0.010495329963858784 -0.026568954572927867 -0.24266166585546756
v -0.00946280993971721 -0.02722857038123358 -0.2525863224936178
l 99 100
v -0.009974907802414916 -0.026901421427472795 -0.2476640010532847
v -0.008740646035226052 -0.02769014065920431 -0.2575561454044127
l 101 102
v -0.009352801536532089 -0.027298960417277206 -0.252649949048636
v -0.007946043612030556 -0.028252764207306984 -0.2625044551484858
l 103 104
v -0.008643751849765926 -0.027779707151863137 -0.25761692619632803
v -0.007100168570469044 -0.02892842748895473 -0.2674300700476647
l 105 106
v -0.00786573793449279 -0.028358697880126016 -0.2625630554860899
v -0.006226096637122556 -0.02972490641119589 -0.2723326537718737
l 107 108
v -0.007039307794622646 -0.029047309413169704 -0.26748723645832134
v -0.005347953829460605 -0.030645476684125754 -0.27721272786691226
l 109 110
v -0.006186812864029806 -0.029852835355575792 -0.272389186194522
v -0.004490017798765164 -0.03168879180571936 -0.2820716523276758
l 111 112
v -0.005331575449988885 -0.030778214429841095 -0.2772694498555704
v -0.003675813524928298 -0.032848933216962695 -0.2869115749404353
l 113 114
v -0.0044970200130685254 -0.031821921013480664 -0.2821293803753193
v -0.002927237047102199 -0.03411563075908093 -0.29173535128109973
l 115 116
v -0.0037058006419719053 -0.03297802196612087 -0.2869710880658887
v -0.002263739869888862 -0.03547464522117039 -0.29654643834940136
l 117 118
v -0.002978957223545406 -0.034236397629860776 -0.29179736201178225
v -0.00170160442468497 -0.03690829872892319 -0.30134876580096803
l 119 120
v -0.002335131739325865 -0.03558311877097798 -0.29661156618077533
v -0.0012533375741338472 -0.03839613321827925 -0.30614658957369006
l 121 122
v -0.00178987388037571 -0.037000965422479465 -0.3014175141212853
v -0.0009272047507113886 -0.03991567246687455 -0.3109443333605738
l 123 124
v -0.0013550618451863092 -0.03847006830140995 -0.306219326913553
v -0.0007235667299700707 -0.041408377776470405 -0.31575701800459954
l 125 126
v -0.0010367684764878277 -0.03995106854758828 -0.3110266227323578
v -0.0005787283883173359 -0.04274387641662947 -0.320617786555599
l 127 128
v -0.000805902045677626 -0.041358730456045927 -0.3158608671934309
v -0.00046417880836082694 -0.043948789982765274 -0.32551357753183474
l 129 130
v -0.0006336629204094654 -0.04266420090276604 -0.3207261330097333
v -0.00036597879334173674 -0.04503192764494633 -0.33043809549331404
l 131 132
v -0.000498741806304563 -0.04385760872059346 -0.3256212637475308
v -0.0002600612058014309 -0.04599169979057965 -0.3353879769549486
l 133 134
v -0.00037843937041540836 -0.044933256903091065 -0.3305439905506575
v -9.727338823763078e-05 -0.04683961483351918 -0.34035657151244114
l 135 136
v -0.00023672293101331505 -0.04589412085979617 -0.33548983792692183
v 0.0002172172289529388 -0.04764115547071202 -0.34532557930210206
l 137 138
v -7.922991358661306e-06 -0.04677468056524689 -0.3404473570705625
v 0.000663514790286428 -0.04841642115253958 -0.35028879289819537
l 139 140
v 0.00033050250493069983 -0.04760216881244029 -0.3454077463951046
v 0.001234991839216862 -0.04918032320787967 -0.35524092125108664
l 141 142
v 0.0007863932221528475 -0.04839760764400148 -0.35036397193335533
v 0.0019308072278399788 -0.049956252167290105 -0.36017523810208246
l 143 144
v 0.001363213425636544 -0.04918321289403709 -0.35530915481276254
v 0.002745488396170427 -0.05076715057763405 -0.36508568064356345
l 145 146
v 0.0020599229431813274 -0.049981566682454175 -0.36023682748284686
v 0.0036691352165914414 -0.05163465842746541 -0.369967075349252
l 147 148
v 0.0028710159098735296 -0.05081477626569592 -0.3651411746215178
v 0.004687788758394897 -0.05257830709070974 -0.37481533068011547
l 149 150
v 0.003786725853093365 -0.05170365057541172 -0.37001724974688543
v 0.0057839512364993365 -0.053614791812999565 -0.3796275894879076
l 151 152
v 0.004793389478611756 -0.05266692511773052 -0.3748611594661093
v 0.006937237777055133 -0.05475734983943043 -0.38440233543955027
l 153 154
v 0.005873955607303785 -0.053720564104448705 -0.37967020849829897
v 0.00812513572266967 -0.05601526734752291 -0.3891394494982105
l 155 156
v 0.0070086203053683115 -0.05487716581067304 -0.3844430000695849
v 0.009323843194299769 -0.05739353355138022 -0.39384021435723926
l 157 158
v 0.008175564550429093 -0.05614549330843293 -0.38917948794079904
v 0.010509155674669266 -0.05889265486112995 -0.3985072666618157
l 159 160
v 0.009351766956588707 -0.057530148055713694 -0.3938809781298126
v 0.011657367589342221 -0.0605086360199247 -0.40314449879796554
l 161 162
v 0.01051386128567594 -0.05903139849921764 -0.39855008026437716
v 0.012746155302941917 -0.06223312892112045 -0.4077569139071634
l 163 164
v 0.011639006803710453 -0.060645170075137006 -0.4031906103775016
v 0.013755408640263629 -0.0640537435624202 -0.4123504395270013
l 165 166
v 0.012705739063143857 -0.062363196980394345 -0.4078074487660863
v 0.01466797995939739 -0.06595450955441966 -0.41693170679952213
l 167 168
v 0.013694769420546204 -0.06417333006110497 -0.4124063582073633
v 0.01547032287503819 -0.06791647099307066 -0.4215078034713686
l 169 170
v 0.014589703508932612 -0.0660599893498894 -0.4169937693043004
v 0.016152996840521582 -0.06991839253797726 -0.4260860098861131
l 171 172
v 0.015377651902740002 -0.06800474439571626 -0.4215765409555219
v 0.016711018793679543 -0.07193755039619255 -0.4306735278026468
l 173 174
v 0.016049710229121963 -0.06998700076988093 -0.42616170487187627
v 0.017144048768248724 -0.07395057874858633 -0.4352772121407288
l 175 176
v 0.016601290842153817 -0.071984767176827 -0.43075620365601125
v 0.017456402557091293 -0.07593434009070087 -0.4399033156457581
l 177 178
v 0.01703229370559341 -0.07397547459611147 -0.43536663220109534
v 0.017656890955542914 -0.07786678706923632 -0.44455725598361734
l 179 180
v 0.017347110119077365 -0.07593681694373401 -0.4399989920411808
v 0.017799097446292794 -0.0796978483711959 -0.44925373947467034
l 181 182
v 0.017574926082873237 -0.07783249619826631 -0.4446636785916577
v 0.01807441691056344 -0.08138752514333239 -0.453997074442729
l 183 184
v 0.017826684973829412 -0.07962434120303992 -0.4493679999886825
v 0.01846500422495175 -0.08299118036694551 -0.45876251661158746
l 185 186
v 0.018148417702099257 -0.08132133271307902 -0.4541031281530755
v 0.01896027249095602 -0.084525600094898 -0.46354100727646025
l 187 188
v 0.01855761773126737 -0.08293638299559217 -0.45886011236451624
v 0.01957125124005473 -0.08600975214345484 -0.46832198053051965
l 189 190
v 0.0190685205023721 -0.08448545650259302 -0.46362918779851797
v 0.020304659966044906 -0.08746447672269153 -0.4730947779943058
l 191 192
v 0.019691573185602638 -0.08598697521959572 -0.4684001392511344
v 0.021162657834224278 -0.08891171017069405 -0.4778490458239826
l 193 194
v 0.020433045539263835 -0.08746113247496369 -0.4731626816396088
v 0.0221427632558018 -0.09037366785867515 -0.4825751203761098
l 195 196
v 0.02129479637091411 -0.08892914076945953 -0.4779068431059013
v 0.023237946323266853 -0.09187201670253539 -0.4872643881635109
l 197 198
v 0.022274204299640447 -0.09041244164318911 -0.4826233364530772
v 0.024436890663640805 -0.09342706810354155 -0.49190960669443407
l 199 200
v 0.023364265398469003 -0.09193190701118219 -0.4873039050791208
v 0.025731490325064946 -0.09504782321311767 -0.4965064760443141
l 201 202
v 0.02455742001453863 -0.09350242519804988 -0.4919422856163763
v 0.026924644941134574 -0.09661834139998536 -0.5011448565815696
l 203 204
v 1.0 0.0 0.0
v 1.0054333042945784 0.0038100401941092562 -0.007480828708223902
l 205 206
v 1.0035584103735886 0.002495293069456187 -0.004899386641191086
v 1.0089181361126072 0.0009359735489677691 -0.013196486293209558
l 207 208
v 1.0070746212181132 0.0014723123284632652 -0.0103426412394888
v 1.008829848089857 -0.0035013289515744726 -0.018838644479025196
l 209 210
v 1.0082261256162013 -0.001790610488338461 -0.01591638515487112
v 1.0050954970214472 -0.005863696575217261 -0.02449596173711468
l 211 212
v 1.0061722984707346 -0.004462730325572403 -0.02154495678126871
v 1.0008863791438691 -0.004059856937501248 -0.030024151902449295
l 213 214
v 1.0027045078102728 -0.004198428037529304 -0.027107673847346307
v 0.9997636358503631 0.0005804655714259426 -0.035384958908868835
l 215 216
v 1.0007751691871205 -0.0010632680777000897 -0.03253792922117356
v 1.002754094508253 0.004398426058065713 -0.04067756998356122
l 217 218
v 1.002073429399208 0.0025198384252777986 -0.037877884008576855
v 1.0075071099477795 0.004410445560093198 -0.04605717006286429
l 219 220
v 1.0056381577828784 0.003760158104655731 -0.043243847814370254
v 1.010224749169564 0.0007581165279125046 -0.05160751482251246
l 221 222
v 1.0086471592054436 0.0017906895792399826 -0.048730773464302074
v 1.0087803871623315 -0.0034080629503643535 -0.05727215639960219
l 223 224
v 1.0087345624812107 -0.0016199159093052428 -0.05433428841390061
v 1.0044649419910807 -0.004515656892409566 -0.06290079441279141
l 225 226
v 1.005933507613775 -0.0035196466685865424 -0.059954285174872765
v 1.0009268635543396 -0.0015037249275884502 -0.06837269207857437
l 227 228
v 1.0026489335527737 -0.002197115212208687 -0.06547712255308447
v 1.0011762827893806 0.0033060079896045807 -0.07369581677751832
l 229 230
v 1.001682811247906 0.001413170541799514 -0.0708689398151887
v 1.0051133035738125 0.006115589037546993 -0.0790002978009589
l 231 232
v 1.003933361911459 0.004498159534774991 -0.07620346074452101
v 1.0096100304047255 0.004769449621847099 -0.0844315733170501
l 233 234
v 1.0076575008485473 0.004676137512123808 -0.08160145684847692
v 1.01107897648679 0.0005244069010128605 -0.09003096676244443
l 235 236
v 1.0099021361767848 0.0019524234810014834 -0.08713157827945636
v 1.0084188559086544 -0.0029823461870806464 -0.09570175493861291
l 237 238
v 1.0089290404591624 -0.001284997884763799 -0.09275398315160097
v 1.0039188822806053 -0.0027198482945605352 -0.10128859030877829
l 239 240
v 1.0056421609847193 -0.0022263215302011957 -0.09835305289902387
v 1.0013790273088792 0.0012478177679476933 -0.1067050614837283
l 241 242
v 1.0028453617467434 5.286342633661345e-05 -0.10383233012123419
v 1.0029897509350627 0.005814145334320848 -0.11200464818522497
l 243 244
v 1.0029400872708696 0.0038325124064588836 -0.10919372262539043
v 1.0075333494868253 0.007381048960587016 -0.11733680745483253
l 245 246
v 1.0059534650446444 0.006160505166047634 -0.11453593686906359
v 1.0113838484038777 0.004813359467155745 -0.12282425002903286
l 247 248
v 1.0095160303301505 0.005276719587036746 -0.11997342715027991
v 1.011484397863631 0.0003709451364430662 -0.1284621789014529
l 249 250
v 1.0108073641789792 0.0020583203323153343 -0.1255424137770874
v 1.00785734314676 -0.002146933390742556 -0.13412222828756326
l 251 252
v 1.0088720233704842 -0.0007005071646491979 -0.13117114149464926
v 1.003585876262214 -0.0005213090988152271 -0.13965786859070514
l 253 254
v 1.005404083275614 -0.0005829455181984994 -0.1367387998605296
v 1.002282335228451 0.00406443154644893 -0.14502472621483797
l 255 256
v 1.0033560821517133 0.00246593392620006 -0.14217472429447
v 1.005122005818119 0.00799626244423957 -0.15031702004487038
l 257 258
v 1.0045146041076436 0.006094067538961028 -0.1475164208683185
v 1.0098780594319459 0.00819710224868906 -0.155690195516172
l 259 260
v 1.0080332617206893 0.007473748853421542 -0.152878768954201
v 1.0127500683352142 0.00465349744031973 -0.1612332837413129
l 261 262
v 1.0111276899390544 0.005623542502219346 -0.1583596903530937
v 1.0114846499769192 0.00042666941128308156 -0.1668957954138383
l 263 264
v 1.011361871092591 0.0022141700063585215 -0.16395974278974806
v 1.0072257864662977 -0.0008611455260761178 -0.17252917908043292
l 265 266
v 1.0086484215011373 0.0001966306112436385 -0.16958166194829907
v 1.003575466816383 0.0019989778217642928 -0.1780088011603424
l 267 268
v 1.0053203448149635 0.0013790479803069194 -0.17511022809674714
v 1.0036359865650448 0.006809969073755107 -0.18333628628780502
l 269 270
v 1.0042153332839978 0.004941966042609835 -0.18050687643800786
v 1.0074625605800764 0.009772842152121467 -0.1886381832765272
l 271 272
v 1.0063456541976195 0.008111228760878934 -0.1858413638125415
v 1.0120179844879778 0.008606155814099846 -0.1940620521224747
l 273 274
v 1.0100669470868215 0.00843592221657478 -0.19123448928058748
v 1.0136665735765946 0.004419372955335541 -0.1996552980995883
l 275 276
v 1.0124284570438395 0.005800892971119003 -0.19675890241864843
v 1.0111595317154618 0.0008018476070608977 -0.2053262458785017
l 277 278
v 1.0115959873956162 0.002521303981442551 -0.20237944859006834
v 1.0066603750244922 0.0008754995167249958 -0.2109194168678738
l 279 280
v 1.0083580131803735 0.0014415853934787038 -0.20798203546344313
v 1.003968404398574 0.004731312930552707 -0.21634319731300472
l 281 282
v 1.0054782408275795 0.003599788295015306 -0.213467317621488
v 1.0053989864701303 0.009354626721147733 -0.22164506507637646
l 283 284
v 1.0054262465568446 0.007375210073622617 -0.21883227203983224
v 1.0098823371586063 0.011100562359837859 -0.22697260415176
l 285 286
v 1.008349633845868 0.009819201566154193 -0.22417268038229943
v 1.0138419532173204 0.008686942153381729 -0.2324523190546182
l 287 288
v 1.0119528318220072 0.009076390642635847 -0.22960447982614227
v 1.0141313854911824 0.004247123507337096 -0.23808575819950362
l 289 290
v 1.0133820568252878 0.005908183480723788 -0.23516856359534363
v 1.0106178819607787 0.0015782356685801599 -0.24374824245078627
l 291 292
v 1.0115686391043042 0.003067551292690958 -0.24079720231736307
v 1.0062913943764045 0.003023243892681857 -0.24929124287154927
l 293 294
v 1.0081065393542434 0.003038483730656858 -0.24636965862665341
v 1.004809439890641 0.007547070942550931 -0.2546643422541258
l 295 296
v 1.0059435001515105 0.0059963110561365995 -0.25181132820882846
v 1.007493804871415 0.011586529813193407 -0.2599566341898025
l 297 298
v 1.0069605667951937 0.00966373524423066 -0.2571549996235369
v 1.0122451867770346 0.01197616262707007 -0.2653235656694609
l 299 300
v 1.010427505029377 0.011180787167526293 -0.2625139306423005
v 1.0152669939514278 0.008547492305911848 -0.2708592949330395
l 301 302
v 1.013602418123491 0.00945323236340031 -0.2679888489216035
v 1.0141828400249582 0.0042673641138059664 -0.2765193753364355
l 303 304
v 1.013983199880565 0.006051079517266525 -0.273585241526354
v 1.009987865487201 0.0028017807132825904 -0.28215725181377377
l 305 306
v 1.0113620885018286 0.003919399605271494 -0.279208849337585
v 1.0062315982141434 0.005505638273612559 -0.28764460160368593
l 307 308
v 1.0079962659829718 0.004960040466243264 -0.2847430660203246
v 1.0061033304901708 0.010310180902565453 -0.2929767038877393
l 309 310
v 1.006754418800509 0.008469962939509494 -0.2901446869556137
v 1.0098132961954427 0.013421717678663148 -0.29827631619495026
l 311 312
v 1.0087611740696893 0.011718527243179538 -0.29547938583896416
v 1.0144200415100333 0.012436735172489943 -0.30369287454126903
l 313 314
v 1.012473634749647 0.012189702566812255 -0.3008677880544312
v 1.016245740187357 0.008315493855593737 -0.3092797870694523
l 315 316
v 1.0149482983224878 0.009648054850555775 -0.30638642158178075
v 1.0138961661426262 0.0045935296485686145 -0.3149505790335431
l 317 318
v 1.0142580543135882 0.00633206869854723 -0.3120048775947214
v 1.009405533985238 0.004478520154033941 -0.32054989978638837
l 319 320
v 1.0110745920558823 0.0051160610499425205 -0.3176107800531825
v 1.006566144861854 0.008216365112036241 -0.3259810858194746
l 321 322
v 1.0081168565881509 0.007149993996379678 -0.32310206101428834
v 1.007814415120553 0.012889270805167954 -0.3312855340466128
l 323 324
v 1.0079184419639735 0.010915206684013242 -0.3284707716579418
v 1.0122302623361783 0.014811637317657758 -0.336608709565977
l 325 326
v 1.0107471817709406 0.013471432938132511 -0.33380960929957454
v 1.016292612372606 0.012556414314951523 -0.34208069993874324
l 327 328
v 1.014385223000771 0.012871141325756102 -0.33923580086564054
v 1.0167706581481348 0.008126894544479884 -0.3477093964210156
l 329 330
v 1.0159501711608996 0.009758711176582417 -0.34479484437546376
v 1.0133767714837245 0.005311750539876785 -0.3533740142185841
l 331 332
v 1.0142619101765165 0.006841313537720979 -0.35042314916348466
v 1.0090026831610328 0.006574042847282691 -0.3589242724761793
l 333 334
v 1.0108116308215425 0.006665972457616622 -0.3560002520673004
v 1.0073449967155406 0.01102872770669316 -0.36430379436030763
l 335 336
v 1.0085373695941846 0.009528127736781673 -0.3614477333154707
v 1.0098697972573425 0.01516939282347049 -0.36959639975508873
l 337 338
v 1.0094114995080778 0.013229040514882976 -0.3667936093357321
v 1.0146088053544533 0.015747476859331106 -0.3749572782608046
l 339 340
v 1.0128211559101388 0.014881243186584325 -0.37214932763237457
v 1.0177755898532301 0.012439759829056147 -0.3804855583944431
l 341 342
v 1.0160714778869435 0.01327952498746646 -0.37761825392363113
v 1.0168747191882521 0.008113768649845152 -0.3861429102141919
l 343 344
v 1.016598438763667 0.009890566421493106 -0.3832107954741251
v 1.0127508345083105 0.006473165447888549 -0.3917850191754154
l 345 346
v 1.0140742447158946 0.007648604248690394 -0.38883585538015225
v 1.0088950896914042 0.009016560360254429 -0.397280087098262
l 347 348
v 1.0106764960344627 0.00854604235439386 -0.3943756349484873
v 1.008578460993767 0.01380695815055425 -0.402617055575644
l 349 350
v 1.0093000947181452 0.011997429622201402 -0.3997823617092492
v 1.0121658510969276 0.017062282645298625 -0.4079146863604108
l 351 352
v 1.0111801542860224 0.015320191269516194 -0.40511751681269736
v 1.016816456655879 0.016260952039962306 -0.41332404255556426
l 353 354
v 1.014877811308215 0.015937370838811003 -0.4105013510269871
v 1.0188164364720476 0.01221242476457192 -0.41890444620452943
l 355 356
v 1.0174617189907975 0.013493645838824994 -0.41601414325360125
v 1.0166284570306832 0.008392529076166982 -0.42457476719578885
l 357 358
v 1.0169150632693762 0.010147093617045107 -0.42163028113212775
v 1.0121540428030718 0.008089357031309214 -0.43018004161199813
l 359 360
v 1.0137916288606432 0.008797129822206581 -0.4272392921116544
v 1.0091721779110663 0.011703314240102862 -0.435618717214466
l 361 362
v 1.0107610701500727 0.01070371192434713 -0.4327365557501445
v 1.0102362697966438 0.016418334903092753 -0.4409260410086839
l 363 364
v 1.0104167785232638 0.014452750638017075 -0.4381092106730477
v 1.0145774703782307 0.018514237249355123 -0.4462451168791156
l 365 366
v 1.0131463715161764 0.01711726071988792 -0.4434467154307161
v 1.0187360000925023 0.016421475506549786 -0.45170939873068716
l 367 368
v 1.016813408520301 0.016660795663329394 -0.44886739142029564
v 1.019402075861835 0.012009940646522594 -0.4573331075156723
l 369 370
v 1.0185116857498435 0.013609634532573207 -0.45442126566511454
v 1.0161336724832335 0.009053537257684837 -0.46299955398654447
l 371 372
v 1.0169516066630342 0.010620638560252391 -0.4600489921369531
v 1.0117194826778158 0.010131318170653979 -0.4685569557099607
l 373 374
v 1.0135191080628183 0.010299623317284397 -0.4656305825460374
v 1.0098890385020058 0.014509747422721406 -0.47394307014004206
l 375 376
v 1.0111376261404907 0.013061645994780966 -0.4710839322967965
v 1.012250281579781 0.018745028467915086 -0.4792363038252224
l 377 378
v 1.0118675760133675 0.016790189591728823 -0.4764322390148362
v 1.0169692343805725 0.019510908013223017 -0.4845913304578382
l 379 380
v 1.0152144835510488 0.01857509801510405 -0.4817849542861597
v 1.0205658147359593 0.016214194899771415 -0.48989602024751255
l 381 382
v 1.0187254081855164 0.01702614643262952 -0.4871064977136724
v 1.0209606958427622 0.010703266359975608 -0.4945243597153681
l 383 384
v 1.0201918531276186 0.012878064877216915 -0.4919729345583167
v 1.0174660831386442 0.006450948766779683 -0.4991327080512538
l 385 386
v 1.018403630658484 0.008661599993199312 -0.4966700542293717
v 1.0126317636633149 0.006114204568863484 -0.5044286834860219
l 387 388
v 1.014617037405434 0.006990398918276078 -0.5017600490647928
v 1.0102152749520987 0.009120926782514888 -0.5104827400672363
l 389 390
v 1.0117292917208438 0.008388116925796692 -0.5074825099125458
v 1.0119888017417946 0.012153588647126519 -0.5167428488515313
l 391 392
v 1.0118995414676335 0.010858428495081292 -0.5135576909547749
v 1.01628398234053 0.011873363582686331 -0.5224877852991825
l 393 394
v 1.0147759234496858 0.01152426960996242 -0.519416217324481
v 1.0193618500657955 0.0076617350628945605 -0.5274193482083517
l 395 396
v 1.0177844887541319 0.008990280648012808 -0.5246666157542274
v 1.0184830100644644 0.0021283789428476023 -0.5319072215968114
l 397 398
v 1.0182427488081198 0.0044885776944245575 -0.5294167649268383
v 1.014157037955018 -0.0010317190532790552 -0.5366854161526257
l 399 400
v 1.015562346580692 0.0008670253549156854 -0.5341853130783076
v 1.0097240521215072 -7.232607842737088e-05 -0.5422495512129691
l 401 402
v 1.0117321740512535 0.00025077037143862556 -0.5394758004955084
v 1.0086120431016943 0.0033701540762290554 -0.5484498869760305
l 403 404
v 1.0096852338130045 0.0022972203849472416 -0.5453631876005602
v 1.0118805788430203 0.006519085913179347 -0.5541584312959168
l 405 406
v 1.011123021594596 0.005062228431072738 -0.5511234183380558
v 1.013318366624612 0.009284093959304844 -0.5599186620334123
l 407 408
v 2.0 0.0 0.0
v 1.999918061412829 0.004351494522082982 -0.00900320951062532
l 409 410
v 1.9999545546662765 0.0024134553399033664 -0.004993420986609962
v 2.0015360627798535 0.0063094933325569804 -0.014066442536594849
l 411 412
v 2.0008317384118826 0.004574393478684295 -0.010025773940639979
v 2.0038162445884735 0.007528466639142799 -0.019101355169660522
l 413 414
v 2.002487095273028 0.006212870662228372 -0.01505954662108472
v 2.006388266244005 0.007747288054120242 -0.02413844679250788
l 415 416
v 2.0046508804191134 0.00706393553100022 -0.020095160153500588
v 2.0092167299262336 0.007104121716923522 -0.028991867597762865
l 417 418
v 2.0071836126337534 0.0070862272967521876 -0.025030271902841506
v 2.013070033311148 0.006709676216241285 -0.033105435114350344
l 419 420
v 2.010448571122023 0.006877369705023767 -0.02950923698476707
v 2.0176208233877486 0.006625884321127186 -0.036473111806909986
l 421 422
v 2.0144266620675397 0.006737883293845847 -0.03337175134557164
v 2.022643490524425 0.00617775093980596 -0.03904361011109807
l 423 424
v 2.0189841273760876 0.006427205787904612 -0.0365176487796613
v 2.0278588217523548 0.004997032900446481 -0.040898790781449465
l 425 426
v 2.0239064781293044 0.00563396015134096 -0.03894764994005314
v 2.033122178505427 0.003260998756001211 -0.04202009534945586
l 427 428
v 2.029018519427737 0.004317654698964037 -0.04065196618070914
v 2.0386768489598115 0.0022088469846948127 -0.042158485571255774
l 429 430
v 2.0343755135541106 0.0031480041396747083 -0.04148755741826477
v 2.0441843259011954 0.001209199959077781 -0.04131951370674712
l 431 432
v 2.0398159729995595 0.0020726460694044015 -0.04139435194493892
v 2.049394223866189 -0.00014004493164600056 -0.039561019222876685
l 433 434
v 2.0451285863170683 0.0008453685796628073 -0.040377486969248436
v 2.0541678803413244 -0.001742527557796616 -0.03697249693625654
l 435 436
v 2.0501422322931857 -0.0005900084554648616 -0.03848890866525466
v 2.05834267829257 -0.0037504974177815197 -0.03371774581640315
l 437 438
v 2.0546907191801056 -0.002343015865358471 -0.035842519474350784
v 2.061846603817184 -0.0057648249234742484 -0.029752811941913593
l 439 440
v 2.0586597318175945 -0.00424092284451297 -0.03246486215024909
v 2.0645859340020936 -0.00783713567107936 -0.025257408995737675
l 441 442
v 2.0619469586495565 -0.006235719331182932 -0.02846693351703607
v 2.0668406363241814 -0.009041819864931326 -0.020209953523637997
l 443 444
v 2.0646612378085223 -0.007792123472021486 -0.02388719815189603
v 2.06825103861797 -0.009916794798414542 -0.014798793346690126
l 445 446
v 2.0666523214412766 -0.008970572786487696 -0.018846312872727467
v 2.0686396773868845 -0.010937286118121437 -0.009245143411842429
l 447 448
v 2.067754608756312 -0.010061410672152547 -0.013521022589612528
v 2.0681017176444034 -0.012419341721407712 -0.0038091908063305324
l 449 450
v 2.0679471327604415 -0.011369237531787632 -0.008134353430458745
v 2.0669957187221213 -0.014693006191855776 0.0012490027506758192
l 451 452
v 2.067419425195912 -0.013212785970237912 -0.0029298180357484683
v 2.0661700144273514 -0.01800436030454893 0.005758092422478898
l 453 454
v 2.0667264392995017 -0.015870433494040458 0.001888932985390852
v 2.0659576205993475 -0.022038501873920164 0.00972244115653751
l 455 456
v 2.0663000138760066 -0.0192915536755745 0.006233789631912714
v 2.0665805914383135 -0.026460615718110227 0.013199837698198458
l 457 458
v 2.066455636268914 -0.02326787516325344 0.010097509382952695
v 2.0681716857422296 -0.030627786386168362 0.016646316984031254
l 459 460
v 2.0674075323595793 -0.027350432705840935 0.013730146116870899
v 2.0693322521118587 -0.03383055748342327 0.021099232677778544
l 461 462
v 2.0684751885348542 -0.030945005488265218 0.017817832526059122
v 2.069148391793216 -0.03771939148250514 0.02514275517233856
l 463 464
v 2.068848603601863 -0.034702648916996925 0.021880849819606214
v 2.0696402298449157 -0.04252554849835549 0.028059488021612407
l 465 466
v 2.069287679232927 -0.039041621507378894 0.02530783255478994
v 2.071172576645325 -0.047430419053784895 0.030414224379762555
l 467 468
v 2.0703331579670663 -0.043694558787722375 0.028140148003937427
v 2.0737908250436687 -0.05171568646650912 0.03300903382596913
l 469 470
v 2.0722509536023055 -0.048143478626236524 0.030840676357623168
v 2.077064717500297 -0.05520818685811361 0.03602889134284131
l 471 472
v 2.0749209085713973 -0.052061920254990936 0.03371832068627008
v 2.080605493091456 -0.05784121298773616 0.03957368355662668
l 473 474
v 2.0780738643474144 -0.0552674059573679 0.036965998703479885
v 2.083683890365805 -0.059923442670457454 0.04381062653845696
l 475 476
v 2.081185774293132 -0.05785013318672329 0.04076274855180074
v 2.0854957348362295 -0.06293487865053131 0.04821725079442066
l 477 478
v 2.0835762946452903 -0.06067038812762854 0.04489738949526171
v 2.0865901030896694 -0.06682564463636657 0.05217954411956266
l 479 480
v 2.0852479040142744 -0.06408440220264325 0.04893643780275362
v 2.0872900084557324 -0.07139029780434741 0.055452088108531035
l 481 482
v 2.086380557591894 -0.06813661844731116 0.052550344358917374
v 2.087933531489696 -0.07648603772467405 0.057830066870901045
l 483 484
v 2.087241914829842 -0.07276762527710784 0.05547874335293102
v 2.0888679278420597 -0.0818836402361484 0.0592542370889405
l 485 486
v 2.0881437832250884 -0.07782382453282169 0.05757282159915327
v 2.0903931193568805 -0.08730475908710109 0.05982056868094111
l 487 488
v 2.089391377895185 -0.08308242650442976 0.05881953490239305
v 2.092712887799017 -0.09246722121263981 0.05976462761927171
l 489 490
v 2.0912336539312664 -0.0882877044939772 0.059343730739404424
v 2.0959017134535998 -0.09713094474909847 0.05942324228670766
l 491 492
v 2.093822793943487 -0.09319260921352245 0.05938783183271127
v 2.0998926549514514 -0.10113700754856436 0.05917969140372899
l 493 494
v 2.0971894433893965 -0.09759897110840914 0.05927238670818781
v 2.104488242636097 -0.10443350857527678 0.05940133309374715
l 495 496
v 2.101237723639548 -0.10138974848299583 0.05934390684298592
v 2.109392612795086 -0.10708401375963128 0.06037982470661924
l 497 498
v 2.105760834304013 -0.10454807369230325 0.0599184788631743
v 2.1140677609450482 -0.10956424550581942 0.06233363726745059
l 499 500
v 2.1103685923204174 -0.10733048731940993 0.06125813984479628
v 2.117773891505345 -0.11313098508862794 0.06465162914211424
l 501 502
v 2.1144759427795163 -0.1105477343988922 0.06314033926378208
v 2.1206888502822983 -0.11753616531571798 0.06668457594925219
l 503 504
v 2.117921932988235 -0.11442386880181132 0.06510615074738169
v 2.122965660215801 -0.12251369164023357 0.06812535297592685
l 505 506
v 2.120719437157395 -0.118910890422363 0.066780751779676
v 2.1248074561880537 -0.12783633448175774 0.06868457654776475
l 507 508
v 2.122986857611731 -0.12386138949600396 0.06783670851281777
v 2.126488162890222 -0.13322070345933523 0.06821631815785283
l 509 510
v 2.124928857183109 -0.12905253458604762 0.0680472590673432
v 2.1283079190655956 -0.1383733634997283 0.06674185140832568
l 511 512
v 2.1268030544339918 -0.1342223339367223 0.06732321448606683
v 2.13083164690833 -0.14301572897271922 0.06478418978815466
l 513 514
v 2.1290377471327173 -0.1391001010003121 0.06591479703246464
v 2.1342801425927638 -0.14742019242294777 0.0641000329818317
l 515 516
v 2.131945442670992 -0.14371484113046973 0.0649082378414876
v 2.137836851973898 -0.151790505867739 0.06463449439069317
l 517 518
v 2.1352131138481787 -0.1481940099577961 0.06475640598969903
v 2.141085542326473 -0.15616450177322805 0.06616560575816681
l 519 520
v 2.1384702578802863 -0.1526148453831324 0.06553801901961975
v 2.143621593007767 -0.16066912075397052 0.06846929769199062
l 521 522
v 2.1413274467895334 -0.15708215059471056 0.06716385323644858
v 2.1452191347831366 -0.16536320433990745 0.0711985667863308
l 523 524
v 2.1434859722005974 -0.16167523847040197 0.06940170779675746
v 2.1457986229885795 -0.17027807322746397 0.07394515147699962
l 525 526
v 2.144768684355575 -0.1664468022393434 0.07192172961085462
v 2.145439864543653 -0.1754140572312956 0.07629641303533687
l 527 528
v 2.145140954561653 -0.17142049175387628 0.07434814852023941
v 2.1447430774596574 -0.18081903395205534 0.07774065472668251
l 529 530
v 2.144920252409659 -0.1766338565802016 0.07622996935551613
v 2.145428410139575 -0.1863625754682561 0.0784869151941967
l 531 532
v 2.1452021026435646 -0.18202990102225694 0.07748178680331862
v 2.1473445150506 -0.1916094535717082 0.07939025268734258
l 533 534
v 2.1463903920514427 -0.18734320148174907 0.0785403177322074
v 2.150144160115996 -0.19638456809920496 0.0805806400122148
l 535 536
v 2.1484724375839206 -0.19235803901290321 0.07967199230955245
v 2.153723523984835 -0.2006497962286987 0.08158846142864536
l 537 538
v 2.1513851020865085 -0.19695729811142385 0.08073501644347558
v 2.157685157967224 -0.20468077304336074 0.08154571421428983
l 539 540
v 2.1548796156793264 -0.2012413534665612 0.08118469410243882
v 2.161454175632072 -0.2087295627623871 0.08034690954203007
l 541 542
v 2.1585261964812537 -0.20539469003284624 0.08072001675276134
v 2.1656265511169797 -0.21213469203277796 0.07868106185187672
l 543 544
v 2.162464770605703 -0.20913337617425395 0.07958900634193804
v 2.170501788029264 -0.21493658418026532 0.0782740433111454
l 545 546
v 2.166922503693873 -0.21235212648703705 0.07885966187207281
v 2.1754318047666987 -0.21760072223613125 0.07906951399761354
l 547 548
v 2.17164218898886 -0.21526326101669188 0.07897605638938508
v 2.1800636737851478 -0.22031516951189867 0.08086200823976403
l 549 550
v 2.1763131669710507 -0.2180653029273479 0.08002209990566314
v 2.184101025905064 -0.22331045608266664 0.08346268439106079
l 551 552
v 2.180632704260391 -0.22097452802177656 0.08193042067876981
v 2.1873442376640977 -0.22677141105341964 0.08655118538695168
l 553 554
v 2.184355257410314 -0.22418977018644484 0.0844933286142343
v 2.1899455925827325 -0.2309197614641107 0.08933640305745326
l 555 556
v 2.1874562928863606 -0.22792298851090098 0.08717984833055717
v 2.1931222280138094 -0.23538754829814024 0.09066947958819356
l 557 558
v 2.1905989705084776 -0.23206329447534213 0.0891154133901862
v 2.1963569753134915 -0.24002449482225158 0.09097677571434734
l 559 560
v 2.1937926570192148 -0.23647898689280247 0.09014782095974766
v 2.1998750246962295 -0.24440893167233727 0.09049535403030724
l 561 562
v 2.19716652436707 -0.24087769857593078 0.0903405962968079
v 2.2043911458344785 -0.24779096978849555 0.09023323804521972
l 563 564
v 2.2011739144914153 -0.24471238734255102 0.09028104627067542
v 2.2092931155884594 -0.25047330781079113 0.08933745265880129
l 565 566
v 2.205677230768135 -0.24790768286527887 0.08975768191251113
v 2.214549251315168 -0.25226661400532024 0.08824540854787202
l 567 568
v 2.21059809848151 -0.2503253647674052 0.08891889923224128
v 2.220093456703457 -0.2531155906393498 0.08748613553210173
l 569 570
v 2.215864700542856 -0.25187296402436 0.0881242166009809
v 2.2257250418258443 -0.25345665124727174 0.08760884822498086
l 571 572
v 2.2213340705226883 -0.2527514094154319 0.08783835019500642
v 2.231083833084827 -0.2547444261989884 0.08882324312440869
l 573 574
v 2.22674177799482 -0.25385683651520313 0.08838462122669917
v 2.2359926890362924 -0.25702846501157395 0.09047302195064401
l 575 576
v 2.23187279738572 -0.25561598080300924 0.08954295304531584
v 2.2403657837938944 -0.2602055963834687 0.09215151791784033
l 577 578
v 2.2365834337491686 -0.2581616118694565 0.09098979399788135
v 2.244182759464426 -0.26417784090929924 0.09345053307661025
l 579 580
v 2.2407984010564905 -0.26149851433507715 0.09235464334864248
v 2.2475137553971654 -0.26871783044382314 0.09402362237822355
l 581 582
v 2.2445230734897557 -0.2655027092491722 0.09328034285276637
v 2.250507994409652 -0.2735058077134352 0.09364247066707444
l 583 584
v 2.2478426109012952 -0.2699416291807681 0.09348119710688998
v 2.253369499763036 -0.27818166040778197 0.09223404639915579
l 585 586
v 2.250908100753463 -0.2745119639097352 0.09278946475360385
v 2.256323894462858 -0.28240352224530507 0.08989248606304119
l 587 588
v 2.2539119716603864 -0.27888901808988 0.09118265502754966
v 2.25958168563408 -0.28590340486306137 0.08686377535190193
l 589 590
v 2.2570566794853195 -0.28277954891296475 0.08878718767699738
v 2.2633040087029053 -0.2885308075550471 0.08350571991898065
l 591 592
v 2.260521761704039 -0.28596948550216217 0.0858578206819731
v 2.267576405833669 -0.2902772082476046 0.08022971967429039
l 593 594
v 2.2644346212767616 -0.28835876465946847 0.08273619349575327
v 2.2723949056549837 -0.291277450296216 0.07743382168950651
l 595 596
v 2.268849794368214 -0.2899776141469356 0.07979523206680397
v 2.2776666695208845 -0.29178779943027877 0.07543794600984251
l 597 598
v 2.2737400756791772 -0.2909816337238525 0.0773784626102892
v 2.283216023782492 -0.2922572459532388 0.07444943188605092
l 599 600
v 2.2789959469200225 -0.29168915697723097 0.07575386439813855
v 2.288749818502723 -0.29342667486026586 0.07439628539332181
l 601 602
v 2.284405933461112 -0.29265287156814196 0.07500088297099425
v 2.293996068574324 -0.29548467279706664 0.07489983689138824
l 603 604
v 2.2897251167704695 -0.29422353451026906 0.0749448376062761
v 2.298737531058561 -0.29853570669963375 0.07537093584503077
l 605 606
v 2.2947238538963277 -0.29661528155240763 0.07518117306725686
v 2.302889899315316 -0.30238118295822525 0.07544590537245228
l 607 608
v 2.299253152384223 -0.29981333975301444 0.07532800688559817
v 2.306388801407787 -0.30680939145211084 0.07495682817381731
l 609 610
v 2.3032107743350725 -0.3036935372910644 0.07512214123657579
v 2.3103464233586366 -0.3106895889901608 0.07475096252479493
l 611 612
