v 0.0 0.0 0.0
v 0.0069594848119036426 0.006790208559478398 -0.002336373016380061
l 1 2
v 0.0003991727267075054 0.001264091569459306 0.004862871572347416
v 0.010240582590951546 0.002569962729541123 0.0036623082057454233
l 3 4
v 0.0008057118141343211 0.0026419480010982923 0.009694120737004326
v 0.010641478166973735 0.00392868004135905 0.00842841109063256
l 5 6
v 0.0012274584215803152 0.0041352748734036614 0.01448962232895191
v 0.011061299628081535 0.005415290704442353 0.013202328035633936
l 7 8
v 0.001640929604187576 0.005744418708234964 0.019248238573911322
v 0.01147658681020895 0.007032493250846175 0.017983046375738748
l 9 10
v 0.002022950663956473 0.007465412023575166 0.02397020562009665
v 0.011863426144419782 0.00877802250960319 0.022769332591683674
l 11 12
v 0.0023515183716332705 0.009290121116138937 0.028657124742057293
v 0.012198426016294558 0.01064451977961944 0.027559848980056964
l 13 14
v 0.0026066205531871606 0.011206549029320858 0.03331190269566122
v 0.012459751176514555 0.012619639502849098 0.032353261869662385
l 15 16
v 0.0027709815125399185 0.013199282421393026 0.03793864344590581
v 0.012628153792492769 0.01468641293448108 0.037148328647631346
l 17 18
v 0.002830705524697012 0.015250065688798591 0.04254249530052867
v 0.012687930862300748 0.01682386927030278 0.04194395463311538
l 19 20
v 0.0027757944301499073 0.01733848095933058 0.04712945914345546
v 0.012730466518534761 0.01828785045185031 0.04707288017736004
l 21 22
v 0.0026008387313230436 0.019445664359513275 0.05170481711350448
v 0.0125831741903849 0.019770704757311325 0.05220213745549305
l 23 24
v 0.0023045147965473317 0.021561018199101056 0.05627014307402845
v 0.012269761215057967 0.02198730570452621 0.05698578459118591
l 25 26
v 0.0018869616505970727 0.02366505946086291 0.060831216479042216
v 0.011830096533191241 0.024188531289434705 0.06175860310350408
l 27 28
v 0.0013522566474155574 0.025735799626263507 0.06539529980363021
v 0.01126988380868979 0.02634801704062804 0.06652040483317388
l 29 30
v 0.000708840867599041 0.027752490591432748 0.06996954340799824
v 0.01059979043645264 0.028441353301752712 0.0712713055954678
l 31 32
v -3.0795298883871394e-05 0.02969639750215098 0.07456071919754344
v 0.009834860768526056 0.030447130541796864 0.07601166036201627
l 33 34
v -0.0008505774005245049 0.03155149659837858 0.07917496837978519
v 0.008993724669441107 0.03234779392881686 0.08074201251343546
l 35 36
v -0.0017314456728909034 0.033305072074693506 0.08381757271382206
v 0.007936271345919416 0.03220536807688929 0.08612536359720357
l 37 38
v -0.0026597690421105336 0.03495034713896127 0.08849047582600761
v 0.0064417480795343 0.03197422492123489 0.0913723298524221
l 39 40
v -0.0036437651086331274 0.03648981815201114 0.09318797639629608
v 0.005459025857745816 0.03351222249121692 0.09606427970144828
l 41 42
v -0.004669276160350158 0.037917801679690076 0.09791173771481085
v 0.004444257085441849 0.03492638140587703 0.10073926605653691
l 43 44
v -0.005713612854838019 0.03922911731335381 0.10266510947013024
v 0.003419841500024507 0.036214131424085194 0.1054018724549636
l 45 46
v -0.00675338462340952 0.04042293034412497 0.10745033840756428
v 0.002407932082249554 0.037377439196831695 0.11005711033666937
l 47 48
v -0.00776537093385286 0.04150278285451605 0.1122684846413445
v 0.0014297131610672975 0.038422527762376965 0.11471029893704711
l 49 50
v -0.008727386219573226 0.042476461781298984 0.11711938216699806
v 0.0005047883319083749 0.03935949235693878 0.11936692630640426
l 51 52
v -0.009619106257855559 0.0433557088640767 0.12200164504475935
v -0.0003493249606472716 0.04020184925108086 0.12403248827933983
l 53 54
v -0.010422825215928194 0.044155783283526616 0.12691271902369608
v -0.001117608302810184 0.04096604552387455 0.12871230542742124
l 55 56
v -0.01112411516602478 0.044894893280369344 0.13184897668363177
v -0.0017878824057474072 0.04167094621873352 0.13341132209668655
l 57 58
v -0.011712363503522017 0.04559351792638277 0.13680585255097286
v -0.002351093908271649 0.0423373035056516 0.13813389592799916
l 59 60
v -0.012181168250153349 0.04627364431044878 0.14177801315558383
v -0.005406084656035204 0.03906051807847753 0.14321643321049113
l 61 62
v -0.012530823267175339 0.04693910598437549 0.14676195439134632
v -0.007414768591459834 0.038443767609675994 0.14804850421721688
l 63 64
v -0.01277449720949041 0.04754916412899781 0.1517592731499802
v -0.005566709569176139 0.04069006986657392 0.1527595847171014
l 65 66
v -0.012899011055200096 0.04814795401573028 0.15676233999348582
v -0.005689216657382809 0.04127196562535494 0.15762236813059885
l 67 68
v -0.012903690345875183 0.048768675437079634 0.16176428100554602
v -0.005694747089790145 0.04187996597715739 0.162523767086606
l 69 70
v -0.012794904559148494 0.049433234922745546 0.16675940434831063
v -0.005587599115858599 0.04253675550569437 0.16746177170042306
l 71 72
v -0.01258324957242273 0.050161906101898385 0.17174227213163362
v -0.005376351806193571 0.04326381316443094 0.17243287941018123
l 73 74
v -0.012283152982720012 0.0509725745416475 0.1767079029661255
v -0.00507377381975458 0.04408053625544227 0.17743223738204209
l 75 76
v -0.011912336700863932 0.05188007153715132 0.18165195751225213
v -0.004696530613268324 0.04500336428771645 0.1824538552063429
l 77 78
v -0.011491156837534858 0.05289562166866426 0.18657090011406438
v -0.004264674226237173 0.04604495785388603 0.18749087531237163
l 79 80
v -0.011041845469428614 0.054026424703171066 0.19146213049694907
v -0.002385565229483161 0.049043275496276115 0.19194899432734952
l 81 82
v -0.010597211780352783 0.05527394719761081 0.19632533200042404
v -0.0010050628773260895 0.052447332249918606 0.19635578458072347
l 83 84
v -0.010215469861836683 0.05662155572310273 0.2011671245648037
v -0.0010165204338455722 0.06020916827256517 0.19958334250397539
l 85 86
v -0.009931260741656888 0.058026087779151754 0.20599944483361016
v -0.005166473204722756 0.0664485615775626 0.2034777916372011
l 87 88
v -0.009741658011078649 0.059371970924653614 0.2108530394015591
v -0.004969660971716469 0.06785655166127942 0.20856394919363874
l 89 90
v -0.009619118030136377 0.060620127439676826 0.21573482392505966
v -0.010181054938745061 0.07034867386230317 0.2134899160397451
l 91 92
v -0.009521018329567674 0.06175858716869139 0.2206439039606505
v -0.015247222921788041 0.06981466557551072 0.21912397578102696
l 93 94
v -0.009345906207896933 0.06281239968496959 0.22556970803635154
v -0.016349682790568 0.06987483769707692 0.2245357433826182
l 95 96
v -0.009060405128048355 0.06381742052672904 0.23050054546877705
v -0.017140982033054235 0.06968461757531132 0.22997113478188733
l 97 98
v -0.008654392628658044 0.06482078788430344 0.23542326206258024
v -0.016720809254024728 0.07071910255016309 0.2350453640227426
l 99 100
v -0.008130772647880062 0.06585120143363496 0.2403292584853162
v -0.016183906405376338 0.07177381237747046 0.24006522005660957
l 101 102
v -0.007497674144413162 0.06692972005018867 0.24521195392384898
v -0.015540861398614714 0.07286860559647872 0.24502017993729985
l 103 104
v -0.0067673039836891056 0.06807561076959939 0.2500656354908972
v -0.01480613090590633 0.07402124666460888 0.24990230907352878
l 105 106
v -0.0059554922508937855 0.06930563112020213 0.25488567102130705
v -0.013997274416904796 0.07524681311456588 0.2547065171648728
l 107 108
v -0.005081102604620349 0.07063340493085316 0.2596686816130841
v -0.0131341185313137 0.07655727973325695 0.25943068621424464
l 109 110
v -0.004165329634574652 0.07206891486424104 0.264412667486302
v -0.012237909221220136 0.07796127387813408 0.2640756748028974
l 111 112
v -0.0032309093956787507 0.07361813057804201 0.2691170824718307
v -0.011330499633585607 0.07946398156942834 0.2686452094332796
l 113 114
v -0.0023012725249638463 0.07528278636434514 0.2737828543552973
v -0.01043360672560802 0.08106717459418022 0.27314567835482445
l 115 116
v -0.0013996714863470717 0.07706031654993714 0.27841235031849765
v -0.009568154063082236 0.08276932543346861 0.2775858456534577
l 117 118
v -0.0005483144520829547 0.07894395106368692 0.2830092887655114
v -0.008753703021386991 0.08456577934556259 0.2819765036010955
l 119 120
v 0.00023246191752545497 0.08092296761129145 0.28757860081786474
v -0.008007962712561646 0.08644896046155366 0.28633007971884206
l 121 122
v 0.000924949983471255 0.08298309106426148 0.29212624663783116
v -0.007346361927000413 0.08840859958155994 0.29066021232431344
l 123 124
v 0.0015147307103851283 0.08510702518652102 0.2966589934215459
v -0.008361088947340565 0.08664815130445568 0.29696414318264447
l 125 126
v 0.0019905353878823433 0.08725848190967636 0.30119216111803554
v -0.007436729057782215 0.08459274936421099 0.30319729330010126
l 127 128
v 0.0023698304780860654 0.08935352764261754 0.30576071115915865
v -0.007070862942507869 0.08660678921037977 0.307585193475659
l 129 130
v 0.002677338019921696 0.0913608139166032 0.31037384152722725
v -0.006772676130479563 0.08854839768440738 0.3120434365362332
l 131 132
v 0.0029328907119018583 0.09326774542165694 0.3150324932552992
v -0.0065233481658341285 0.09040642673035632 0.3165792322875888
l 133 134
v 0.0031582564908565493 0.09506546490872868 0.31973591177572575
v -0.004721028853007894 0.0893945785051658 0.322135476292018
l 135 136
v 0.0033895775037210093 0.09675155095142078 0.32448020875288036
v -0.002039102908603529 0.08889969777404078 0.3274597776246656
l 137 138
v 0.003696570367290884 0.09834954639685052 0.3292506276867809
v -0.0017319475595647862 0.09049721951391315 0.33222924408391996
l 139 140
v 0.004105227682397071 0.09988186359013555 0.3340349493821506
v -0.0013189003519219642 0.09204286839593136 0.3370563711356564
l 141 142
v 0.004626137852810244 0.10136699921182891 0.3388232429870115
v -0.0007874534026383745 0.09355397738645432 0.34192964278020466
l 143 144
v 0.00526570803594141 0.10282520738352091 0.34360542970186003
v -0.00012950783731761808 0.0950497516669009 0.3468355897721685
l 145 146
v 0.006025925486074313 0.10427774523293445 0.34837165819946136
v 0.0006580902962032044 0.09655052286063524 0.3517593387899864
l 147 148
v 0.0069042835321972106 0.10574608109858381 0.3531126715716502
v 0.001573232867560754 0.09807688115554497 0.3566852436205769
l 149 150
v 0.007893874947646021 0.10725109486715548 0.3578201521349337
v 0.0026084922703611298 0.09964873371525039 0.361597563268324
l 151 152
v 0.008983649233683126 0.10881230022981545 0.3624870312514213
v 0.003751345783396566 0.10128434986712309 0.3664811474166022
l 153 154
v 0.01015882423359391 0.11044711782720043 0.36710775262472195
v 0.004984680924957253 0.10299945968127833 0.3713220887721087
l 155 156
v 0.01140143674530841 0.11217022635732452 0.37167847926344766
v 0.0062875572074492765 0.10480647165931645 0.3761083046347044
l 157 158
v 0.012691011623074124 0.11399301581663515 0.37619723640324565
v 0.007636177631911614 0.10671386720886758 0.38083001622402535
l 159 160
v 0.014005324445170891 0.1159231632401487 0.3806639850637356
v 0.009005005613204626 0.10872581521813462 0.3854801031092878
l 161 162
v 0.015321229339467335 0.11796434674369335 0.38508062350046973
v 0.010367951894585267 0.11084203103771174 0.3900543204693602
l 163 164
v 0.01661552113158921 0.12011610851974691 0.3894509164978297
v 0.011699552646651176 0.113057882815737 0.39455137763054604
l 165 166
v 0.01786579970200511 0.12237387189006334 0.39378035513659454
v 0.012976064586209476 0.1153647270072577 0.39897288616771936
l 167 168
v 0.01905130435605647 0.12472911177990442 0.39807595225961917
v 0.014176414790907858 0.11775043652016048 0.403323193758411
l 169 170
v 0.020153687127930302 0.1271696722639732 0.40234598125421517
v 0.015282960202775517 0.12020007148943232 0.4076091252066538
l 171 172
v 0.021157696214190204 0.129680219355951 0.4065996678811874
v 0.016282032219272703 0.12269663551135737 0.41183965426420366
l 173 174
v 0.02205174408001669 0.132242812175924 0.4108468466294211
v 0.017164262553315445 0.12522185985540196 0.41602552916835994
l 175 176
v 0.022828339077072473 0.13483757122058995 0.4150975943962834
v 0.01792470505812913 0.1277569642939562 0.4201788716922758
l 177 178
v 0.023484364495890548 0.13744341884420702 0.4193618551386825
v 0.018562782250300135 0.130283354469921 0.4243127647880267
l 179 180
v 0.02402119465851228 0.14003886436850743 0.4236490694759536
v 0.025393125923499644 0.13144230202703397 0.428570138517667
l 181 182
v 0.024462909337873207 0.14258619221780414 0.4279758245572887
v 0.03156113560139299 0.13615106723071932 0.4308401482667313
l 183 184
v 0.024914408226560693 0.14503483498681286 0.43235817874312404
v 0.03199089028573878 0.13849012828416035 0.43502092466460923
l 185 186
v 0.02542256611961462 0.14738629334375772 0.43678730394095866
v 0.032473229430533906 0.14073181941906474 0.43923804335216454
l 187 188
v 0.02600648756849476 0.14964957945429405 0.44125287250388595
v 0.033027226884209525 0.14288886637798845 0.4434893827678122
l 189 190
v 0.026682455048633286 0.15183698976476023 0.4457431993256523
v 0.033669714036652226 0.14497671619915453 0.4477717107107325
l 191 192
v 0.027463322462246358 0.153963646978448 0.4502456770929089
v 0.03441478939932665 0.14701311681067816 0.4520806805832601
l 193 194
v 0.02835803635022942 0.15604693675814393 0.45474724588825977
v 0.035273347511734075 0.14901765177836757 0.4564108636967301
l 195 196
v 0.02937130264725707 0.1581058601369075 0.45923487965211607
v 0.03625263691751616 0.15101121914265064 0.4607558358722513
l 197 198
v 0.030503411392948133 0.16016032575878858 0.4636960713833973
v 0.03735586908301425 0.15301544351732282 0.46510833246458627
l 199 200
v 0.031750225928335575 0.16223040831243077 0.46811929900610294
v 0.038578867689625096 0.155047292004625 0.469450648623787
l 201 202
v 0.033106256929975625 0.16433070028973581 0.4724959041806852
v 0.039934898691265146 0.15714758398193004 0.47382725379836926
l 203 204
v 1.0 0.0 0.0
v 1.0028000039747875 0.004083976277589235 0.00868798684997059
l 205 206
v 0.999515681588928 -0.005849363715800993 0.002905708372529645
v 1.001785062752268 0.0023363510542897797 0.00818244816507157
l 207 208
v 1.0005571794613104 -0.00956030912152949 0.008214513821875897
v 1.0017802809404468 0.0003024827611886171 0.00932327847225213
l 209 210
v 1.0008650966415749 -0.0103300979137545 0.014722344577738085
v 1.0018886763280317 -0.00043380252388003013 0.013714563757409457
l 211 212
v 0.9983976309000435 -0.00946220677750705 0.020738790930152077
v 0.9980508173232698 0.0005315090488128386 0.020665549372762614
l 213 214
v 0.9933919295235025 -0.009604860126791135 0.02497693352712986
v 0.9892304439332976 -0.0006926440795151974 0.02678094095760085
l 215 216
v 0.9881693606201786 -0.012576494223287082 0.027610071155143034
v 0.9806444936518007 -0.006850915962315919 0.030864933776777164
l 217 218
v 0.9852293686788283 -0.017872585042613985 0.0301294199479306
v 0.976774280020627 -0.014591958069585263 0.0343423716976891
l 219 220
v 0.9851971063119669 -0.02307992796610753 0.03411963143835429
v 0.9763925932797318 -0.019674609710648223 0.03741877645551238
l 221 222
v 0.986310102840293 -0.02585819191363696 0.039957588023262644
v 0.9763635402877936 -0.026031137334989476 0.03893975538945132
l 223 224
v 0.9856508654797904 -0.02628674763464303 0.04647266935652056
v 0.9783276338535781 -0.03029698457824216 0.04096919061984536
l 225 226
v 0.9823975457722836 -0.027859970463437023 0.05194808073222482
v 0.9771136096991774 -0.030772035141054463 0.04397312625657417
l 227 228
v 0.9791591775441254 -0.032182473813888494 0.05567208193062356
v 0.9743094000881458 -0.035407959598843824 0.04754337354130839
l 229 230
v 0.9785628342629099 -0.0381253782973642 0.058386029224274764
v 0.9747148201202686 -0.04437225975748613 0.05159123274599693
l 231 232
v 0.9810661440818436 -0.04322924492944233 0.06166066420757801
v 0.9800479226515335 -0.05238376193881167 0.05776733100272322
l 233 234
v 0.9845815177434772 -0.045723593676453705 0.06660633112608935
v 0.9856416448839633 -0.055644659493501634 0.06593656736190978
l 235 236
v 0.9861903302486489 -0.04598069730315358 0.07296124017105797
v 0.9877980959764585 -0.05585041220267717 0.07302302339372287
l 237 238
v 0.9845394907057626 -0.04620989712620927 0.0793064308826314
v 0.9877979981064231 -0.055410900742717324 0.07713303216890058
l 239 240
v 0.9809525055318046 -0.04864344710591767 0.08423092281373946
v 0.9869928882660437 -0.054921227484367216 0.07932141673431965
l 241 242
v 0.9783427079439052 -0.053703543684324916 0.0874903135679861
v 0.9855030433059113 -0.05611810881576888 0.08094054466140473
l 243 244
v 0.978821033349778 -0.05965564772149071 0.09020746488109602
v 0.9859068852578396 -0.06055470856044037 0.08320872268375187
l 245 246
v 0.9819626674599793 -0.06403276620566625 0.09395048743173483
v 0.9903323393355631 -0.06545315241342944 0.08866549966298293
l 247 248
v 0.9851558739440535 -0.0656611736364928 0.09944511849403355
v 0.9950122314882613 -0.06710083648221356 0.09856217633772411
l 249 250
v 0.98574656886049 -0.06562419296510077 0.10597879746281691
v 0.9949534855055253 -0.06675689074696936 0.10971372472132138
l 251 252
v 0.9832176679704435 -0.06637264687769145 0.11198577057333893
v 0.9913216934597504 -0.06768630471567044 0.11769533044721539
l 253 254
v 0.9796136799954186 -0.06971241434789782 0.1163327779165936
v 0.988124166392849 -0.06964004547696317 0.12158314781076994
l 255 256
v 0.9778618996585297 -0.07532156966598559 0.11924960687804123
v 0.9861801663350713 -0.07122075788812335 0.12298989861271671
l 257 258
v 0.979368718866861 -0.08101472522008693 0.12214040687660414
v 0.9854598373189963 -0.07321575542168736 0.12358066591084375
l 259 260
v 0.9828647964603193 -0.08453751830457572 0.1264307004872886
v 0.9871839862116202 -0.07553465848745713 0.12588929952167305
l 261 262
v 0.9854473520155999 -0.08541773543072553 0.13239684442925026
v 0.9893789709431485 -0.0762252131109289 0.13259660931250603
l 263 264
v 0.9849637252426724 -0.08535306087605367 0.13893910483892286
v 0.9872864912625093 -0.07636099936856885 0.14264687881567775
l 265 266
v 0.981778989415183 -0.0868170575985322 0.14448468147504998
v 0.9810793749704922 -0.07984206793987172 0.15161630533573975
l 267 268
v 0.9784761788403593 -0.09102805107501465 0.1482791808055728
v 0.9761511412043684 -0.08672082881352525 0.15699938931118526
l 269 270
v 0.977735282514539 -0.09694872599307759 0.15100607098863647
v 0.9748945211116614 -0.09287598437860269 0.1596860969329321
l 271 272
v 0.9801326253979594 -0.10213789672604334 0.15422546582694507
v 0.9753054080150749 -0.09638188921028722 0.1608259468561532
l 273 274
v 0.9836676308376495 -0.10475503750423157 0.1590930688931357
v 0.9764087503587813 -0.09828038132967828 0.1614141638103728
l 275 276
v 0.9854055535972153 -0.10507159290113109 0.16541119093089038
v 0.977724739294217 -0.09888610199842045 0.16375444896687155
l 277 278
v 0.9838872865126713 -0.10524808661552841 0.17179107838681404
v 0.9762878340008826 -0.09932143319642334 0.1691221646057266
l 279 280
v 0.9803274768099123 -0.10756005116214917 0.17679326028442574
v 0.9712794206925809 -0.10351680136904134 0.17545729186857298
l 281 282
v 0.9776171431178863 -0.11252952040070474 0.18010954068366844
v 0.9676331102757337 -0.1128881214256103 0.18054599630770882
l 283 284
v 0.9779497740315036 -0.11849637199720664 0.18281606753964297
v 0.9691600143904496 -0.12275318158755467 0.18496541571153588
l 285 286
v 0.9810201893449889 -0.12298150328002677 0.18648967558896815
v 0.9731784620687661 -0.1284384034384555 0.18944425745215696
l 287 288
v 0.9842751326014435 -0.1247224962252234 0.19191310041867865
v 0.9760783027906537 -0.13037394529039825 0.1928475010376216
l 289 290
v 0.9850098259581803 -0.1247102264673713 0.19843225098037692
v 0.9777442037620283 -0.1305945412652688 0.1948846358008474
l 291 292
v 0.9825889437714234 -0.1253752258261318 0.20449330321676087
v 0.9779209826840692 -0.13026167163973093 0.19712222550738165
l 293 294
v 0.9789682973906146 -0.1285919002930152 0.20891859123910705
v 0.9757728382199843 -0.13218078060211053 0.20014881479863708
l 295 296
v 0.9770888602516355 -0.13413939948674003 0.21187362383752828
v 0.9743718634579522 -0.13893901227386699 0.20353206250185724
l 297 298
v 0.9784618470610164 -0.13988296347412757 0.21473118028763283
v 0.9778510249811271 -0.1476753843468389 0.2084937871359025
l 299 300
v 0.9819278104244861 -0.14352683768475313 0.2189440804314418
v 0.9841800856031364 -0.15292509427484224 0.2163750281574539
l 301 302
v 0.9846086976092265 -0.14449938531367135 0.2248522310671031
v 0.9879373888909025 -0.1539248925989591 0.22513441321799363
l 303 304
v 0.9842711052977673 -0.14442247531468821 0.2314035183608175
v 0.9882287211267767 -0.15360596810245883 0.23137636754242608
l 305 306
v 0.9811601935212481 -0.14577971753324406 0.23701772982818894
v 0.9874066943094554 -0.15320023279758532 0.23458520416242426
l 307 308
v 0.9777983774615351 -0.14987709674653063 0.2408841138345528
v 0.9860322987184876 -0.15323998803506617 0.23631317269340957
l 309 310
v 0.9769140972746965 -0.15577058969495802 0.24362711189133024
v 0.9850449029610718 -0.15573943949028732 0.23780568349658424
l 311 312
v 0.9792014146765613 -0.16104133067609072 0.24679361114672532
v 0.9873912151979244 -0.16040158727619985 0.24109116467152047
l 313 314
v 0.9827500982115798 -0.16378181416183085 0.251582749310754
v 0.9923352197072282 -0.16337271934357647 0.24876174109677512
l 315 316
v 0.9846141711522041 -0.16416220435764053 0.2578612669934914
v 0.9943559605714197 -0.16337840751734872 0.2599786241728085
l 317 318
v 0.9832309406663714 -0.16429060830910583 0.2642729309561297
v 0.9913079521032164 -0.16369402280845635 0.2701385913613603
l 319 320
v 0.9797041714098915 -0.16648204646651624 0.26935217758681007
v 0.9870373590403296 -0.16600771346234058 0.27613446093225785
l 321 322
v 0.9768977515179417 -0.17135752049480205 0.27272753079959555
v 0.984411712023956 -0.16844851397959437 0.27865020575340954
l 323 324
v 0.9770840688238529 -0.17733409032455946 0.2754266321042957
v 0.9830273421549204 -0.17033982241947193 0.27939623140196845
l 325 326
v 0.98007808557964 -0.18192467335360582 0.2790324135786756
v 0.9833885253917859 -0.17256478693965865 0.2802297082659464
l 327 328
v 0.9833892784578611 -0.1837802619907777 0.2843833052290735
v 0.9856038856747603 -0.17403238625207504 0.28411048027114294
l 329 330
v 0.9842666813773272 -0.1837976339374368 0.29088477515931743
v 0.9857325801068961 -0.17401854109589332 0.2923749040500921
l 331 332
v 0.9819577856250639 -0.18438298132749073 0.29699751740479285
v 0.9808263467979365 -0.1757904567273035 0.301986341632569
l 333 334
v 0.9783264471562735 -0.18747611475451148 0.3015014218719426
v 0.9746014039093446 -0.18201367892166578 0.30900381133001215
l 335 336
v 0.9763224189984911 -0.1929576270618074 0.3044974430483133
v 0.9719437318634084 -0.1897850043197037 0.31290943234391677
l 337 338
v 0.9775592212517938 -0.19874694211251104 0.30732470326827965
v 0.9723333541122061 -0.19506085351615732 0.3150125549512408
l 339 340
v 0.9809892317139541 -0.20251073777649153 0.3114608995100889
v 0.9734273388201574 -0.1977245480042012 0.31592298011518455
l 341 342
v 0.9837639196494289 -0.2035789061744192 0.31730892242863845
v 0.9749249500981974 -0.19891287201960584 0.3169915227775408
l 343 344
v 0.983572859152675 -0.20349479920085514 0.32386603084813714
v 0.9753012432527887 -0.19904571149302208 0.3204329580302731
l 345 346
v 0.9805408886207805 -0.20474793635126048 0.3295472323845624
v 0.9720051310559138 -0.20088433561185995 0.32605246027177387
l 347 348
v 0.9771256022302455 -0.20872978617260138 0.3334867678638285
v 0.9673664060577902 -0.20798772723045128 0.3314355636823998
l 349 350
v 0.97609934621713 -0.21459119002733507 0.33624901194586415
v 0.9668914340315603 -0.218483212731841 0.335991111867449
l 351 352
v 0.9782727628736232 -0.21993963152287538 0.33936504829474445
v 0.9709025976618525 -0.22651426417193873 0.34093185086082467
l 353 354
v 0.9818291480360496 -0.22280380292626564 0.34407545121487315
v 0.9749583246293201 -0.22987249145594502 0.3457563522184774
l 355 356
v 0.9838162009413852 -0.2232523046126555 0.35031161316836545
v 0.9771649082257008 -0.23059028543653504 0.34892801545274893
l 357 358
v 0.9825702462484825 -0.22333731525562006 0.3567520804662641
v 0.9781589557322895 -0.23022532953749938 0.3509991876952861
l 359 360
v 0.9790823273740521 -0.2254094868425058 0.36190763822089905
v 0.9772208312839795 -0.2303770874163451 0.35343074156909093
l 361 362
v 0.9761844312483271 -0.23018775436884512 0.36534414901132634
v 0.9751315427804118 -0.23427858425070194 0.35628012469804043
l 363 364
v 0.9762240595626553 -0.23616899691698748 0.368039036040216
v 0.9762677855918157 -0.24217303533058493 0.36004218598770027
l 365 366
v 0.9791366252657153 -0.24086229497661746 0.37157869185262415
v 0.9819962884645942 -0.24909759416877403 0.3666794905294855
l 367 368
v 0.9824984869135595 -0.2428342985880128 0.37685584420392887
v 0.9873986409339067 -0.2515109036913582 0.37601619281348486
l 369 370
v 0.9835170727902861 -0.2428861936525237 0.3833365107310306
v 0.9887092945308215 -0.25135519392567185 0.3844840593228246
l 371 372
v 0.9813239446549069 -0.2433958243445321 0.38949846776277414
v 0.9876673961004523 -0.2511262862275815 0.3895226096916364
l 373 374
v 0.9776878982269902 -0.24636517449181278 0.39408119347989484
v 0.9862977788768069 -0.25096550500073694 0.39191165103860137
l 375 376
v 0.9755625523794254 -0.25177647907263667 0.3971209198957547
v 0.9847730910398561 -0.2519102443014294 0.39322886588170547
l 377 378
v 0.9766610447779583 -0.25760681160382515 0.39992088167185347
v 0.9850879477510656 -0.2553779436756287 0.39501991706878875
l 379 380
v 0.9800493235584128 -0.26148916928128213 0.40398119135113847
v 0.9889401647919385 -0.25913549416757337 0.40005523215377686
l 381 382
v 0.982913125111089 -0.2626560894278369 0.40976705230348925
v 0.9925786169416565 -0.26009146968776503 0.40979856836393497
l 383 384
v 0.9828688496872106 -0.26256983593825906 0.41632676639358934
v 0.9912056390597372 -0.2598707489966505 0.4211447403079817
l 385 386
v 0.9799208060919931 -0.263721690876192 0.42207320164373696
v 0.9863665148724019 -0.26180949500842293 0.42947565699864776
l 387 388
v 0.9764576735964453 -0.267586288627567 0.4260870335360605
v 0.9825842448596211 -0.2652097107350837 0.4336247388950001
l 389 390
v 0.9752910862974218 -0.27341074971908 0.4288716297345586
v 0.9807290163767761 -0.26781165535954543 0.43512295429860753
l 391 392
v 0.9773469166824311 -0.2788328925604951 0.4319397199152485
v 0.9801408392227562 -0.2699303443596203 0.43553675096456745
l 393 394
v 0.9809050141748495 -0.28182089105029995 0.43657124840818184
v 0.9815086949034689 -0.27185919059672736 0.4372037779736456
l 395 396
v 0.9830116719665349 -0.2823416674577174 0.4427623738150598
v 0.9830138383032776 -0.27234192764914866 0.44283447837740547
l 397 398
v 0.9819050035845452 -0.2823880535318875 0.4492286232957025
v 0.9803449167324003 -0.2728425019838779 0.45176802768611696
l 399 400
v 0.9784616803103396 -0.2843424170431165 0.4544596114448743
v 0.9739772621032194 -0.27733265335964197 0.4600051688059959
l 401 402
v 0.9754770702995779 -0.2890204287039958 0.4579592626997597
v 0.9695084951716196 -0.2856366467583889 0.4652342974547628
l 403 404
v 0.975369878595341 -0.29500129067176256 0.46065315374851196
v 0.9697754278847291 -0.2938103994681498 0.46885583010368365
l 405 406
v 0.9786342045694625 -0.299863277063609 0.4635853927581081
v 0.9730397538588507 -0.2986723858599962 0.4717880691132798
l 407 408
v 2.0 0.0 0.0
v 2.0094428080199758 0.001882982297072915 -0.0026995841099675365
l 409 410
v 2.0015245913680273 -0.005004253943628985 0.00184232156090971
v 2.0108469140339285 -0.002708177863090254 -0.0009545221503486345
l 411 412
v 2.00309031204755 -0.01024578064119434 0.0027580714446406775
v 2.012156779880224 -0.007128672844605098 -8.495511582751192e-05
l 413 414
v 2.00489637569508 -0.015489988810082794 0.002767869381213757
v 2.0134795467336404 -0.011143976685768739 3.9984937522718166e-05
l 415 416
v 2.0071862326397802 -0.020485247281172556 0.002014457676405641
v 2.0156309000296746 -0.015248128291414805 0.003137033892603125
l 417 418
v 2.0101557825798784 -0.025029275661062035 0.0008748965445772683
v 2.0171162880524616 -0.0197145097672305 0.005702383163917156
l 419 420
v 2.01381321472114 -0.02912925341942177 0.00011525601764915905
v 2.0196903088769296 -0.0227345944068745 0.0050718778911866165
l 421 422
v 2.0178971863715844 -0.03288223309461527 0.00011467888761430346
v 2.0228820620757535 -0.025719825023719046 0.0049984197529699655
l 423 424
v 2.0220806111812597 -0.03641008435754799 0.0010185060533619607
v 2.02656277348776 -0.028832989001812616 0.00576169559504007
l 425 426
v 2.0260202187905736 -0.039871312018950215 0.0028249047296533547
v 2.033010572720832 -0.032721032708515695 0.00291687055206619
l 427 428
v 2.02949816887141 -0.04330520654064825 0.005447650110153859
v 2.037753462164606 -0.03931503042504857 0.0014565816805466774
l 429 430
v 2.0326253128508642 -0.046365534856685035 0.008856321749803798
v 2.041437263354523 -0.04292213405876001 0.0056171059085979285
l 431 432
v 2.0351948796148025 -0.049097049384937724 0.012942865062278984
v 2.0445835493793543 -0.04634509338146091 0.010874141251056374
l 433 434
v 2.0369654721320436 -0.05170852297173745 0.017504541186300102
v 2.046748745685665 -0.04974059867560942 0.01686046623745721
l 435 436
v 2.037825710426785 -0.054428262722244616 0.022261292912310184
v 2.047590073091099 -0.05630417752536886 0.021194444557962704
l 437 438
v 2.0377719091555067 -0.057379093949650004 0.02695753004482242
v 2.0460643691925653 -0.06269475113492554 0.025231582414558435
l 439 440
v 2.036786825908622 -0.060393354892259936 0.03150808200955069
v 2.0448472116208536 -0.06623592433221362 0.03056226780508309
l 441 442
v 2.034966680804104 -0.06357792552531043 0.03566852223850944
v 2.042883023779158 -0.06965398513223739 0.03502586093238819
l 443 444
v 2.0325452187862907 -0.06710602954404589 0.039197358441338606
v 2.0405681335530366 -0.073029489622753 0.038458806248535246
l 445 446
v 2.0298540370829197 -0.07109498746608509 0.04195587923204706
v 2.0382651845971735 -0.07639969140452775 0.04090102681633531
l 447 448
v 2.0272686243981304 -0.07558712506708201 0.043930726628725554
v 2.0362305611149236 -0.07979431642470643 0.042522454224493515
l 449 450
v 2.0251472576468164 -0.08054288570851371 0.04523606979754504
v 2.0346177091829043 -0.0832712046199459 0.04354290010134593
l 451 452
v 2.023772699562932 -0.08584726738828961 0.046095026307744646
v 2.033530089148877 -0.08692406692878245 0.04418876000481427
l 453 454
v 2.023306184728214 -0.09132853701312785 0.04680335421623155
v 2.033070666265179 -0.09085302890747878 0.04469888460235544
l 455 456
v 2.023761181873494 -0.09678617651971268 0.047681323367785355
v 2.0333419687402214 -0.09511293703783022 0.0453556422523681
l 457 458
v 2.0250012021125325 -0.10202351317316811 0.04902159789275174
v 2.030885388069166 -0.10277572723643302 0.040971099173368955
l 459 460
v 2.026913800640264 -0.10688960299985453 0.05087420691961725
v 2.0332452330582833 -0.10664865011875996 0.04313761172242995
l 461 462
v 2.0295594789375695 -0.11132377693788705 0.052901262226746154
v 2.0383548401436387 -0.10797136486983885 0.049524436116213134
l 463 464
v 2.032163123281884 -0.11535864746481916 0.05567707700253543
v 2.041007513827815 -0.11434746755112972 0.051121391428091814
l 465 466
v 2.0344051502661005 -0.11898499658537652 0.059224835206670434
v 2.043758115547329 -0.11885266240054548 0.05568866098702871
l 467 468
v 2.0360253678153377 -0.12227341831882299 0.06338714932423387
v 2.045743173286429 -0.1230813306847401 0.06117095113024833
l 469 470
v 2.0367977893801252 -0.12538949625958945 0.06791010238727224
v 2.0466123363849325 -0.12711556770741525 0.06707622922699304
l 471 472
v 2.0366343902263018 -0.12852685950235898 0.07248109066297112
v 2.0462976053643325 -0.13107777141685167 0.07282038640510624
l 473 474
v 2.035599431697386 -0.13187567338525324 0.07677969364978993
v 2.040500864639075 -0.13934716893171548 0.07229051672998378
l 475 476
v 2.0337769495255382 -0.1354003298214255 0.08065605696177215
v 2.0308190957540897 -0.14174509358302295 0.07351497343920722
l 477 478
v 2.0311671589579503 -0.1384720376277453 0.08446621254429786
v 2.0283027001887257 -0.14476460852733633 0.07724136462665752
l 479 480
v 2.0277985728733072 -0.14104541896433256 0.08804308513134665
v 2.0254426603009485 -0.1470367861970403 0.08039107920909078
l 481 482
v 2.0237383953083277 -0.14331115696304658 0.09106716692242785
v 2.0223571033480536 -0.14882614777834302 0.08284056927651864
l 483 484
v 2.019166372960737 -0.14550999754696 0.0933089057468218
v 2.019126945546768 -0.15039756771101123 0.0845847952838288
l 485 486
v 2.014345545014497 -0.14789357285346452 0.09466606008148737
v 2.0157847895504437 -0.1520110827344715 0.08566746643883646
l 487 488
v 2.0095794387812305 -0.150683453144044 0.09518033681106239
v 2.0123547841454594 -0.15393694801997262 0.08614085512229516
l 489 490
v 2.0051626767098374 -0.15403509068221985 0.09503060426776834
v 2.0089098145769286 -0.15645764211399493 0.08608129131283063
l 491 492
v 2.001333032484156 -0.15801252299133578 0.09450378499303284
v 2.0024246103136005 -0.15725658198661027 0.08459232642026768
l 493 494
v 1.9982355976474626 -0.16256201516472094 0.09381566842266609
v 1.9956160386296766 -0.1594611676494046 0.08467659542596163
l 495 496
v 1.9959309768633773 -0.16750366955841967 0.09279956683401772
v 1.9929715234348597 -0.16470897540547902 0.08366549216846157
l 497 498
v 1.9945082018209865 -0.17274161317011738 0.0916579280485199
v 1.9914029487415004 -0.170881750324322 0.08233600155732872
l 499 500
v 1.993968811031574 -0.17818684818515823 0.0907512007331718
v 1.990846853586129 -0.17771516521057215 0.08126273948382713
l 501 502
v 1.9941724182235603 -0.18371905010719103 0.09040919602215652
v 1.9912085803876363 -0.18488549057410497 0.08093000397222472
l 503 504
v 1.994857729085971 -0.18920374231767872 0.09086982775706566
v 1.9865446193135168 -0.1920048495781751 0.0860692023783969
l 505 506
v 1.9958940049857026 -0.19449715144029842 0.0921639781910357
v 1.9865207009845767 -0.19702712753628304 0.09455988992902227
l 507 508
v 1.9976747768459144 -0.19945727356738607 0.09389305924274517
v 1.988711434750104 -0.2029272339806149 0.09665310873579723
l 509 510
v 2.0000896421727763 -0.2039305972029629 0.09611150065996511
v 1.991381569014448 -0.2078320192041613 0.09910288298888434
l 511 512
v 2.0028161529879793 -0.20781192964132783 0.09898640561397784
v 1.994182157624267 -0.210113675103772 0.10347595925387491
l 513 514
v 2.0055415105599366 -0.21105968369693656 0.10256253428241109
v 1.9969917395222572 -0.21119969901895666 0.10774730148189647
l 515 516
v 2.008126815366659 -0.2136065655484304 0.10675696786848647
v 1.999068892489887 -0.21329627555261835 0.11098281136735716
l 517 518
v 2.010271924914016 -0.21553059427689683 0.11149619773197714
v 2.001538202073574 -0.22033409811861115 0.11230145308835578
l 519 520
v 2.0116673387357533 -0.21721311411645267 0.11659416699252333
v 2.006624151614976 -0.22533453295470054 0.11366008796860835
l 521 522
v 2.0124607880731165 -0.219507502266052 0.12158114026146542
v 2.0072418730785975 -0.22685158853719029 0.11724209392360903
l 523 524
v 2.0130280750319267 -0.22260732776156442 0.12614545276400763
v 2.0076838091943863 -0.22912931847285886 0.12076935196328883
l 525 526
v 2.0136936888816717 -0.22642426760467316 0.130114282522796
v 2.00823571009644 -0.2323151973384764 0.12415547270443873
l 527 528
v 2.0147661181598058 -0.23075330280062603 0.13341171044964
v 2.009257042220374 -0.23641692399785902 0.12728198963806733
l 529 530
v 2.0164876503412317 -0.23530608109314777 0.13607107465647317
v 2.011124661377836 -0.2412378561243871 0.1300667100475188
l 531 532
v 2.018994944404724 -0.2397578405185193 0.13822954534539164
v 2.0141242929704966 -0.2463794182398233 0.1325346824772456
l 533 534
v 2.0222967923213813 -0.24380025791026563 0.14010580310574938
v 2.0166144762000324 -0.2516771113807141 0.1377253697623973
l 535 536
v 2.0262968852311567 -0.24721708077872506 0.1418634749401258
v 2.020720115907961 -0.25495283575108946 0.14487308270915533
l 537 538
v 2.0308906895281944 -0.24996002825055363 0.14332539877672304
v 2.026774981035416 -0.2575725514625003 0.14833643000293226
l 539 540
v 2.035943911832825 -0.25194604275716476 0.1444587001208697
v 2.0332781349968867 -0.26046996071487555 0.14895719503708238
l 541 542
v 2.0412729319459713 -0.2530446264044617 0.1455350026591215
v 2.0398278963488305 -0.2621319167123219 0.14945074358309315
l 543 544
v 2.0466274763481844 -0.25328115302112864 0.14696209432452506
v 2.045780537362915 -0.2623682874214616 0.15104947523967308
l 545 546
v 2.0517663865951485 -0.2528423913214932 0.1490023812802511
v 2.050946122225033 -0.2619385016770653 0.1530752111026687
l 547 548
v 2.056490205790592 -0.25202003259595107 0.15179038048262072
v 2.055209860289454 -0.2612158519631307 0.1555048954662923
l 549 550
v 2.0606670247926986 -0.25116819086750425 0.15533893369631868
v 2.058618979862093 -0.2605128075407355 0.15825160449690498
l 551 552
v 2.06425394778483 -0.2506457779273395 0.15953711775440796
v 2.0613262733098177 -0.2600552835807371 0.1612370958504547
l 553 554
v 2.06730407271049 -0.2507580976297337 0.1641682950819836
v 2.0653746088852554 -0.2605310321909924 0.16329255573236717
l 555 556
v 2.0700176340674155 -0.25171867798101355 0.1689093980596715
v 2.0703289190903877 -0.26090525583789076 0.16497113842958033
l 557 558
v 2.0728706648359236 -0.2535108170714843 0.17331533689130652
v 2.073497615193 -0.2618117833377732 0.16777449829992924
l 559 560
v 2.0762207748411967 -0.25578712880473403 0.1771046440922035
v 2.0711829889339466 -0.2643787239070033 0.1762073109593165
l 561 562
v 2.080061478404272 -0.25835941383973654 0.18017082890534028
v 2.073354673034898 -0.26087183273990394 0.18714983406420216
l 563 564
v 2.083832783091768 -0.2616001359707144 0.18262839335832012
v 2.078618446830527 -0.2619331770718414 0.19115481001361367
l 565 566
v 2.087236523442764 -0.2655322029026014 0.1845563670311927
v 2.0824990340984852 -0.2665167009741044 0.19330776453445195
l 567 568
v 2.090353098838656 -0.2699636644035549 0.1857449746133733
v 2.0873692046643795 -0.2712857624288549 0.19519740458498475
l 569 570
v 2.093330740652794 -0.27463435377153955 0.18603165844813588
v 2.0923291164637994 -0.2766126185674966 0.19578272082005707
l 571 572
v 2.096226629600017 -0.27931954644275103 0.18537860557423672
v 2.100279018158246 -0.2799367063802963 0.19449985880965476
l 573 574
v 2.0990796789220627 -0.2838092308922516 0.18380727349592987
v 2.1069748798642527 -0.2826408360627725 0.18983227603575414
l 575 576
v 2.1015678199027974 -0.2881345324304135 0.18138557940271938
v 2.109961161290881 -0.2878793995876556 0.18681574768516052
l 577 578
v 2.103774640368124 -0.2920696939557063 0.17815941629140597
v 2.113036817095468 -0.28906734501574366 0.18043932486723863
l 579 580
v 2.1058227971225087 -0.2954014364157302 0.17422621630418306
v 2.1152533841528682 -0.29400777355134444 0.17724643683971464
l 581 582
v 2.1076591311522987 -0.2980709577774916 0.1697241294740296
v 2.113280219484071 -0.30406339938616156 0.1754244811766087
l 583 584
v 2.1100618554188943 -0.30014432159044147 0.16517521069234747
v 2.112876585961449 -0.30763635066962114 0.17117077507358266
l 585 586
v 2.113232460724151 -0.3022016638290306 0.1611158651627426
v 2.119008990382471 -0.30434659359345817 0.1689918401126911
l 587 588
v 2.1170318275519406 -0.3044063382917603 0.15772885248062082
v 2.1211853995962873 -0.3070412066235516 0.16643547686361476
l 589 590
v 2.121390644441279 -0.3065044617952787 0.15501448947217966
v 2.122508209745524 -0.31135771631925074 0.16368610802446232
l 591 592
v 2.1257750914953935 -0.3091968758454139 0.1529425721632164
v 2.128156449491828 -0.31011380186592097 0.16261151113115568
l 593 594
v 2.130024156579786 -0.3124926493695809 0.15158352690895754
v 2.131660288199565 -0.3127845866270058 0.1614444521170953
l 595 596
v 2.1338906619150135 -0.3163965706215684 0.15082641623800783
v 2.1378308189795265 -0.31416950143027095 0.1597435528369471
l 597 598
v 2.1371473745082374 -0.32087496741002 0.15050588065064743
v 2.1435054554545117 -0.3172080352812932 0.1572976709480533
l 599 600
v 2.139744861646978 -0.3257710753050105 0.15071770430800996
v 2.146391034740715 -0.32281715322339155 0.15758084699513297
l 601 602
v 2.141523930335736 -0.3309980247877243 0.15124457708484243
v 2.1469748546339056 -0.3294570015447852 0.15948549157659284
l 603 604
v 2.1424153816164972 -0.3364554716647807 0.15167545390576634
v 2.1462936519780356 -0.3366259378719687 0.16089119914286026
l 605 606
v 2.142634178958592 -0.34199424115527016 0.15148092506100783
v 2.1464992141304076 -0.34384507449684176 0.16051618482829488
l 607 608
v 2.1424927010948664 -0.3474377308183054 0.15042637040636336
v 2.1462863157357175 -0.3508837977541351 0.15901316903160803
l 609 610
v 2.1422433317761316 -0.3526169618306346 0.1484580040356431
v 2.1460369464169826 -0.3560630287664643 0.15704480266088777
l 611 612
