v 0.0 0.0 0.0
v -0.004727147286163384 -0.00606694998917234 0.00639110290668206
l 1 2
v -0.004472674816502579 -0.001526307339795038 -0.00475708549264283
v -0.0032767779891269312 -0.011272215606547765 -0.0028631206475853124
l 3 4
v -0.009781117808703667 -0.00292568295589888 -0.00860606731066568
v -0.008491157789411355 -0.012643702786405036 -0.006632214802873749
l 5 6
v -0.01575889585934425 -0.004271927413321406 -0.011327514644347544
v -0.014767604946097912 -0.01404079889180037 -0.009433710968599844
l 7 8
v -0.02220880871427425 -0.0052289519616683525 -0.012888030049441498
v -0.0221204051227526 -0.014753698157052922 -0.009843133545697363
l 9 10
v -0.02889048327987653 -0.005453258058137771 -0.013395690854355493
v -0.02994953262844431 -0.014445968634686661 -0.009151922368242717
l 11 12
v -0.0355351320757017 -0.004579385727970932 -0.013202119982133666
v -0.03800024662174238 -0.013241290691916636 -0.008855326604197303
l 13 14
v -0.041878742156453076 -0.0024860970467694525 -0.012628331003145235
v -0.04589019212535417 -0.01045241954014045 -0.008106608424457472
l 15 16
v -0.047685838707972064 0.0008028413741651303 -0.011985685022451308
v -0.05322083371140177 -0.006081740838433483 -0.00729885687646825
l 17 18
v -0.05276859885213326 0.005157467978182247 -0.011591658870555008
v -0.05912759140273094 0.0001460889357645708 -0.005722306790924739
l 19 20
v -0.057028691358018295 0.010330972083461036 -0.011789893095549288
v -0.06437174452798695 0.006985988660483721 -0.005883061792471459
l 21 22
v -0.06051875110604803 0.01593595967148812 -0.012954494448667546
v -0.0690902729185472 0.011415173114420623 -0.015422591432841528
l 23 24
v -0.06306449608999944 0.021825841450815172 -0.014901739529600633
v -0.07205816666039462 0.018834073890539024 -0.018089719538397248
l 25 26
v -0.0644315497017362 0.028075620898623744 -0.016910239444009392
v -0.07389995772502439 0.028608569552039595 -0.01373766710640162
l 27 28
v -0.06507759401144134 0.034069068669271826 -0.019845148424246516
v -0.0746131760937478 0.035433417821181944 -0.01715977587220129
l 29 30
v -0.06545120600363806 0.039407561442020005 -0.023884132101666823
v -0.07489068728994608 0.03685166855007473 -0.025973056363181427
l 31 32
v -0.06556724481220182 0.04390190540985753 -0.02885880534898469
v -0.07126630756209859 0.03756737602397303 -0.03409277336876708
l 33 34
v -0.06473889830055717 0.04768107635841946 -0.034334587407289875
v -0.07051410114672074 0.041206870572227494 -0.039307684181303294
l 35 36
v -0.06299527713260256 0.05057436924026685 -0.040126057140818364
v -0.06681164392619193 0.042283907400192285 -0.04421305933987036
l 37 38
v -0.06053104274924814 0.05238196376762946 -0.046093809183951534
v -0.062466871603426614 0.04284098565753414 -0.048379045134572855
l 39 40
v -0.05730741214129208 0.053124704347756055 -0.05192553468211649
v -0.06001286772709468 0.043556741543525734 -0.05299070971473536
l 41 42
v -0.053578105080624897 0.052688586381744965 -0.05748022190272984
v -0.057267009079028354 0.04339851421434879 -0.05718603418182032
l 43 44
v -0.04972025090743845 0.050991585932383066 -0.06269458963095524
v -0.046768612350590995 0.04409700726718817 -0.056080013691473495
l 45 46
v -0.045792650760614236 0.04819916277179782 -0.06735784203876265
v -0.03905042850250958 0.04996218270685633 -0.060186077978860476
l 47 48
v -0.04104556918424621 0.04531280186994045 -0.07111105631500671
v -0.03579093761864144 0.04787811675167021 -0.06299884288910834
l 49 50
v -0.03556195268958276 0.04253025794497945 -0.07378311162824076
v -0.03186501619824587 0.04584311805941452 -0.06510223503418605
l 51 52
v -0.029659379013582014 0.039689855531290175 -0.0752128732445798
v -0.029307404332579293 0.03962353526898077 -0.06521928953067915
l 53 54
v -0.02377916567601293 0.036476197494513744 -0.07544130149645056
v -0.026868361433596187 0.03323700256819198 -0.06649901511093254
l 55 56
v -0.018531127993943457 0.03231480386475198 -0.07513571403332037
v -0.022331926749669974 0.029736330781103302 -0.0662528425732931
l 57 58
v -0.014196407033659897 0.02721354725909439 -0.07476174158570104
v -0.018338625933202932 0.025091932147776223 -0.06591070933473195
l 59 60
v -0.010915576754255642 0.021367983040990746 -0.07462753353215995
v -0.009417303745469466 0.021673131192758294 -0.06474512175179906
l 61 62
v -0.008785085235778246 0.015011486093262083 -0.07475426217594666
v -0.004717935941758957 0.015943948157592175 -0.06566642353748352
l 63 64
v -0.007845242281854422 0.008377933518179401 -0.0744942383556004
v -0.007196372044383591 0.008372650715919095 -0.0645153135885263
l 65 66
v -0.008156908335795294 0.0016805411258450382 -0.07447751813466895
v -0.01618400679708491 0.002233189562559226 -0.06853948226426877
l 67 68
v -0.00921810915647783 -0.004889611331802555 -0.07530058136581069
v -0.018467531768811135 -0.003795784110877131 -0.07894087302297498
l 69 70
v -0.009390273338860456 -0.01141655519106328 -0.07682434102672439
v -0.018510243579371224 -0.011960122162783377 -0.08089013464660391
l 71 72
v -0.008264890146828383 -0.01781180969906948 -0.07849368598831355
v -0.01688449564631029 -0.020099127511371977 -0.08301812830298892
l 73 74
v -0.005879093171482788 -0.02390385465288942 -0.07995910102335792
v -0.013630322825181852 -0.027900040157780255 -0.08485286647197891
l 75 76
v -0.0023819631472964905 -0.02954810024648446 -0.08088918350625016
v -0.008985638595171406 -0.03509346944848371 -0.08595281372504104
l 77 78
v 0.0019787130664919465 -0.034639729215059555 -0.08100007785566363
v -0.003553666921440597 -0.041637757510053316 -0.085518968388924
l 79 80
v 0.006892595715916965 -0.03911006194101288 -0.08009320727728443
v 0.003938801185571907 -0.04627683478021084 -0.08641083855362829
l 81 82
v 0.011956257522877243 -0.04299992088741234 -0.07804802319937984
v 0.012044145036485312 -0.049399995874734356 -0.08573120717098998
l 83 84
v 0.016475200206651292 -0.04677996176306043 -0.07484756570847957
v 0.023300698175994783 -0.04756223938026487 -0.08211396916549384
l 85 86
v 0.020096923346118328 -0.05090966975702282 -0.07100100774778127
v 0.028673638098502055 -0.04587025004321667 -0.07202287515813607
l 87 88
v 0.023377823447639327 -0.055863767292305244 -0.06789535285925723
v 0.029959394227355555 -0.055026150940977826 -0.07537741974746229
l 89 90
v 0.026428692762443775 -0.061469991815712624 -0.06583928369616508
v 0.03255965646108589 -0.06119523581032021 -0.07373458567034147
l 91 92
v 0.028577072237092264 -0.06765349184115986 -0.06438618122571285
v 0.03789962885339834 -0.06460910688758935 -0.06634108746137769
l 93 94
v 0.030706753708733957 -0.07400543495580207 -0.06412206827722165
v 0.03988165550469397 -0.0700421697001647 -0.06378486574468738
l 95 96
v 0.03336964362359592 -0.08009466221565732 -0.0650073837800533
v 0.04174694074155454 -0.0754033394291415 -0.06221231964659237
l 97 98
v 0.036943183829542016 -0.08555110558019602 -0.06655964547124242
v 0.04429074040232153 -0.0795929650012532 -0.06331711971940028
l 99 100
v 0.041472804272707046 -0.09014837231938243 -0.0683762789845018
v 0.047431404669870364 -0.08305134587271601 -0.0646176493243407
l 101 102
v 0.04685571389629623 -0.09375253938904483 -0.07010449884033512
v 0.05114112166290336 -0.08576345532615086 -0.06588433105813536
l 103 104
v 0.0529133344000851 -0.0963178886445124 -0.07139937226326673
v 0.055376992594971725 -0.08773839912166316 -0.06689129641806536
l 105 106
v 0.059407161167078996 -0.09789096742434054 -0.0719544553422682
v 0.0602789851537832 -0.08793791813295057 -0.07237485127394289
l 107 108
v 0.06608270425178221 -0.09846491406753927 -0.07169903099810455
v 0.06561409784515047 -0.09003776835996558 -0.0770622038704802
l 109 110
v 0.07273082808523035 -0.09776638885242758 -0.07118231814665059
v 0.0709540234564683 -0.0895924598058826 -0.07666226789580505
l 111 112
v 0.07909450319874077 -0.09582591767922509 -0.07035124003508529
v 0.0764089215090947 -0.08800711135714993 -0.07597742157198181
l 113 114
v 0.08492616570208254 -0.09282342100723537 -0.06896228131227389
v 0.08174985782062087 -0.08529442526049492 -0.07472641969435051
l 115 116
v 0.09002550387945679 -0.08903314603381508 -0.06682147633972214
v 0.08672601294451152 -0.08159202587384544 -0.0726303566393244
l 117 118
v 0.09425724942969503 -0.08479930866947105 -0.06380163678733056
v 0.09110001627027423 -0.07717506556374244 -0.06944989278735424
l 119 120
v 0.09756319169531992 -0.08050552104778268 -0.059853648217431187
v 0.09468884369792846 -0.07244440883231298 -0.06502632580640742
l 121 122
v 0.09996734780341872 -0.07654071995058606 -0.05501083231968892
v 0.09740143381275641 -0.0678880883224784 -0.05931757718104238
l 123 124
v 0.10157382951793817 -0.07326462230976619 -0.04938598735288366
v 0.09421467302360467 -0.06656211602669761 -0.05034474968909394
l 125 126
v 0.10281503771338167 -0.0710158316588646 -0.043192285441179194
v 0.09337956984147103 -0.06901522631937185 -0.040552299775737995
l 127 128
v 0.10484218259602109 -0.06971085169178792 -0.0369360732435166
v 0.0961220684921536 -0.06745741569397955 -0.0325907727683696
l 129 130
v 0.1079528659755253 -0.06905665275135428 -0.03103284083993657
v 0.1002935007058783 -0.06669290334881597 -0.025053977032479077
l 131 132
v 0.11212264500184878 -0.068810578443508 -0.02578833223964665
v 0.10580732946325949 -0.06641543705790591 -0.01841404668842009
l 133 134
v 0.1172330103098157 -0.06869372365384256 -0.021449785071627616
v 0.11246331788988749 -0.07067996088360716 -0.012887957236032206
l 135 136
v 0.12303196866651858 -0.06824202345358112 -0.018114465555720684
v 0.12279943398974125 -0.07685528125500021 -0.013039259385485898
l 137 138
v 0.1288667496040151 -0.0666834335755146 -0.015202007454505662
v 0.13201231184361628 -0.07595256844351553 -0.01315540612654647
l 139 140
v 0.1340550325079566 -0.06416738187062004 -0.011780942637985632
v 0.1379172775648004 -0.07301929120658679 -0.009187342007836396
l 141 142
v 0.13831676860531314 -0.06108879575175748 -0.007620126240077739
v 0.1425264833530252 -0.0696554487302496 -0.004638388745094741
l 143 144
v 0.14151227810892597 -0.05781298089766457 -0.0027201021374951753
v 0.14580471923132762 -0.06629664055868681 0.00037868278028457044
l 145 146
v 0.14359658110158108 -0.05472276040381333 0.0028529310120613614
v 0.15296814655178478 -0.05813705432583049 0.002134350448293438
l 147 148
v 0.14493100768004488 -0.05234975602217599 0.008981028268589241
v 0.15327315224912258 -0.04819190729360688 0.005358747503802522
l 149 150
v 0.1469363320723193 -0.050937075288196666 0.015220858985640717
v 0.15485538710456864 -0.046933711173552384 0.010609824051725695
l 151 152
v 0.15001184416491103 -0.050210057539890836 0.021133992732972687
v 0.1579579230999149 -0.05092294610084358 0.015104762312898295
l 153 154
v 0.15406970016871205 -0.05011598036035471 0.0264708226973427
v 0.15973999922201884 -0.05519960457672089 0.01998973687220171
l 155 156
v 0.15868179389381706 -0.051058257810662824 0.031245043558316112
v 0.16301305202003338 -0.055727190232657105 0.023535226888450632
l 157 158
v 0.16373105462735332 -0.05295241623956219 0.03522871147154184
v 0.16519371074239 -0.058856237982535864 0.027291109445971583
l 159 160
v 0.1691340234609483 -0.05559605524386431 0.03819059577391002
v 0.16759495781492878 -0.06217140350553283 0.030815226483154795
l 161 162
v 0.17460471761140653 -0.05898555654269012 0.04007082624097144
v 0.17158127619751587 -0.06455282402874968 0.032333621658214504
l 163 164
v 0.18004136799520593 -0.06285355101238983 0.04072956104236887
v 0.17570810336331946 -0.06744982395397048 0.03297732957803968
l 165 166
v 0.18540788150694348 -0.0668200500659933 0.040081565565558745
v 0.18000765740829955 -0.07062833327129123 0.03257593043502709
l 167 168
v 0.19067439444189113 -0.07049631615890788 0.038157666069228074
v 0.18587281275540687 -0.07028475738405 0.029388398357908074
l 169 170
v 0.19593318331715054 -0.07342844929001745 0.03520749694437918
v 0.19341971520827375 -0.06774843211611593 0.027370413113652133
l 171 172
v 0.20160621196451145 -0.07520007693731456 0.032104065543922145
v 0.19979214089781705 -0.06805655707344768 0.02534542144029297
l 173 174
v 0.20779311185732544 -0.07596399565206748 0.029636034331515404
v 0.20623771722086126 -0.06882009767769297 0.02281361032999026
l 175 176
v 0.21433372478323104 -0.0759475939940028 0.028162062252080133
v 0.21346302469376857 -0.06875962037432624 0.021264604996174594
l 177 178
v 0.22101068730647783 -0.0754064236059255 0.027883160430480346
v 0.2212105180362466 -0.06809791350182354 0.021060716019737268
l 179 180
v 0.22759452572393787 -0.07464264491978066 0.028894196514521797
v 0.22660650604017274 -0.0647714084889731 0.030152174428314513
l 181 182
v 0.23395662804431458 -0.07427173468343813 0.030980512702063694
v 0.2321572371177188 -0.06918331077719267 0.0393989528452039
l 183 184
v 0.24036046102738332 -0.07503806261361999 0.032812491080825054
v 0.24034271577686048 -0.0703160608034091 0.04162738665652242
l 185 186
v 0.24677057900116123 -0.07676516047007606 0.033750574610336204
v 0.24859638397850564 -0.07266536853844237 0.04268691291537007
l 187 188
v 0.25302620398837994 -0.07917125195524807 0.03357633358149038
v 0.25662020367124183 -0.07583842517890585 0.042292722280859237
l 189 190
v 0.2589802797345461 -0.08191425407062874 0.0321701324736118
v 0.2641464291387814 -0.07934913619603677 0.040339041251567925
l 191 192
v 0.2645125329167468 -0.08462216016634906 0.029521755714792236
v 0.27096819052515675 -0.08269071625398322 0.036910531611810876
l 193 194
v 0.2695401555521591 -0.08692608074279398 0.025731315006221677
v 0.27625054896615875 -0.08875352491216909 0.032916791193445934
l 195 196
v 0.2741280260327034 -0.08840450232418545 0.02107078202508646
v 0.280743110127909 -0.09245801188304142 0.027380276669637785
l 197 198
v 0.2786832568836632 -0.08862087044933867 0.016155921618240185
v 0.28600720480897573 -0.09145516247877564 0.02234676772189841
l 199 200
v 0.2831956262424167 -0.08752403731443467 0.011319811611610504
v 0.2896687174369093 -0.08503160567753017 0.018523066079081423
l 201 202
v 0.287443436774343 -0.08518037050881504 0.0066916404990495695
v 0.2939165279688356 -0.08268793887191053 0.01389489496652049
l 203 204
