v 0.0 0.0 0.0
v 0.0020721360200123477 -0.001653470956727693 -0.004242318183225748
v 0.004139835643530024 -0.003309541728204666 -0.00848578673001505
v 0.0062030481677633935 -0.0049681656417985475 -0.012730441981174394
v 0.00826171028639826 -0.006629279044671932 -0.016976332926935813
v 0.010315764051016885 -0.008292815293235712 -0.021223507003433326
v 0.012365156946301442 -0.009958704836929464 -0.02547201004832651
v 0.014409841958896552 -0.011626875305653405 -0.02972188625869329
v 0.0164497776398123 -0.013297251600723847 -0.03397317815118477
v 0.018484928160253707 -0.014969755989220108 -0.038225926524436106
v 0.020515263360777868 -0.01664430820158198 -0.042480170423715935
v 0.02254075879368281 -0.018320825532314945 -0.046735947107799304
v 0.024561395758543613 -0.019999222943654648 -0.050993292018042244
v 0.026577174022111988 -0.02167871187200424 -0.055252509351948906
v 0.028588737452476188 -0.023356424198848785 -0.05951441869358085
v 0.03059644350862897 -0.025031608691470142 -0.06377914033141252
v 0.03260064448709878 -0.02670388326602043 -0.06804665173337761
v 0.0346026675534209 -0.028372077681715173 -0.07231678152325414
v 0.036602905442417545 -0.030035942814885506 -0.07658943627475438
v 0.03860130969800691 -0.031695539516368394 -0.08086460839679084
v 0.04059793959263809 -0.033350872228590955 -0.08514226197869476
v 0.042592891525993284 -0.035001930214570716 -0.08942234980989014
v 0.04458626394625113 -0.03664870786015718 -0.09370482191800335
v 0.04657815723755031 -0.03829120468403112 -0.097989625638561
v 0.04856867360487661 -0.03992942534131283 -0.10227670568724158
v 0.05055791695649555 -0.04156337962076408 -0.10656600423454357
v 0.052545992784059435 -0.04319308243558446 -0.11085746098273404
v 0.0545330080405204 -0.04481855380781063 -0.11515101324493862
v 0.056519071015984405 -0.04643981884633266 -0.11944659602624129
v 0.0585040919541491 -0.04805699166871899 -0.12374420255800572
v 0.06048740850216477 -0.04967047987769891 -0.1280439803767866
v 0.06246895437762403 -0.05128039768980203 -0.1323459123457382
v 0.06444966840737253 -0.052886553195728825 -0.13664963336967262
v 0.06643185918981234 -0.054488924692365395 -0.1409540849742198
v 0.06841262431115198 -0.05608803792930912 -0.14526040412915045
v 0.07039201256356474 -0.05768394107559846 -0.14956854685252757
v 0.07237371955689716 -0.05927729962723456 -0.1538765654690399
v 0.07435857915723611 -0.0608716749503581 -0.15818275614747493
v 0.07634620853406515 -0.0624679537783321 -0.16248696361084342
v 0.07833675059967356 -0.06406551931800179 -0.1667893472840973
v 0.08033046361876554 -0.06566173961041306 -0.17109076191381903
v 0.08232720404571729 -0.06725610430032332 -0.17539146041520987
v 0.08432694507808612 -0.06884877323242415 -0.17969139299916692
v 0.08632965643240807 -0.07043990832482692 -0.18399051094943808
v 0.08833530437644264 -0.0720296733750206 -0.1882887666723238
v 0.09034385176507623 -0.07361823386341787 -0.192586113744306
v 0.09235525807986013 -0.07520575675472659 -0.19688250695759396
v 0.094369479472157 -0.07679241029738734 -0.20117790236357863
v 0.09638645891878551 -0.07837827849520607 -0.20547229347086027
v 0.09840610598996309 -0.07996319626800472 -0.20976578161024445
v 0.10042837982795827 -0.08154725425044282 -0.2140583505265806
v 0.10245297144951104 -0.0831300822389298 -0.2183502805665989
v 0.10447811845524096 -0.08471039781169112 -0.22264287435209626
v 0.10650338242647266 -0.08628809073928485 -0.2269363775836833
v 0.10852904249040479 -0.08786318317227963 -0.23123064868269388
v 0.11055569991805626 -0.08943578235224464 -0.23552536294952284
v 0.11258360586072462 -0.09100597906518682 -0.2398203668978183
v 0.11461288968576364 -0.09257383536296492 -0.2441155750336364
v 0.11664360438340285 -0.09413936986723577 -0.24841095379112665
v 0.11867553831984061 -0.09570245696118006 -0.25270664725547787
v 0.12070875723751799 -0.0972630924596796 -0.25700262406908786
v 0.12274375284877788 -0.09882177934031126 -0.2612984670836017
v 0.12478116340732118 -0.10038070632563821 -0.26559307811832045
v 0.12682113280630541 -0.10193999484718756 -0.26988634298269154
v 0.12886372217795458 -0.10349964108463208 -0.274178231993243
v 0.130908943436616 -0.10505981282426205 -0.27846867638939127
v 0.13295680613387348 -0.1066206751583939 -0.2827576093660608
v 0.1350073160486104 -0.10818239434674436 -0.2870449653292427
v 0.13706047552174128 -0.10974513628664617 -0.2913306802812809
v 0.1391162836794733 -0.11130906563539568 -0.2956146920232032
v 0.14117473642877384 -0.11287434561113999 -0.2998969402200184
v 0.1432358264569535 -0.11444113779551734 -0.3041773664646097
v 0.14529948976266954 -0.11600967424629925 -0.3084559136241503
v 0.1473654789284056 -0.11758039475801774 -0.31273253663948025
v 0.1494336975016852 -0.11915352298320758 -0.3170071966299809
v 0.1515041041567079 -0.12072921088118975 -0.3212798541617409
v 0.15357665486664301 -0.12230760732133374 -0.32555047198854803
v 0.15565130295327298 -0.12388885790309197 -0.3298190150937632
v 0.15772799914028673 -0.12547310478006968 -0.33408545073050155
v 0.1598066916101716 -0.12706048648835283 -0.33834974846007754
v 0.16188732606465428 -0.1286511377793235 -0.3426118801886667
v 0.16396984578862595 -0.13024518945717456 -0.3468718202021356
v 0.16605419171748495 -0.13184276822133886 -0.3511295451989864
v 0.16813931874814456 -0.13344421797128145 -0.35538543312426696
v 0.17022152685442635 -0.13504899886824062 -0.35964149533711476
v 0.17229993252332343 -0.13665656973963164 -0.36389836315212004
v 0.17437442965984393 -0.13826689080123047 -0.36815609793451254
v 0.17644493924525648 -0.13987996085587445 -0.37241473301732725
v 0.17851131464422973 -0.14149481632393143 -0.37667469925394415
v 0.18057457074941372 -0.14310710354748632 -0.3809371494604266
v 0.18263550510454127 -0.14471562306095825 -0.3852021456061306
v 0.18469464568568825 -0.14631996518174065 -0.38946958089496897
v 0.18675217918930956 -0.14791996839267327 -0.39373941966046944
v 0.18880921553770014 -0.1495154019828941 -0.39801120742383933
v 0.19086944796221364 -0.1511068849629615 -0.40228292858695014
v 0.19293307685037098 -0.1526942724839261 -0.4065545341452847
v 0.194999997281933 -0.15427742131677544 -0.41082612132717294
v 0.19707076092541875 -0.15585719000586226 -0.4150970985307971
v 0.1991462373617146 -0.1574369449668259 -0.41936579261287554
v 0.201226605820004 -0.15901574803959917 -0.42363245702812974
v 0.2033118895520892 -0.1605931661612976 -0.4278972338235097
v 0.20540209958519526 -0.16216926056931402 -0.4321600879987512
l 1 2 3 4 5 6 7 8 9 10 11 12 13 14 15 16 17 18 19 20 21 22 23 24 25 26 27 28 29 30 31 32 33 34 35 36 37 38 39 40 41 42 43 44 45 46 47 48 49 50 51 52 53 54 55 56 57 58 59 60 61 62 63 64 65 66 67 68 69 70 71 72 73 74 75 76 77 78 79 80 81 82 83 84 85 86 87 88 89 90 91 92 93 94 95 96 97 98 99 100 101 102
