v 0.0 0.0 0.0
v -0.015197852261093237 0.021091217424482757 -0.05231248782259042
v -0.029520280399008555 0.04257810663365294 -0.1047108865799245
v -0.04217566936680059 0.06471746196180822 -0.1572665772681179
v -0.05252918004261771 0.08752753608029872 -0.21003887950499409
v -0.060150940786509545 0.11074976965947184 -0.2630958976905526
v -0.06482964916549208 0.1338681816517514 -0.3165380090152855
v -0.06655587406129632 0.15616325753708774 -0.3705042974448385
v -0.06549212569818985 0.17677666101593817 -0.42515195598958855
v -0.06194741852122209 0.19477864045103502 -0.4806116200296221
v -0.05636354790162162 0.20924684726040096 -0.5369312607299185
v -0.04930643601974301 0.2193697615294223 -0.5940288467259497
v -0.041446508094227674 0.22457383740863113 -0.6516790824170084
v -0.033513957899886815 0.22464582692051638 -0.7095537747523457
v -0.026230257766715306 0.2198023896899887 -0.767311019978806
v -0.020236281862804552 0.2106740718696116 -0.8246970515075587
v -0.01604199303574859 0.19821554541138708 -0.881614567332746
v -0.014007959915808863 0.18358870215577863 -0.9381329600348421
v -0.014349725646968759 0.16806109007055614 -0.9944462533775454
v -0.017148121527446932 0.15293196684325683 -1.0507995066896196
v -0.02235305411884413 0.13947079293646134 -1.1074044183294722
v -0.029779303602965213 0.12884142226395745 -1.1643629808612952
v -0.03910536265138553 0.12199437791492188 -1.2216216322101805
v -0.04989348062105741 0.11953996986418014 -1.2789801794353188
v -0.06164313841506343 0.12164988198883851 -1.3361632570067075
v -0.0738695336069637 0.1280407974563289 -1.392926643164374
v -0.08617940317690623 0.1380535442947126 -1.4491460576037556
v -0.09831828985177717 0.15078827649080534 -1.5048495994496198
v -0.11018248089255384 0.16524036029016234 -1.5601920677067351
v -0.12180533062221977 0.18040583688419592 -1.6153946784404938
v -0.1333310144168087 0.19535582334297566 -1.6706763848715995
v -0.14498363240567666 0.20929487185528292 -1.7261951201648547
v -0.1570340260164831 0.2216165228164064 -1.7820106688892237
v -0.1697646570428021 0.2319570437557996 -1.8380768370154579
v -0.18343409051738413 0.24023511042993642 -1.894264297792824
v -0.19824448209628545 0.24665995916656458 -1.9504050509760202
v -0.21431551450325956 0.2516973377471689 -2.0063403464735425
v -0.23166634403410347 0.2559962434869964 -2.0619540019190996
v -0.25020565578654413 0.26028956654064594 -2.117183268118175
v -0.2697309126683401 0.2652838404470785 -2.1720123855634967
v -0.289940310976228 0.2715518099094422 -2.2264614748748666
v -0.3104612477735298 0.2794416346101845 -2.280582195187314
v -0.33089457495402375 0.2890172693928289 -2.334463517617538
v -0.35086636099853835 0.30004028510601133 -2.388241128523607
v -0.37007427479059074 0.31199201371851176 -2.4420985586416113
v -0.38831845041850077 0.3241236085169785 -2.4962500591867425
v -0.40551446865369356 0.3355197927536746 -2.5509019986736785
v -0.4216928518546758 0.3451707358707694 -2.606196932998065
v -0.43699117727592407 0.3520579733172873 -2.662151716061235
v -0.45164229194904676 0.3552641549305798 -2.718609450573727
v -0.46595836694633075 0.35410427258818644 -2.7752320186681665
v -0.48030890816847915 0.3482502952465667 -2.831554336304258
v -0.4950928462956922 0.3378027038507112 -2.887094353908338
v -0.5107086462942557 0.3232767845272528 -2.9414777613613357
v -0.5275276501835102 0.30551539067466077 -2.994525518567195
v -0.545872584888061 0.2855750046126455 -3.0462773776871246
v -0.5659978907343168 0.2646294004907462 -3.096959369366111
v -0.5880653485308831 0.243906072073918 -3.1469191683419933
v -0.6121098618348095 0.22464136066567578 -3.196549228006675
v -0.637997387908185 0.20802459111592464 -3.2462093680741
v -0.6653896648857098 0.19510310708553896 -3.296160433732648
v -0.6937436942376389 0.1866433206442476 -3.3465279985026783
v -0.7223721439457708 0.18298487576145353 -3.397316168348953
v -0.7505607617341179 0.1839561499652394 -3.448471510216534
v -0.7776985475550405 0.18889855553695578 -3.499964458820084
v -0.8033669540835906 0.19678157435136512 -3.5518431776616506
v -0.8273666695183473 0.20634362912992535 -3.60423584237197
v -0.8496986800492707 0.21620450052676424 -3.657306126608322
v -0.8705284741218867 0.22493788155907943 -3.71117873822705
v -0.890153403896147 0.23112788631501324 -3.7658500883152124
v -0.9089780573745971 0.2334465881857146 -3.821101030307513
v -0.9274927986429793 0.23077981856376237 -3.8764409186660345
v -0.9462478669341694 0.22239253987473143 -3.9311246595546283
v -0.9658202126172473 0.20807362316352487 -3.984268826277469
v -0.9867787926497219 0.1881780186688936 -4.035036073522136
v -1.0096585224704757 0.16353435855779852 -4.082802364226392
v -1.0349481906728377 0.13527164081587037 -4.127232781915629
v -1.0630880497410211 0.10465427118210531 -4.168258817019178
v -1.0944673213413443 0.07298012667442398 -4.206001371669403
v -1.129411091233856 0.04154392527773043 -4.24068722952864
v -1.1681486051276355 0.011638038745791703 -4.272584776707908
v -1.2107593331014277 -0.015445887162711565 -4.301964997382906
v -1.2571024563678004 -0.038449881173034245 -4.329085870036203
v -1.3067536816560132 -0.05624258862755585 -4.354197340260035
v -1.3589930946986029 -0.06796979864427624 -4.37756241715216
v -1.4128845664617455 -0.07321468556892943 -4.399485258672719
v -1.4674422719117628 -0.07208858208663926 -4.420332301987343
v -1.5218189681042473 -0.06520029094839817 -4.440534700467983
v -1.575434502888294 -0.05352639153125582 -4.460572291396151
v -1.6280083366684117 -0.038256456670719766 -4.480949524746168
v -1.6795151531901706 -0.02067763531938087 -4.502173177581555
v -1.7301023184523132 -0.0021199365230706486 -4.524733343230586
v -1.7799959350091326 0.016052413706936833 -4.549080894688267
v -1.8294049056145558 0.032436372562719695 -4.57558995095042
v -1.878426693656672 0.04561492349708451 -4.604496708644938
v -1.9269708899182882 0.054256827962239955 -4.6358206458897095
v -1.9747403385376512 0.05731159993184496 -4.669304353790733
v -2.021313066071472 0.05424629633862378 -4.704432626050089
v -2.066313937289089 0.0451917032119351 -4.740562205081002
v -2.109584989967551 0.03089288189636315 -4.777107659751436
v -2.151259639410879 0.012503250845598361 -4.813678899976207
v -2.191729169110525 -0.008639655628377488 -4.850115217294341
l 1 2 3 4 5 6 7 8 9 10 11 12 13 14 15 16 17 18 19 20 21 22 23 24 25 26 27 28 29 30 31 32 33 34 35 36 37 38 39 40 41 42 43 44 45 46 47 48 49 50 51 52 53 54 55 56 57 58 59 60 61 62 63 64 65 66 67 68 69 70 71 72 73 74 75 76 77 78 79 80 81 82 83 84 85 86 87 88 89 90 91 92 93 94 95 96 97 98 99 100 101 102
