v 0.0 0.0 0.0
v -0.0015197852261093236 0.002109121742448276 -0.005231248782259041
v -0.0029520280399008554 0.004257810663365294 -0.01047108865799245
v -0.004217566936680059 0.006471746196180822 -0.015726657726811793
v -0.005252918004261771 0.00875275360802987 -0.02100388795049941
v -0.006015094078650955 0.011074976965947184 -0.026309589769055258
v -0.006482964916549209 0.013386818165175141 -0.03165380090152855
v -0.006655587406129632 0.015616325753708775 -0.03705042974448385
v -0.006549212569818986 0.01767766610159382 -0.04251519559895885
v -0.00619474185212221 0.019477864045103502 -0.04806116200296221
v -0.005636354790162161 0.020924684726040095 -0.05369312607299185
v -0.004930643601974301 0.021936976152942232 -0.05940288467259497
v -0.004144650809422767 0.02245738374086311 -0.06516790824170085
v -0.0033513957899886817 0.022464582692051635 -0.07095537747523457
v -0.0026230257766715302 0.021980238968998866 -0.07673110199788061
v -0.0020236281862804554 0.021067407186961158 -0.08246970515075587
v -0.001604199303574859 0.01982155454113871 -0.0881614567332746
v -0.0014007959915808864 0.018358870215577864 -0.09381329600348422
v -0.001434972564696876 0.016806109007055616 -0.09944462533775454
v -0.0017148121527446932 0.015293196684325681 -0.10507995066896197
v -0.0022353054118844132 0.013947079293646135 -0.11074044183294723
v -0.0029779303602965215 0.012884142226395745 -0.11643629808612953
v -0.0039105362651385535 0.012199437791492188 -0.12216216322101806
v -0.004989348062105741 0.011953996986418015 -0.12789801794353187
v -0.006164313841506343 0.012164988198883852 -0.13361632570067072
v -0.00738695336069637 0.012804079745632892 -0.1392926643164374
v -0.008617940317690623 0.01380535442947126 -0.14491460576037557
v -0.009831828985177718 0.015078827649080535 -0.150484959944962
v -0.011018248089255384 0.016524036029016236 -0.15601920677067352
v -0.012180533062221978 0.018040583688419595 -0.16153946784404938
v -0.01333310144168087 0.019535582334297568 -0.16706763848715994
v -0.014498363240567667 0.02092948718552829 -0.17261951201648548
v -0.015703402601648313 0.02216165228164064 -0.17820106688892234
v -0.01697646570428021 0.02319570437557996 -0.1838076837015458
v -0.01834340905173841 0.02402351104299364 -0.18942642977928237
v -0.019824448209628545 0.02466599591665646 -0.195040505097602
v -0.021431551450325954 0.025169733774716888 -0.20063403464735421
v -0.023166634403410345 0.025599624348699637 -0.20619540019190996
v -0.025020565578654414 0.026028956654064597 -0.21171832681181751
v -0.02697309126683401 0.02652838404470785 -0.21720123855634968
v -0.028994031097622802 0.027155180990944223 -0.22264614748748668
v -0.031046124777352975 0.027944163461018454 -0.22805821951873143
v -0.033089457495402375 0.02890172693928289 -0.23344635176175382
v -0.03508663609985384 0.030004028510601133 -0.23882411285236071
v -0.03700742747905907 0.031199201371851178 -0.24420985586416113
v -0.03883184504185008 0.03241236085169785 -0.2496250059186742
v -0.04055144686536935 0.033551979275367454 -0.2550901998673678
v -0.04216928518546758 0.034517073587076945 -0.26061969329980655
v -0.04369911772759241 0.035205797331728725 -0.26621517160612346
v -0.045164229194904676 0.03552641549305798 -0.27186094505737274
v -0.046595836694633075 0.03541042725881864 -0.27752320186681667
v -0.048030890816847915 0.034825029524656666 -0.2831554336304258
v -0.04950928462956922 0.033780270385071115 -0.28870943539083377
v -0.051070864629425575 0.03232767845272527 -0.2941477761361335
v -0.05275276501835102 0.030551539067466073 -0.2994525518567195
v -0.054587258488806106 0.028557500461264554 -0.3046277377687125
v -0.05659978907343169 0.02646294004907462 -0.3096959369366111
v -0.058806534853088316 0.024390607207391803 -0.31469191683419934
v -0.06121098618348095 0.02246413606656758 -0.31965492280066754
v -0.0637997387908185 0.020802459111592467 -0.32462093680741
v -0.06653896648857098 0.0195103107085539 -0.32961604337326483
v -0.06937436942376389 0.01866433206442476 -0.33465279985026786
v -0.07223721439457707 0.018298487576145352 -0.33973161683489533
v -0.0750560761734118 0.01839561499652394 -0.34484715102165336
v -0.07776985475550406 0.01888985555369558 -0.3499964458820084
v -0.08033669540835905 0.019678157435136512 -0.35518431776616505
v -0.08273666695183474 0.020634362912992532 -0.360423584237197
v -0.08496986800492706 0.021620450052676425 -0.36573061266083223
v -0.08705284741218867 0.022493788155907943 -0.371117873822705
v -0.08901534038961471 0.023112788631501326 -0.37658500883152124
v -0.09089780573745972 0.023344658818571458 -0.3821101030307513
v -0.09274927986429793 0.023077981856376238 -0.3876440918666035
v -0.09462478669341695 0.022239253987473145 -0.39311246595546284
v -0.09658202126172473 0.02080736231635249 -0.3984268826277469
v -0.0986778792649722 0.01881780186688936 -0.4035036073522136
v -0.10096585224704757 0.01635343585577985 -0.4082802364226392
v -0.10349481906728378 0.013527164081587037 -0.41272327819156296
v -0.10630880497410211 0.010465427118210531 -0.41682588170191787
v -0.10944673213413443 0.007298012667442397 -0.42060013716694034
v -0.1129411091233856 0.004154392527773043 -0.424068722952864
v -0.11681486051276356 0.0011638038745791703 -0.4272584776707907
v -0.12107593331014277 -0.0015445887162711565 -0.4301964997382906
v -0.12571024563678004 -0.0038449881173034245 -0.43290858700362034
v -0.13067536816560132 -0.005624258862755586 -0.43541973402600354
v -0.13589930946986029 -0.006796979864427625 -0.43775624171521604
v -0.14128845664617457 -0.0073214685568929435 -0.43994852586727196
v -0.14674422719117627 -0.007208858208663927 -0.4420332301987342
v -0.15218189681042474 -0.006520029094839817 -0.4440534700467983
v -0.15754345028882938 -0.005352639153125581 -0.4460572291396151
v -0.16280083366684117 -0.0038256456670719766 -0.44809495247461684
v -0.1679515153190171 -0.002067763531938087 -0.4502173177581555
v -0.17301023184523134 -0.00021199365230706486 -0.4524733343230585
v -0.17799959350091327 0.0016052413706936835 -0.45490808946882666
v -0.18294049056145556 0.0032436372562719695 -0.457558995095042
v -0.1878426693656672 0.00456149234970845 -0.46044967086449384
v -0.19269708899182883 0.005425682796223996 -0.463582064588971
v -0.19747403385376514 0.005731159993184496 -0.4669304353790733
v -0.2021313066071472 0.005424629633862378 -0.4704432626050089
v -0.20663139372890893 0.00451917032119351 -0.4740562205081002
v -0.21095849899675506 0.0030892881896363153 -0.4777107659751436
v -0.2151259639410879 0.001250325084559836 -0.4813678899976207
v -0.21917291691105253 -0.0008639655628377489 -0.48501152172943407
l 1 2 3 4 5 6 7 8 9 10 11 12 13 14 15 16 17 18 19 20 21 22 23 24 25 26 27 28 29 30 31 32 33 34 35 36 37 38 39 40 41 42 43 44 45 46 47 48 49 50 51 52 53 54 55 56 57 58 59 60 61 62 63 64 65 66 67 68 69 70 71 72 73 74 75 76 77 78 79 80 81 82 83 84 85 86 87 88 89 90 91 92 93 94 95 96 97 98 99 100 101 102
