v -0.6117806616055615 -0.29644352746061353 -0.7333796132373532
v -0.7318815557731743 -0.19878389515556447 -0.6517931814201646
v -0.8439361907796572 -0.21658497803693966 -0.49077760052905883
v -0.9305693012203777 -0.18301225732144283 -0.3170919256246173
v -0.98408632728995 -0.10104758724541496 -0.14616253128916964
v -0.9991277202538787 0.04037078318768124 -0.010677007310116116
v -0.973333290209464 0.21905247501806294 0.06810520801289842
v -0.909766341619699 0.402346571686482 0.10218825719251516
v -0.8140727491978601 0.5739733000021321 0.08854495975548547
v -0.6947518045673954 0.7186891564302856 0.028387082975751522
v -0.5739876585301884 0.8134379095435769 -0.0941112914182319
v -0.45774948024327144 0.8539639820974843 -0.24740842875137126
v -0.29356897108004554 0.9118479663702864 -0.2869678474069448
v -0.12623669718134217 0.9281238296305485 -0.350214867126839
v -0.06557571527297429 0.8510213718312748 -0.5210205852486557
v -0.04536694104022419 0.7337047113409774 -0.6779522381530315
v 0.04549157529600489 0.6158323663444807 -0.7865627839782686
v 0.20038085936636507 0.5059912482491737 -0.8389400263992888
v 0.31718488589468835 0.3528652415878615 -0.8802726108650167
v 0.4274682024356742 0.19261623653530607 -0.883272280403607
v 0.5294398635563906 0.02784659610282536 -0.8478903218948051
v 0.5775749584588131 -0.1573202321734187 -0.8010352750723287
v 0.5675982352839152 -0.3464381432546417 -0.7468687007773596
v 0.6391114062422024 -0.4420885213986502 -0.6293602701622252
v 0.770049648154951 -0.4147591990921858 -0.4847662799172855
v 0.8577469916849354 -0.4112711290947565 -0.3084252853262302
v 0.8944143542154526 -0.4319341140102859 -0.11599950054850855
v 0.8398422869651329 -0.5420720165076067 0.02868557031944377
v 0.7180335455069912 -0.693242230576548 0.061992235577622706
v 0.568730176456615 -0.8210642093645144 0.04898520683075559
v 0.40519297232692697 -0.9141850895698981 -0.009180260614329534
v 0.23194966339994433 -0.9726609656971484 0.011401730471431226
v 0.043440047630559364 -0.9981326019301653 0.04294497905428443
v -0.13594312017881172 -0.9899870465403902 -0.038014678195197577
v -0.12106364028927703 -0.971806749088179 -0.20232458433560066
v 0.06996555787487373 -0.9657227549534191 -0.24996876060107218
v 0.26410483278376506 -0.9327156242916157 -0.24554063106248028
v 0.4441111666840093 -0.8757169768909705 -0.1894334923172442
v 0.5939967981470078 -0.7997893055907589 -0.08663065539261741
v 0.7004492194099323 -0.7116763369492347 0.05373716083433877
v 0.7602973469734449 -0.6134705889432932 0.21354573441469185
v 0.7297496965019838 -0.5571573337163358 0.39628409751258764
v 0.6116813763603939 -0.5649765837465808 0.5537574862987378
v 0.48748416919475557 -0.6827548898169933 0.5442471361573558
v 0.4864816731213756 -0.7878525028649761 0.3776559485118948
v 0.3853969913334235 -0.8824710095357222 0.2696554772300161
v 0.28845422240457713 -0.9481302819723155 0.1335781792961245
v 0.3437739428895588 -0.9374306285980224 -0.05516604713483059
v 0.45716843115919736 -0.8671019091076808 -0.19781634101674386
v 0.6036505306289099 -0.7526414792644707 -0.2629388532758594
v 0.7409746122406605 -0.612060933022878 -0.2762933916726309
v 0.8569438570956944 -0.4578463212129711 -0.2366938358675654
v 0.9412581353062267 -0.3036946419847498 -0.14765733015871169
v 0.9864288405779834 -0.16329730395656222 -0.01709189856314286
v 0.9979809002376279 0.006775306467390205 0.06315233949083918
v 0.975510383892861 0.20057641457576847 0.09026955651343288
v 0.9135441534287628 0.37543886184073294 0.15646961607884025
v 0.8175859113419262 0.5158317553813603 0.25587277642487954
v 0.6961584548492663 0.6092857112622928 0.37965027037193577
v 0.5600467000324667 0.6475003573865658 0.5168084567487395
v 0.4213397896260546 0.6270815540476709 0.6551652511016057
v 0.29235736230065734 0.5498428538543804 0.7824321112875369
v 0.18455534981089028 0.42264442602956875 0.8873054784020643
v 0.22137598538659295 0.25011255007263394 0.9425690348140443
v 0.38039974485691636 0.1372992573453254 0.9145736427676096
v 0.5430173193236443 0.05693244792024228 0.8377892857326192
v 0.6947853782197956 0.01615012271115933 0.7190357791851462
v 0.8222242207729674 0.018574476958759946 0.568860544931704
v 0.8891646139336006 0.1378978963526834 0.43631463361869455
v 0.8319664874679468 0.31877030766092196 0.45411150027719854
v 0.7081708411546136 0.4280919188732559 0.5614546898314956
v 0.5569271125981089 0.48575497854960514 0.6737019311738732
v 0.39166843271855123 0.48663798223302474 0.7808836744739669
v 0.22707270917992178 0.4306625035041477 0.8734802761489414
v 0.2194311116016018 0.26835165341600803 0.937996469806886
v 0.37586801853968643 0.15103032547909595 0.9142828191674218
v 0.5371093486823263 0.06481706929056612 0.8410186056720917
v 0.651902438682278 -0.05989062597034545 0.7559340734223978
v 0.7172196017980426 -0.2198035742079898 0.6612733410338347
v 0.7816726131171994 -0.3424502845235825 0.5212635883430251
v 0.8130968119613414 -0.4539505827864442 0.36442069475559546
v 0.810898046062724 -0.5521962798460536 0.19371016342937514
v 0.8029911419255495 -0.5959881589362275 0.00182767527424621
v 0.7900783731545573 -0.5814367229474259 -0.19418419472656984
v 0.7733066230955731 -0.5098343979959505 -0.3769161090967432
v 0.8040029206905043 -0.3513233560132373 -0.4797407664986736
v 0.8843910267787755 -0.17968870009606977 -0.4307719614958338
v 0.952194590846021 -0.04710686071966472 -0.30183837535462077
v 0.9893884330764721 0.051944311871234945 -0.1356919929793478
v 0.9926690792905868 0.10866731326501192 0.052910434208601254
v 0.961745149802626 0.11802413288643797 0.24721765893141417
v 0.9439361304650846 -0.033358509592195815 0.3284384134664975
v 0.9570501977755296 -0.19410513611496433 0.215355787179288
v 0.9458017889546606 -0.31855679427482975 0.06309155911456954
v 0.9111899626065985 -0.39565996513753254 -0.11483050131542501
v 0.8562888640142954 -0.4185665168933073 -0.3026077532068734
v 0.7859746864063076 -0.3852419406630054 -0.48356223951287547
v 0.706492578340949 -0.2986460510427869 -0.6416219860211361
v 0.6716608812428908 -0.13032367827283564 -0.729306108221686
v 0.6744348580690374 0.06600480176753176 -0.7353781261126999
v 0.6650873914256669 0.25958665598584196 -0.7001953511704356
v 0.5745056645251135 0.42444402729011543 -0.6998503476646314
l 1 2 3 4 5 6 7 8 9 10 11 12 13 14 15 16 17 18 19 20 21 22 23 24 25 26 27 28 29 30 31 32 33 34 35 36 37 38 39 40 41 42 43 44 45 46 47 48 49 50 51 52 53 54 55 56 57 58 59 60 61 62 63 64 65 66 67 68 69 70 71 72 73 74 75 76 77 78 79 80 81 82 83 84 85 86 87 88 89 90 91 92 93 94 95 96 97 98 99 100 101 102
v -0.6117806616055615 -0.29644352746061353 -0.7333796132373532
v -0.6552449639996589 -0.1036406831706837 -0.7482731091954324
v -0.6564627892543368 0.09333030486587503 -0.7485626630537077
v -0.5995802190305387 0.28191265404668797 -0.7490185688189868
v -0.5556724078139187 0.45850248842813235 -0.6935442619613343
v -0.42596272713019645 0.5684385393954727 -0.7038702877844375
v -0.27785952418901855 0.5049887994861395 -0.8171783142074924
v -0.2316990866114913 0.3464212195960718 -0.9090147808902617
v -0.2700027009280383 0.15911009611475904 -0.9496223032374062
v -0.299730076288533 -0.03557283913539147 -0.9533606109358188
v -0.41542185455290453 -0.176760627835891 -0.8922893943149202
v -0.524956097987573 -0.06015407767544823 -0.8490009317572491
v -0.4479697743142808 0.11726971939609249 -0.886324373022413
v -0.3216259286569171 0.26674842664030934 -0.9085163944038074
v -0.13698775683151573 0.3036692800987307 -0.9428782120733236
v 0.035125778147115094 0.213871088021589 -0.9762301662098034
v 0.11139886798700124 0.03940957627339671 -0.9929940470663281
v 0.061843031284394466 -0.15112178644394805 -0.9865787576993263
v 0.08423507960708417 -0.32876998735064633 -0.9406459199832011
v 0.24653334530153267 -0.32694666866335786 -0.9123196728693113
v 0.41575383222502843 -0.30616130455755985 -0.8563959403113818
v 0.5595153362218508 -0.36202333451541935 -0.7455747405853326
v 0.622737934416615 -0.4747887847917209 -0.6219108255003515
v 0.4828580386419398 -0.6025018932437889 -0.6354837394902477
v 0.3066061252903734 -0.6208334250363664 -0.7214974305512378
v 0.1398966858341932 -0.5675870797400152 -0.8113407571451163
v 0.1849055664047335 -0.42882618968414843 -0.8842612908826889
v 0.373868761556601 -0.39939934950625977 -0.8370796310663102
v 0.5450298349521617 -0.39467802655116496 -0.7397105747315618
v 0.6831866414889683 -0.415081558202157 -0.6008022244728237
v 0.7760684014961743 -0.4587977482477478 -0.4326921103994953
v 0.7343560023078946 -0.5966647635611972 -0.3235929878702995
v 0.589110922515502 -0.7260188056569302 -0.3547464091508446
v 0.45843492026003274 -0.8382613571668287 -0.2952208003630564
v 0.34964515390529016 -0.9239385386021808 -0.15519614439866777
v 0.1708788148306339 -0.9724539226117346 -0.1585364281139459
v 0.033642876832221336 -0.9537861503917793 -0.29859694599791536
v -0.07033878382217881 -0.8888475762081873 -0.45277195337084114
v 0.031918146813012305 -0.8231375345560504 -0.5669442927739989
v 0.21853597379283124 -0.8349743199661444 -0.5050345662976877
v 0.23307720611560798 -0.9065936510902971 -0.35179961312103064
v 0.059625549812725 -0.9596036624590141 -0.2749647337473963
v -0.13145041192581922 -0.9648856623700988 -0.2274125057184588
v -0.32317973799575794 -0.9219705153625118 -0.2133664119564682
v -0.49853345692894924 -0.8346698491560356 -0.2340739952073109
v -0.6419370421897082 -0.7107375143715058 -0.2876960540739865
v -0.7271771135044994 -0.5655801235203631 -0.3890148705049138
v -0.8123079884151508 -0.407260606446785 -0.41748596430721807
v -0.8991384675853329 -0.23805133803437561 -0.36726227218207746
v -0.9322150522646214 -0.04404020129747391 -0.35921519594937357
v -0.9014543159173538 0.14316720550488296 -0.4085134851897767
v -0.8124875289819395 0.2892994161803387 -0.5061322584528046
v -0.6844314294869838 0.3928903425806519 -0.6141586090231591
v -0.5477056722017709 0.5148283851236002 -0.6595227293346546
v -0.40493698785290383 0.6495676299168027 -0.6434966433734404
v -0.25762283101407857 0.6257842931203708 -0.7362231288299286
v -0.3838314037150549 0.5229728603457073 -0.7610340602522071
v -0.5258548602615521 0.5687515843715665 -0.6324541890241036
v -0.6213496040806439 0.626744387640735 -0.47022988215304584
v -0.6618340048386427 0.6918004786051951 -0.288769541054569
v -0.6437123282806755 0.7581417202445417 -0.10419006883632803
v -0.5685941013340345 0.8198758313194094 0.0671145971190233
v -0.4431511575133521 0.871519725660074 0.20992955813787978
v -0.3003910238752324 0.9418408316812363 0.15066877763221884
v -0.244961357329098 0.9689481370410596 -0.0336666175928968
v -0.1691308739500561 0.9617860912326615 -0.215318977770863
v -0.1280965352710755 0.9074523808797406 -0.40015178880924285
v -0.1255029198076179 0.810772805051869 -0.5717486123359524
v -0.08330481354235147 0.6926504752041375 -0.7164465278303448
v -0.10006348182187187 0.545133089816349 -0.8323564224495207
v -0.24103133032915963 0.4150943312920896 -0.8772688264887389
v -0.3988445459857881 0.29763714792668905 -0.8673725591183166
v -0.5594865106676657 0.20319382499051727 -0.8035465847520252
v -0.693944210001223 0.09488935832184892 -0.7137488655563993
v -0.8056744835171228 0.12068860791889445 -0.5799335190588804
v -0.8167592097956042 0.29770192704677406 -0.4942448339099736
v -0.7710402342182097 0.47569297485042467 -0.4233357425196716
v -0.6725782143098912 0.6388529831212358 -0.37350423236265506
v -0.5301183272539381 0.7726904435305766 -0.3491762271203574
v -0.3567165084250561 0.8661144809569734 -0.3501414549773696
v -0.1668020545681675 0.9113509949426651 -0.3763195963657121
v 0.02318012992572463 0.9035966354101302 -0.42775670895044837
v 0.1963562508097185 0.8435401272922731 -0.49988426302063826
v 0.3324636815579971 0.7345994260588523 -0.5914656234126437
v 0.41703013817045004 0.5883581811752457 -0.692762956935265
v 0.5107729613642834 0.42949218134556766 -0.7447465663581042
v 0.6121487227765283 0.2606170752317042 -0.7465605677376331
v 0.6635838498157689 0.07051479786577025 -0.7447711981176719
v 0.6611715330163423 -0.12637523124636857 -0.7395143709599201
v 0.6008270950991522 -0.313829400173512 -0.7351992310805606
v 0.5887350630766419 -0.4758641512799778 -0.65340977573857
v 0.5201005528815139 -0.6256835245851011 -0.5813910404840343
v 0.34318575421047337 -0.6991967849997367 -0.6271741336766208
v 0.15444414515097954 -0.715780529953132 -0.6810324801128035
v -0.02936066519549646 -0.6739618281757996 -0.7381825014867336
v -0.19190354318739825 -0.5774549235656234 -0.7935482602601696
v -0.36519562346454326 -0.523088097437051 -0.7700720738489543
v -0.5345348393010132 -0.5154738208513125 -0.669745657388227
v -0.6027525206924594 -0.3720745042076363 -0.7058682328292778
v -0.4518392036932967 -0.34485513617076796 -0.8227492139543181
v -0.2694905124346484 -0.3733051980689583 -0.8877038316929843
v -0.07819050719677764 -0.3513251344524057 -0.9329827943141875
l 103 104 105 106 107 108 109 110 111 112 113 114 115 116 117 118 119 120 121 122 123 124 125 126 127 128 129 130 131 132 133 134 135 136 137 138 139 140 141 142 143 144 145 146 147 148 149 150 151 152 153 154 155 156 157 158 159 160 161 162 163 164 165 166 167 168 169 170 171 172 173 174 175 176 177 178 179 180 181 182 183 184 185 186 187 188 189 190 191 192 193 194 195 196 197 198 199 200 201 202 203 204
v -0.6117806616055615 -0.29644352746061353 -0.7333796132373532
v -0.7053756954221956 -0.13172615845395583 -0.6964864302243206
v -0.692729941421447 0.035437456695470396 -0.7203259088226629
v -0.5413050417715684 0.0838237491000054 -0.8366375743650891
v -0.3661042744281584 0.08542514383423037 -0.9266445947861202
v -0.1783795244871574 0.06943937578035263 -0.9815084912189862
v 0.015003804796862252 0.03645107080182149 -0.9992228006200711
v 0.18838708567726048 0.0874356274195237 -0.9781949279196771
v 0.3247133258846295 0.21737731872096647 -0.9204935400634952
v 0.403582701512498 0.36761355516116995 -0.8378432294299687
v 0.2942628310283227 0.5005759764171175 -0.8141456123503009
v 0.17247453642743055 0.4135127794989841 -0.8940132635901819
v 0.11731431569821987 0.2385726779846327 -0.9640126703791292
v 0.17250876090650027 0.08442972285763979 -0.9813828760013533
v 0.3577638920065118 0.059575710896328155 -0.9319097232283563
v 0.5317486449468898 0.07984339707644598 -0.8431301266948306
v 0.6205096857603977 0.20568858824944652 -0.7567429778607028
v 0.6134230587533133 0.3897271515250253 -0.6868951145218033
v 0.6173254542063932 0.545706538101048 -0.5666689137959149
v 0.6318702700520786 0.6597730064656269 -0.40674259890454467
v 0.7444023781346482 0.5935634463167063 -0.30585541457380816
v 0.814334819558258 0.42979381196964017 -0.3900462547540052
v 0.8289589310790141 0.26291414192133417 -0.49366308810980414
v 0.7316804814585557 0.23497945701899453 -0.6398658670624929
v 0.6039097349072362 0.36936770055227486 -0.7063005973896652
v 0.47194745803793514 0.5153247164367718 -0.7153363079565396
v 0.3587742294209136 0.6646680814105169 -0.6553605067880528
v 0.27911581677885877 0.7979656759660856 -0.534177068773885
v 0.22827250645008193 0.8992764984756609 -0.3730863734959414
v 0.08536649742777717 0.950172300301866 -0.2998085403319518
v -0.1077541266199418 0.9357489371910707 -0.33580198740054645
v -0.2430665489948234 0.8676287480153226 -0.4337499376104993
v -0.3047376746206964 0.7537825710235934 -0.5821913648344788
v -0.3929662173076184 0.6118508347417132 -0.6864518250254795
v -0.3561008191399407 0.48594452898046964 -0.7981541964819918
v -0.20264782391395292 0.40511534926353304 -0.8915242078900754
v -0.051669705856037806 0.2961179605477174 -0.9537527955072069
v 0.09089015254155611 0.1632431380799682 -0.9823902778635272
v 0.19617309647057618 -0.0032239860848743696 -0.9805639816630384
v 0.09769161504152266 -0.14016659697163944 -0.985296743851298
v -0.09349895054107657 -0.09315760679911733 -0.9912515354556479
v -0.26011283805119745 -0.14364565278716326 -0.9548336179231972
v -0.4072128189100318 -0.24701158361620784 -0.8792968768708096
v -0.5308768621612244 -0.12924459394731602 -0.837535427404266
v -0.4954502317744192 0.06235708615550925 -0.8663952109983466
v -0.5290777415727125 0.2303910769697993 -0.816698656191508
v -0.6269725166800906 0.35093774561848495 -0.6955200658701732
v -0.578852473249638 0.5164013107952529 -0.6310780462206894
v -0.41543268712655534 0.6211661996179431 -0.6645060081887989
v -0.22931540616808158 0.6721368789672351 -0.7040216334930006
v -0.04522134363418537 0.6424591000771522 -0.7649845323978618
v 0.10500800181284457 0.5372660266348955 -0.8368503666601491
v 0.16360982109651578 0.3698081410160514 -0.9145893970952315
v 0.11336024416088847 0.18930358861263907 -0.9753530675515206
v 0.018151827663570097 0.018588769342423234 -0.999662427425782
v -0.1592167548739713 -0.04619325073621623 -0.9861623641945699
v -0.30803352604151946 0.07275236114573626 -0.9485897115097495
v -0.45231008578591886 0.15949815575217086 -0.8774827204042204
v -0.6169622216360489 0.16497565035325665 -0.7695067588166014
v -0.7525389777356337 0.19297825180531897 -0.6296383734484188
v -0.8509918191923265 0.24184358138396034 -0.46618087242090334
v -0.9004422786190168 0.32152329684646563 -0.29296155457734097
v -0.8365273086143752 0.4777596674069136 -0.2682680788719099
v -0.7274956050137743 0.5437227855799645 -0.4184682510380048
v -0.6054210309826191 0.5525993866243909 -0.5727995226484478
v -0.532727279145068 0.449079532386631 -0.7173069215099613
v -0.6267210727809517 0.29161082567996344 -0.7226228776329623
v -0.7669360253480751 0.22741124489086467 -0.6000777105679597
v -0.8133915069100408 0.3364891384881097 -0.4745200903714647
v -0.7195917516921745 0.5096720251763017 -0.4716165154543206
v -0.5735036096877008 0.6086397044611881 -0.5483168060789084
v -0.47541205920935425 0.537714660794894 -0.69630906753004
v -0.5475095461172474 0.37340670973555756 -0.748866293830181
v -0.6611444761022197 0.41118202392589476 -0.6275486633877301
v -0.5474700155319498 0.5547100789754976 -0.6265567096252694
v -0.4117806829241488 0.668787432025026 -0.6189992245034668
v -0.4055846093528704 0.7837651620470282 -0.47033317490633764
v -0.5176439935340401 0.7932488373168055 -0.32062591606678814
v -0.6511523770641731 0.7353219389240082 -0.18788887135941396
v -0.7678112087538165 0.6153279971439592 -0.17843038878735712
v -0.8192111322071767 0.480996443744088 -0.312306807440018
v -0.850007610365443 0.31862580652542427 -0.4194814152460778
v -0.8070996833535313 0.2032102996786641 -0.5543425612697774
v -0.6971824108229921 0.29277231923107416 -0.6543860138565756
v -0.6344056791926616 0.4710894371912309 -0.6128655451034484
v -0.5907936538368856 0.6286680436171724 -0.5057067821580198
v -0.5223823755333796 0.7635846376921838 -0.3795459851093136
v -0.37521008942808526 0.8197459346196218 -0.4327054326744361
v -0.40804999791504026 0.7045697141268005 -0.5805830837501332
v -0.37307928174530525 0.6030476881143918 -0.7050853390847767
v -0.20662452365973602 0.5609720679544612 -0.8016337350668837
v -0.11812522846447027 0.4214864743266279 -0.8991082150441769
v -0.14019369733319492 0.2359918384896601 -0.9615890907213533
v -0.2761575025652551 0.10578184216803779 -0.9552733826734932
v -0.3699227825088259 0.23504721191868022 -0.898838107308643
v -0.26526808063821794 0.4004930968875485 -0.8770622125824014
v -0.26351462071851084 0.5516619120393745 -0.7913464345485114
v -0.36502723142167126 0.6571011459966538 -0.6595249837955455
v -0.3557183549902685 0.781835332478176 -0.5120526972995629
v -0.23337911417361465 0.8867918895483462 -0.3989164495214675
v -0.06960274974899239 0.9486330131829901 -0.3086273862228378
v 0.12319311391717916 0.9530346922317514 -0.2766736924359099
l 205 206 207 208 209 210 211 212 213 214 215 216 217 218 219 220 221 222 223 224 225 226 227 228 229 230 231 232 233 234 235 236 237 238 239 240 241 242 243 244 245 246 247 248 249 250 251 252 253 254 255 256 257 258 259 260 261 262 263 264 265 266 267 268 269 270 271 272 273 274 275 276 277 278 279 280 281 282 283 284 285 286 287 288 289 290 291 292 293 294 295 296 297 298 299 300 301 302 303 304 305 306
