v 0.0 0.0 0.0
v -0.6117806616055615 0.059867100209339386 -0.7887587415667647
l 1 2
v -0.4472674816502579 -0.1526307339795038 -0.47570854926428296
v -1.1791490374234321 0.5203804280471382 -0.36891264996760087
l 3 4
v -0.9781117808703667 -0.292568295589888 -0.8606067310665679
v -1.822047971650024 0.22702213810569077 -0.7271995082322611
l 5 6
v -1.575889585934425 -0.4271927413321405 -1.1327514644347545
v -2.506458887154803 -0.08287487133029287 -1.0083087867730756
l 7 8
v -2.220880871427425 -0.5228951961668352 -1.2888030049441497
v -3.204967198717375 -0.3609693161308012 -1.2156312220252325
l 9 10
v -2.889048327987653 -0.5453258058137771 -1.3395690854355493
v -3.8881760482415317 -0.552750723774144 -1.3806625059985649
l 11 12
v -3.55351320757017 -0.4579385727970932 -1.3202119982133667
v -4.526846497779634 -0.6121551026378151 -1.4900341642986719
l 13 14
v -4.187874215645308 -0.24860970467694526 -1.2628331003145234
v -5.097640557265007 -0.512294282955442 -1.5834507025044227
l 15 16
v -4.768583870797206 0.08028413741651302 -1.1985685022451307
v -5.582656619995067 -0.2505783362115109 -1.6758688087170448
l 17 18
v -5.276859885213326 0.5157467978182246 -1.1591658870555008
v -5.971611689780721 0.15786512018831383 -1.7830574119756173
l 19 20
v -5.702869135801829 1.0330972083461036 -1.1789893095549289
v -6.2768567943320175 0.5112708281711097 -1.8100482583136754
l 21 22
v -6.0518751106048025 1.593595967148812 -1.2954494448667546
v -6.509624590848074 1.2543818155967248 -2.1172761740036283
l 23 24
v -6.306449608999944 2.1825841450815173 -1.4901739529600633
v -6.600018580079989 3.052121647800734 -1.8873159811865292
l 25 26
v -6.4431549701736195 2.8075620898623743 -1.6910239444009392
v -6.569391667354962 2.4922587759134514 -2.631581287946548
l 27 28
v -6.507759401144133 3.4069068669271827 -1.9845148424246517
v -6.573335116417107 3.1059175642133225 -2.9358850465083517
l 29 30
v -6.545120600363806 3.9407561442020005 -2.388413210166682
v -6.59048754140403 3.648807883360188 -3.343770762945794
l 31 32
v -6.556724481220182 4.390190540985753 -2.885880534898469
v -6.511232905924177 5.2112100015079665 -3.454965380963536
l 33 34
v -6.473889830055716 4.768107635841946 -3.4334587407289874
v -6.273508970689352 5.56418634199376 -4.004515834907188
l 35 36
v -6.299527713260256 5.0574369240266845 -4.012605714081836
v -5.982342827365567 5.8034867509115715 -4.5980998677375355
l 37 38
v -6.053104274924814 5.238196376762946 -4.6093809183951535
v -5.62563607248914 6.1272915588333525 -4.773028995455665
l 39 40
v -5.730741214129208 5.312470434775605 -5.192553468211649
v -5.201301350572817 6.129939851646919 -5.4193511387408355
l 41 42
v -5.35781050806249 5.268858638174496 -5.748022190272984
v -4.780235549603677 6.021474996154256 -6.064211666793916
l 43 44
v -4.972025090743845 5.099158593238307 -6.2694589630955235
v -4.4044268554599295 5.806610554519983 -6.690581232491591
l 45 46
v -4.579265076061423 4.819916277179781 -6.735784203876264
v -3.940153669819221 5.026762188396693 -5.9950066533093205
l 47 48
v -4.104556918424621 4.531280186994045 -7.111105631500671
v -3.33450727026967 4.744760976784784 -6.5098989351251575
l 49 50
v -3.556195268958276 4.253025794497945 -7.378311162824076
v -2.6984482772733402 4.509492926737402 -6.932783713236162
l 51 52
v -2.9659379013582012 3.9689855531290177 -7.52128732445798
v -2.071523547142749 4.30754548713712 -7.229054311165875
l 53 54
v -2.377916567601293 3.647619749451374 -7.544130149645056
v -1.53807428063616 4.123410072853714 -7.805450836124086
l 55 56
v -1.8531127993943457 3.231480386475198 -7.513571403332037
v -1.1350792538873544 3.83132261300774 -7.866582919851176
l 57 58
v -1.4196407033659897 2.721354725909439 -7.476174158570103
v -0.8509105269093746 3.437674627684575 -7.88044113064238
l 59 60
v -1.0915576754255643 2.1367983040990746 -7.462753353215994
v -0.6863647030986373 2.947423567137754 -7.885488894778733
l 61 62
v -0.8785085235778246 1.5011486093262083 -7.475426217594666
v -0.6465588601778802 2.188723642430682 -6.7873565063734596
l 63 64
v -0.7845242281854422 0.83779335181794 -7.44942383556004
v -0.7410841805548829 1.8346993758764292 -7.383915504351327
l 65 66
v -0.8156908335795293 0.1680541125845038 -7.447751813466894
v -0.951633953758341 1.1569453371925207 -7.387638470777381
l 67 68
v -0.9218109156477828 -0.4889611331802555 -7.530058136581069
v -1.0428745559370598 -0.8633997975170523 -8.449372708231918
l 69 70
v -0.9390273338860456 -1.141655519106328 -7.682434102672438
v -0.869061776011172 -1.5201098822568457 -8.605405995919245
l 71 72
v -0.8264890146828383 -1.781180969906948 -7.849368598831354
v -0.5623841818990732 -2.1474605141501075 -8.741606197663238
l 73 74
v -0.5879093171482788 -2.390385465288942 -7.995910102335792
v -0.14379815046426947 -2.7446590968716578 -8.81886542651309
l 75 76
v -0.23819631472964906 -2.9548100246484457 -8.088918350625015
v 0.3558004834173587 -3.313862112326782 -8.808813761170832
l 77 78
v 0.19787130664919464 -3.4639729215059556 -8.100007785566362
v 0.8983205260591269 -3.8569745800361095 -8.695759904673432
l 79 80
v 0.6892595715916965 -3.911006194101288 -8.009320727728444
v 1.4495569185651414 -4.314619161677702 -8.51828488814576
l 81 82
v 1.1956257522877243 -4.299992088741234 -7.804802319937984
v 1.9253754487897081 -4.982920874123935 -7.8375689882302115
l 83 84
v 1.6475200206651293 -4.677996176306043 -7.484756570847956
v 2.259201397025523 -5.467707720683656 -7.43783567475058
l 85 86
v 2.0096923346118327 -5.0909669757022815 -7.100100774778127
v 2.497176503806588 -4.8861425529030615 -6.25133335044478
l 87 88
v 2.3377823447639328 -5.586376729230524 -6.789535285925723
v 2.8242640178853082 -5.475297992832477 -5.922934399682672
l 89 90
v 2.6428692762443773 -6.146999181571262 -6.583928369616508
v 3.0282662675778007 -7.0696718761782895 -6.595939102223357
l 91 92
v 2.8577072237092263 -6.765349184115986 -6.438618122571285
v 3.1461614461138034 -6.912605989176093 -5.49251580519728
l 93 94
v 3.0706753708733956 -7.400543495580207 -6.412206827722166
v 3.4144493137629546 -7.602141392143988 -5.495049390696643
l 95 96
v 3.336964362359592 -8.009466221565733 -6.50073837800533
v 3.7941327935187896 -7.861968564721803 -5.6236742601798495
l 97 98
v 3.6943183829542012 -8.555110558019601 -6.655964547124242
v 4.297968913583111 -8.469233278193176 -5.86335422062007
l 99 100
v 4.1472804272707045 -9.014837231938243 -6.8376278984501795
v 4.888255039511365 -8.981690933045028 -6.166913393698355
l 101 102
v 4.685571389629623 -9.375253938904484 -7.0104498840335125
v 5.542515246725317 -9.37131097062033 -6.495055201496853
l 103 104
v 5.29133344000851 -9.63178886445124 -7.139937226326673
v 6.232591575314737 -9.621296476807458 -6.802412364247777
l 105 106
v 5.9407161167078995 -9.789096742434054 -7.19544553422682
v 6.927144957285883 -9.72960667219762 -7.042412616136499
l 107 108
v 6.608270425178222 -9.846491406753927 -7.169903099810455
v 7.606251325415849 -9.78942621445854 -7.142016067175487
l 109 110
v 7.273082808523035 -9.776638885242757 -7.118231814665059
v 8.248593192415896 -9.59283428247543 -7.239043067943662
l 111 112
v 7.909450319874077 -9.582591767922509 -7.035124003508528
v 8.82299447330284 -9.249047652694589 -7.267901586048061
l 113 114
v 8.492616570208254 -9.282342100723536 -6.896228131227389
v 9.31020248155018 -8.792384918717921 -7.198709927995904
l 115 116
v 9.002550387945679 -8.903314603381508 -6.682147633972214
v 9.698708842794945 -8.266647453344273 -7.013837769196865
l 117 118
v 9.425724942969502 -8.479930866947106 -6.380163678733055
v 9.98577164300197 -7.719368278223119 -6.708633224378026
l 119 120
v 9.756319169531992 -8.050552104778268 -5.985364821743119
v 10.177658959158046 -7.196384625784443 -6.290111765135842
l 121 122
v 9.996734780341871 -7.654071995058605 -5.501083231968892
v 10.289092142642529 -6.73758400414985 -5.774171011315821
l 123 124
v 10.157382951793817 -7.3264622309766185 -4.938598735288366
v 10.341938301604708 -6.374296004034142 -5.182153244846924
l 125 126
v 10.281503771338167 -7.10158316588646 -4.3192285441179195
v 10.502879756724761 -6.976255364219966 -5.286330201247903
l 127 128
v 10.484218259602109 -6.971085169178792 -3.6936073243516603
v 10.864618004459025 -6.82261519716548 -4.606434088597298
l 129 130
v 10.79528659755253 -6.905665275135427 -3.103284083993657
v 11.338303916876173 -6.740536929577833 -3.9266095484413293
l 131 132
v 11.212264500184878 -6.8810578443508 -2.578833223964665
v 11.907049878404674 -6.720460259906731 -3.279890778009057
l 133 134
v 11.72330103098157 -6.869372365384256 -2.1449785071627616
v 12.545525251754539 -6.747227245707325 -2.700881286894429
l 135 136
v 12.303196866651858 -6.8242023453581115 -1.8114465555720685
v 13.192361480585458 -7.1868012705858 -2.090567154511016
l 137 138
v 12.886674960401509 -6.668343357551459 -1.5202007454505662
v 13.718641447869455 -7.154882563001136 -1.2535336021977
l 139 140
v 13.405503250795661 -6.416738187062005 -1.1780942637985632
v 14.113674091950275 -7.02480266802303 -0.8192744667806633
l 141 142
v 13.831676860531314 -6.108879575175748 -0.7620126240077738
v 14.388603973129422 -6.830834262082447 -0.35138673428991263
l 143 144
v 14.151227810892596 -5.781298089766457 -0.2720102137495175
v 14.542896243611148 -6.594870816397976 0.15775164739354658
l 145 146
v 14.359658110158108 -5.472276040381333 0.28529310120613616
v 14.58673081933803 -6.346585387657248 0.7142699653977328
l 147 148
v 14.493100768004489 -5.234975602217599 0.8981028268589242
v 14.71253187960609 -4.749412786229129 1.744317184448439
l 149 150
v 14.693633207231928 -5.0937075288196665 1.5220858985640717
v 15.069501225771614 -4.659581910795838 2.340778869350117
l 151 152
v 15.001184416491103 -5.021005753989083 2.1133992732972686
v 15.53829376517343 -4.655091010497235 2.873412396903265
l 153 154
v 15.406970016871204 -5.011598036035471 2.6470822697342697
v 16.058872455553484 -5.437912017950846 3.274202353341514
l 155 156
v 15.868179389381705 -5.105825781066282 3.1245043558316112
v 16.585398991179748 -5.5870337478652035 3.628523140685813
l 157 158
v 16.37310546273533 -5.295241623956219 3.5228711471541843
v 17.15477807585253 -5.805161095711268 3.881995162262589
l 159 160
v 16.91340234609483 -5.559605524386431 3.819059577391002
v 17.72649915805617 -6.136710830102916 3.742750728020918
l 161 162
v 17.460471761140653 -5.898555654269011 4.007082624097144
v 18.271369807203378 -6.436042442804067 3.7756689014229488
l 163 164
v 18.00413679952059 -6.2853551012389826 4.072956104236887
v 18.80712794144614 -6.750231935181132 3.7000020115484897
l 165 166
v 18.540788150694347 -6.682005006599329 4.008156556555875
v 19.330866523848904 -7.045986786941457 3.514908720420303
l 167 168
v 19.067439444189112 -7.049631615890787 3.815766606922807
v 19.840746067284684 -7.290877483540943 3.229424302446791
l 169 170
v 19.593318331715054 -7.342844929001745 3.5207496944379173
v 20.397321252405558 -7.836657286082596 3.189496529146785
l 171 172
v 20.160621196451146 -7.520007693731456 3.2104065543922147
v 21.04501222322992 -7.949054152382004 3.0266359145375112
l 173 174
v 20.779311185732542 -7.596399565206748 2.9636034331515404
v 21.73150577657856 -7.843934836851818 2.7845734064655665
l 175 176
v 21.433372478323104 -7.59475939940028 2.8162062252080133
v 22.422760911399575 -7.656195998788087 2.6845397042159798
l 177 178
v 22.101068730647782 -7.5406423605925506 2.7883160430480345
v 23.093737809938368 -7.427483636207296 2.745851915647593
l 179 180
v 22.759452572393787 -7.464264491978065 2.8894196514521795
v 23.721197722196415 -7.202690640176121 2.9708161310113033
l 181 182
v 23.395662804431456 -7.427173468343812 3.098051270206369
v 24.33959893489654 -7.230543359348086 2.8328698571342397
l 183 184
v 24.036046102738332 -7.503806261362 3.2812491080825055
v 24.993096300513862 -7.22959220554652 3.1871131928798353
l 185 186
v 24.67705790011612 -7.676516047007606 3.37505746103362
v 25.622859689070783 -7.364500409787258 3.465086446033695
l 187 188
v 25.302620398837995 -7.9171251955248065 3.3576333581490374
v 26.213810361444594 -7.6089507900299 3.6310586456460916
l 189 190
v 25.89802797345461 -8.191425407062875 3.21701324736118
v 26.754316837468906 -7.925471656635707 3.6597750162604736
l 191 192
v 26.451253291674682 -8.462216016634907 2.9521755714792235
v 27.23722797808099 -8.269332402195488 3.5395763746871296
l 193 194
v 26.954015555215907 -8.692608074279399 2.5731315006221678
v 27.660508133556856 -8.593524936123611 3.2738816475949393
l 195 196
v 27.41280260327034 -8.840450232418545 2.107078202508646
v 28.08446348451323 -8.38332931782082 2.690098039259818
l 197 198
v 27.868325688366316 -8.862087044933867 1.6155921618240185
v 28.542760546435353 -8.694191078338786 2.334583515473353
l 199 200
v 28.319562624241666 -8.752403731443467 1.1319811611610504
v 28.984650015667334 -8.713515168977557 1.8777334266460026
l 201 202
v 28.744343677434294 -8.518037050881503 0.6691640499049569
v 29.318849341959407 -9.2760152713653 0.9780527980017083
l 203 204
v 0.0 0.0 0.0
v -0.6117806616055615 0.059867100209339386 -0.7887587415667647
l 205 206
v -0.4268413996255199 -0.13478220249283535 -0.49914595965655906
v -1.0820863636251787 -0.19590882825144748 -1.2520852485613498
l 207 208
v -0.8687266652867991 -0.1382555131206083 -1.0033781974432756
v -1.525189454541136 -0.3280206254498328 -1.7334780594259311
l 209 210
v -1.2918597098470408 -0.01184443409109022 -1.5078615640852533
v -1.8914399288775794 -0.3265844525228431 -2.2436891809527304
l 211 212
v -1.6731584949235856 0.237501136819591 -1.9997991752864621
v -2.228830902737504 0.5453928574044591 -2.772088540479051
l 213 214
v -2.0112388229303053 0.5934850556927757 -2.456589156563716
v -2.437201550060502 -0.3096907336923771 -2.5097798377429594
l 215 216
v -2.248329199230424 0.9551009199519408 -2.968982483706661
v -2.526188723419443 -0.0004957913384729951 -3.06711000374257
l 217 218
v -2.409859620426217 1.245392820696064 -3.55140035123987
v -2.6415587070377082 0.600396283810338 -2.823186783205862
l 219 220
v -2.58335993580633 1.4162974097802685 -4.176078734927046
v -2.853362636734368 0.5163793239922652 -3.8336667311023835
l 221 222
v -2.775274714562447 1.4579118089919525 -4.817141727925318
v -3.07500479085098 0.5483701909319256 -4.529225201159627
l 223 224
v -3.010331640277232 1.3809548702286571 -5.4403409344304805
v -3.4257534948301367 0.8852289201565489 -4.6776611423912975
l 225 226
v -3.338259959643136 1.2872673387947955 -6.017741910399465
v -3.863216057630709 2.1354576410842494 -5.947071504374128
l 227 228
v -3.666019835170788 1.3065132317483086 -6.602316850947872
v -4.113989609485069 2.2004353131278327 -6.617363236657118
l 229 230
v -3.925282274953158 1.4358853462952659 -7.206941234192875
v -4.246908203610075 2.3799034435516244 -7.280334653980073
l 231 232
v -4.0808782736853715 1.6364358032993547 -7.827527342887407
v -4.217866030516888 2.24171505562822 -8.611664691301879
l 233 234
v -4.1151866884285075 1.8107904613325505 -8.474016466862892
v -4.080060910281392 2.4244691109863474 -9.262790639024134
l 235 236
v -4.057422903894354 1.8996612474278634 -9.13607732616883
v -3.9460240359073526 1.701325012955576 -10.109860171728645
l 237 238
v -3.999050975884557 1.8620256381208968 -9.802936442063007
v -3.937207944600163 1.6454826280867676 -10.77724879664285
l 239 240
v -3.9628262767350577 1.6987043239844408 -10.4522514925333
v -3.8785911971279736 2.5360940680426727 -10.992328216628753
l 241 242
v -3.852528431568038 1.459065163885428 -11.068789587093086
v -3.6059950862665056 1.5627338093193437 -10.105215966860396
l 243 244
v -3.629702224781713 1.260612331105752 -11.669283210971976
v -3.2139483925566843 2.1698636355841083 -11.689551814638993
l 245 246
v -3.3056676987056615 1.0265710327481121 -12.207607222833389
v -2.7461523624838104 1.567849889480502 -11.579945062282805
l 247 248
v -2.896424211302499 0.7552345211593269 -12.664254745555098
v -2.273686276885884 1.3177692810935602 -13.208085701739336
l 249 250
v -2.5202285121202133 0.38736774518849576 -13.079847575600503
v -2.0373704734782736 0.21904515315294476 -13.93921689058056
l 251 252
v -2.254283576395483 -0.024747807409763893 -13.536967761096236
v -1.9476774511051096 -0.19076359734711903 -14.474214495646908
l 253 254
v -2.1048099803726847 -0.4265578196488322 -14.052460406098412
v -1.9649132945384915 -0.7468012572158388 -14.989409208321817
l 255 256
v -2.0151800995915994 -0.7582700887909692 -14.628355108955596
v -1.830274533186866 -1.4246937981869188 -13.906074435624593
l 257 258
v -1.8269456934560593 -1.0372641389732429 -15.20823003497702
v -1.4530769318994583 -1.666671800404558 -14.527004562124093
l 259 260
v -1.5173933883272346 -1.3047544284606778 -15.739409022643144
v -0.9723635533750729 -1.8600660943239449 -15.111259810458506
l 261 262
v -1.1036387325325872 -1.5775277071180303 -16.19099137922656
v -0.4204520910436188 -2.020592529954418 -15.610517800451449
l 263 264
v -0.6120522949682878 -1.8719015014852494 -16.53914600738959
v 0.16401610652788645 -2.172352279911247 -15.984666822981028
l 265 266
v -0.09455382513995317 -2.2215738324798955 -16.783164265666606
v 0.6398021771679414 -1.6076629174485495 -16.493622126626807
l 267 268
v 0.3512850175089068 -2.6671516930599464 -17.01166568374773
v 0.9403959400244088 -1.9264698692002016 -16.688650580731267
l 269 270
v 0.6973254525503856 -3.192780787976333 -17.243142024299104
v 1.1557603728104184 -3.3145623927273413 -16.36279739596856
l 271 272
v 0.9701186343160142 -3.786283704908642 -17.394347899029867
v 1.3197637882213042 -3.7825027622957195 -16.45747332320688
l 273 274
v 1.145660139272464 -4.426710966703383 -17.48725547425824
v 1.3165389541030978 -3.503456488259328 -17.143160140556844
l 275 276
v 1.2145488482642066 -5.075607893981946 -17.641242243366953
v 1.248191725096428 -4.143894319487054 -17.279609872110722
l 277 278
v 1.2021766847610131 -5.696339692792231 -17.894350451520403
v 1.1318379009388344 -4.764899674095819 -17.53731831422567
l 279 280
v 1.1736811591273235 -6.265675101331685 -18.24754386603834
v 1.2055993059403358 -6.301566487510788 -19.246389720163073
l 281 282
v 1.2580554423578572 -6.824237881327497 -18.60867182487196
v 1.4765914161506883 -6.867649327924532 -19.5835346226352
l 283 284
v 1.4282670094161456 -7.405502078518686 -18.896496750161834
v 1.6613442155317535 -8.309299072546393 -18.537573346667685
l 285 286
v 1.5268755363368092 -8.034172191202423 -19.107624790354052
v 1.5865010861495341 -8.956453637416978 -18.725732491691303
l 287 288
v 1.5026827732355859 -8.68247959288388 -19.27684956589599
v 1.3712323613097666 -9.5986221990403 -18.89816300105713
l 289 290
v 1.349531377527439 -9.318109219871983 -19.425323229574985
v 1.026351639531681 -10.192613690618504 -19.063664844364105
l 291 292
v 1.0727178249880813 -9.9098720201712 -19.5760410016897
v 0.5741843680591321 -10.704092081373082 -19.228652333614658
l 293 294
v 0.6885219885788993 -10.430475095574229 -19.751798785828573
v 0.046584946389191195 -11.111511002284287 -19.39951065427098
l 295 296
v 0.2257300632962865 -10.859849786463231 -19.977605737763913
v -0.5014470502082129 -11.299741762678138 -19.450625192717887
l 297 298
v -0.2862473707760205 -11.186304005205189 -20.26206925072237
v -1.0985553591911714 -11.735371640925807 -20.458742745024733
l 299 300
v -0.8632873475148324 -11.404474560642853 -20.524658022033428
v -1.7624258151001653 -11.842124989504857 -20.521176897903995
l 301 302
v -1.4802212388154503 -11.499504178599464 -20.769375710389514
v -2.4124362910800716 -11.829095972481714 -20.61989545839364
l 303 304
v -2.0992390178702798 -11.46500999402816 -21.02463559965374
v -3.0006933337876336 -11.625435571876286 -20.622586162039322
l 305 306
v -2.676618868444478 -11.319316850690871 -21.332744050777794
v -3.4891063974264176 -11.447177365247232 -20.763959641650573
l 307 308
v -3.1808885098084323 -11.089497507133185 -21.710129794605034
v -3.865319939295416 -11.221705642131228 -20.993139817429103
l 309 310
v -3.5924539263020727 -10.790525203928532 -22.146939671642222
v -4.1401595985038435 -11.549122445187825 -21.79402506130171
l 311 312
v -3.9135815127428297 -10.398089549124851 -22.58556958732548
v -4.318518500595734 -11.184692652651387 -22.119434849946856
l 313 314
v -4.129201835337199 -9.956154731547826 -23.04147612169582
v -4.386824666351277 -9.428597136008593 -22.231961785609574
l 315 316
v -4.333644443325928 -9.58053062737841 -23.558024346456396
v -4.7174758470409826 -9.093121051341987 -24.342310874907653
l 317 318
v -4.640097571223814 -9.212770337701745 -24.027453415919712
v -5.165952431485366 -8.808557621916766 -24.775844187066067
l 319 320
v -5.02656532617598 -8.810051716231627 -24.398916991283553
v -5.647914930256624 -8.518106947578206 -25.12602972089618
l 321 322
v -5.4588414466502435 -8.36588064452236 -24.654600812130745
v -6.120675451488887 -8.201672449897632 -25.38604555977566
l 323 324
v -5.898651074173774 -7.87744471838072 -24.786973917822312
v -6.542363402454449 -7.839053771357963 -25.55127789766683
l 325 326
v -6.307050240966225 -7.345863039338887 -24.79945753063853
v -6.87564434230026 -7.41475127256445 -25.61918624140277
l 327 328
v -6.647884786370438 -6.776086818550274 -24.706121190440264
v -7.0910359438837895 -6.922214185790241 -25.590577997830028
l 329 330
v -6.8905952354802675 -6.166532092145631 -24.567493478810153
v -7.1909862593555 -7.034635022775707 -24.1723194227201
l 331 332
v -7.079959553941384 -5.52444445930116 -24.53001362045301
v -7.324920911270482 -6.4765531055082 -24.712997388130045
l 333 334
v -7.219444149038431 -4.8740334973696156 -24.613885128419383
v -7.388575022988487 -5.83426737741622 -24.836023920816245
l 335 336
v -7.319559571001187 -4.244339095209479 -24.821217382765045
v -7.447656106272262 -5.203949138468566 -25.0716966085061
l 337 338
v -7.404977700400782 -3.665517728275265 -25.14862289565226
v -7.5304806202084 -4.619106018327954 -25.422335135411743
l 339 340
v -7.483962690898623 -3.1612035303968478 -25.583347783264863
v -7.5672675044409745 -3.593604979310241 -26.481172540674834
l 341 342
v -7.534668541322483 -2.744578402115148 -26.10625126172128
v -7.6347320231443545 -3.7341051424792178 -26.210290339524498
l 343 344
v -7.649565151445646 -2.421112840810833 -26.682179730500994
v -7.890596481774806 -3.3837744429595213 -26.805413401014686
l 345 346
v -7.8651144921097105 -2.1810231869412715 -27.269904361057453
v -8.263959038095498 -3.0860148297954915 -27.41793528519634
l 347 348
v -8.187944337800634 -2.0123181257397094 -27.832793599340448
v -8.7474308484683 -2.8244551417478427 -27.998348157146406
l 349 350
v -8.612230734046495 -1.907080804116219 -28.341168434632444
v -9.306174944047719 -2.4016552307373136 -28.864463351422387
l 351 352
v -9.119794745397597 -1.8510125734119 -28.77577317628343
v -9.92546922891472 -2.2366840071905085 -28.326166490638553
l 353 354
v -9.666352366661368 -1.7100737177510157 -29.13762370774932
v -10.483111576456972 -1.9525081169502823 -28.614049495914024
l 355 356
v -10.201242475554752 -1.4495417446829313 -29.446719912734004
v -10.972282709772962 -1.5711925297030023 -28.82166148048888
l 357 358
v -10.687561196805639 -1.0740835281566292 -29.715141280218873
v -11.36013941111553 -1.1089382649426491 -28.97593650956375
l 359 360
v -11.092718657549833 -0.5985734349491674 -29.958579947607205
v -11.62283698480377 -0.5837787806732726 -29.11078535142583
l 361 362
v -11.39142289462734 -0.046593191420277076 -30.194415527159407
v -11.748139403052395 -0.03657379420614372 -29.260256576928505
l 363 364
v -11.567780596993279 0.5521877955658391 -30.43912779076464
v -11.734582651561446 0.5619202236658112 -29.4531854220457
l 365 366
v -11.616159526406127 1.1635956911641974 -30.709986916340114
v -11.592979396480402 1.1709081507082622 -29.71028235522616
l 367 368
v -11.542198456939936 1.752159605640595 -31.02247224447296
v -11.345842206130218 1.7704904124444931 -30.042110982340542
l 369 370
v -11.363488824926408 2.284002421058328 -31.38952969208397
v -11.031025143368412 2.4090536767632322 -30.454740901023907
l 371 372
v -11.110996187598959 2.7296692571887378 -31.822141921207923
v -10.693966049428509 2.914856816545698 -30.932315291061943
l 373 374
v -10.805044286503035 3.0704466062707447 -32.311856652324366
v -10.294271325138752 2.6419476568352716 -31.566538175247718
l 375 376
v -10.426756841080605 3.3029289309845415 -32.81422641539744
v -9.814608118304077 2.98415975767511 -32.09058274939139
l 377 378
v -9.99747727646144 3.414344289110226 -33.31704909566761
v -9.333893426645671 3.1789564425407786 -32.606944148528754
l 379 380
v -9.551196716886492 3.3955266445299928 -33.81705345556519
v -8.89002518387015 3.288036374722554 -33.07455898028235
l 381 382
v -9.126057519598975 3.247231942531609 -34.31383323152994
v -8.525230424499822 3.2518231238289457 -33.514467406110185
l 383 384
v -8.737243487753458 2.9782175630935948 -34.7892994897391
v -8.148508424676816 2.215321107180037 -34.522129088948375
l 385 386
v -8.352735391494504 2.607286389333614 -35.1945017060252
v -7.832634838612989 2.8932340817473055 -34.38968537163851
l 387 388
v -8.06191854426793 2.1609649682266876 -35.60162275921325
v -7.718732790057457 2.483169438636354 -34.719348528967906
l 389 390
v -7.8942832513371295 1.6842918592401188 -36.04231080903051
v -7.73983910618615 2.0173857103944917 -35.1121519557416
l 391 392
v -7.852150605206849 1.2161198489310001 -36.52039512210911
v -7.881511270402346 1.5499775531960274 -35.57822900902598
l 393 394
v -7.926694832978666 0.7945466752167962 -37.036383512316775
v -8.118598376166064 1.1347702690760824 -36.11582882285308
l 395 396
v -8.111958797634571 0.4349395182516642 -37.57114149380486
v -8.477154421099115 -0.32402511021014546 -37.032063717091546
l 397 398
v -8.415048830222949 0.08506789034962725 -38.056168377238556
v -8.949583669523962 -0.6163603643514767 -37.58471221906433
l 399 400
v -8.8121269488946 -0.21675238466858587 -38.50444960863045
v -9.414879469587058 0.5323015167213045 -38.22948115296422
l 401 402
v -9.169853894986813 -0.4510003266301239 -39.02088812906271
v -9.62169309868011 0.36662822963636854 -39.37771424635709
l 403 404
v -9.412852643506392 -0.6969948683642879 -39.59531909532902
v -9.682343155941041 0.26597774250230255 -39.60297510136965
l 405 406
v -9.529529746060462 -0.9433478664559529 -40.207859297098764
v -9.60772025325724 0.032972362525840904 -40.006153930126914
l 407 408
v 0.0 0.0 0.0
v -0.6117806616055615 0.059867100209339386 -0.7887587415667647
l 409 410
v -0.4385988330992001 -0.14005279723434788 -0.48739476686083805
v -1.1439745285213956 0.33968950603870945 -1.0092112583192012
l 411 412
v -0.9223344807445114 -0.16955655909864786 -0.9508762750523729
v -1.6150644221659585 -0.865001601130462 -1.1418773791633363
l 413 414
v -1.338046777212744 -0.12936910774925223 -1.4753694178462595
v -1.8793518189843124 -0.9470164571970068 -1.6714348755223691
l 415 416
v -1.643726112456961 -0.0723419104875109 -2.069366761523632
v -2.0098303868851195 -0.9767116479795 -2.288645210428449
l 417 418
v -1.8274714673993473 -0.023486502258758774 -2.7123131128945346
v -2.0058509918865046 -0.8643476479453014 -3.2233251273506047
l 419 420
v -1.8825058837928526 0.012196937518210814 -3.379563220917426
v -1.8675020789959902 -0.8413840204923154 -3.9003073365475975
l 421 422
v -1.809920046858521 0.04004064552631764 -4.045573038460589
v -1.6215329611812606 0.38167583819217826 -4.96633125921248
l 423 424
v -1.637079733598698 0.14273223047599148 -4.685186567094419
v -1.3123664077140684 0.5032380380940459 -5.559598837517585
l 425 426
v -1.3828030240588989 0.33394368389680174 -5.275402551407105
v -0.9792203225464009 1.2440915260573364 -5.3689541866167385
l 427 428
v -1.1358022791024747 0.6343811779883738 -5.821651870857039
v -0.841539448074152 0.5461539345513153 -4.870008376794953
l 429 430
v -0.9911911722546265 0.955559004918855 -6.392279750450626
v -0.818716635827196 0.03443773960345875 -6.7412613386009275
l 431 432
v -0.8906378740086023 1.1742468613572417 -7.0180538811323245
v -0.7733235583103824 0.18258766593215092 -7.071433572599402
l 433 434
v -0.8120554139777173 1.2765437421508241 -7.676136374218359
v -0.639546653071217 1.750346096513992 -8.539705743991526
l 435 436
v -0.6342270489132316 1.3178242169074668 -8.321286923171705
v -0.27646315690671974 2.1754810302594114 -8.690650955106788
l 437 438
v -0.3342169440819617 1.3618213100936256 -8.919272331070836
v 0.1975317008649281 2.2024566192771413 -9.022110337425891
l 439 440
v 0.06418509418205548 1.4464845453031825 -9.451956199213832
v 0.6846947799424532 1.4365821080053298 -8.66781994089319
l 441 442
v 0.479851447833264 1.647065104288291 -9.938282965203726
v 1.0932745065865772 1.5160266805934963 -9.15947549059571
l 443 444
v 0.8944451043191343 1.9621901883130037 -10.360577984045712
v 1.5117705585255274 1.714551484924089 -9.613862270957572
l 445 446
v 1.315253218181284 2.368287746604402 -10.68849581823013
v 1.9471234882333626 2.012505748439038 -9.999903680890634
l 447 448
v 1.7732223507508142 2.803229225950953 -10.913885673617457
v 2.5176247288854623 3.469277100316207 -10.866500776434835
l 449 450
v 2.2983216742281742 3.147965851494556 -11.14830444635352
v 3.1126564937864325 3.7231032745009935 -11.226251520144231
l 451 452
v 2.8519062297358624 3.3813140413888836 -11.445991469408021
v 3.6808651608148764 3.892057946217193 -11.673955840012443
l 453 454
v 3.381842781722595 3.533420148102011 -11.827656186980114
v 4.1135232631811505 3.1995016478747327 -12.421913798002928
l 455 456
v 3.8317597653665505 3.736998939266171 -12.281148397646973
v 4.435669500273787 3.4079344387101056 -13.00710265692097
l 457 458
v 4.194178439530666 4.035019846210186 -12.760064930207747
v 4.666125897568601 3.7331232609706064 -13.588390982358838
l 459 460
v 4.472717200094611 4.432021340195323 -13.223025118189845
v 4.831491429515525 4.028498600362261 -14.064720104952299
l 461 462
v 4.687593269872318 4.924739432024129 -13.62375190559009
v 4.966709086651177 4.561629361608742 -14.512709406029117
l 463 464
v 4.858506196289306 5.496491909286847 -13.929386782274968
v 5.086778702739388 5.172895225202417 -14.847633398848401
l 465 466
v 4.973729407815947 6.122752192203907 -14.139654052466803
v 5.059095905243724 7.118986169468126 -14.124474340307854
l 467 468
v 4.966190072043351 6.75806022625515 -14.353784063919427
v 4.858435945423409 7.752132295789065 -14.339300667600398
l 469 470
v 4.83847452425435 7.367935161575581 -14.601500282271125
v 4.595407975259526 7.4568209294795995 -13.635571727447395
l 471 472
v 4.6539463801496135 7.914141907703882 -14.943746328319655
v 4.349208705528917 7.951756678501895 -13.992053059096538
l 473 474
v 4.41892035404195 8.374182733461408 -15.371122049678533
v 4.025954136734332 8.351856973655009 -14.451840203613894
l 475 476
v 4.150620074536347 8.73620916536182 -15.867731087943895
v 3.794519255396406 7.841808590552468 -16.138359649608336
l 477 478
v 3.962400814932488 9.036390953972422 -16.43693158479835
v 3.759752991018535 8.10890401729525 -16.751100077419967
l 479 480
v 3.8747958969835974 9.270278179026292 -17.05914597069488
v 3.8231261911275594 8.459220640495712 -17.641825909159785
l 481 482
v 3.8880165559709012 9.425032104367721 -17.711373874334406
v 3.9789067085124574 8.614049709823531 -18.289341465043734
l 483 484
v 3.9847299720005234 9.478944350273034 -18.372633873442155
v 4.1809030684711 8.666253207756387 -18.921313400211776
l 485 486
v 4.09887602870403 9.419602056902805 -19.03076628099166
v 4.196567643745553 9.180276522602092 -18.064754046606268
l 487 488
v 4.100285473502241 9.340990152491505 -19.69660633946579
v 4.006786522961165 9.102540170389164 -18.729962893161463
l 489 490
v 3.9764219833231063 9.27666221312685 -20.35246947494006
v 3.716309145271909 8.337389410938219 -20.576317446897967
l 491 492
v 3.7546923128206906 9.140623880846515 -20.970422519789526
v 3.347479493910659 8.248455471600193 -20.774940424296783
l 493 494
v 3.4300493349393677 9.001886349489668 -21.540516760771176
v 2.8991724727781434 9.28388040658551 -20.74136151366053
l 495 496
v 3.084299439482426 8.9793567065158 -22.11451521590641
v 2.588849207708007 9.36201040923909 -21.334704205707894
l 497 498
v 2.752848296833418 9.08268987270732 -22.688183973359173
v 2.2237705552607054 8.383312294462712 -22.20761374288185
l 499 500
v 2.3634008126118595 9.278513603894181 -23.197603765727123
v 1.736428295931769 8.690243323601264 -22.686875324525808
l 501 502
v 1.9473341446155221 9.569966063316047 -23.63526256405371
v 1.3684816713658843 9.99696301239726 -22.940565925449413
l 503 504
v 1.6123854376388966 9.953187006514034 -24.071697981850875
v 1.1969527505123412 10.455708457236856 -23.31348437472539
l 505 506
v 1.3951880357038664 10.388871817269065 -24.53270648045874
v 1.1658726295357849 10.930273923283389 -23.72381946480252
l 507 508
v 1.3037975674493658 10.834226337880429 -25.02549104464313
v 1.2585762238151805 11.612197215669132 -24.398820203297696
l 509 510
v 1.3239458485154456 11.231648683221477 -25.565096759691023
v 1.4289538503282901 12.009192253316145 -24.945097311175374
l 511 512
v 1.4209716442836726 11.538629138901939 -26.153223594168015
v 1.5845814653801884 12.525072086991191 -26.14049030685671
l 513 514
v 1.5142864784283017 11.726974079713216 -26.78988938288138
v 1.6276467225891902 12.7204168301003 -26.80475399680611
l 515 516
v 1.5585997325732197 11.797000984283692 -27.45521439343037
v 1.5767515602367899 12.796458024844487 -27.48271230654987
l 517 518
v 1.5146995458849384 11.777826779588247 -28.12400071279604
v 1.355482791010967 12.313206875927676 -28.95346932426424
l 519 520
v 1.353481818995631 11.78169597759366 -28.77479654294416
v 1.0454482929541116 11.741502203917154 -29.725322611704016
l 521 522
v 1.1043273082301426 11.872170972377873 -29.39070617843439
v 0.6520172224442238 12.7193806269965 -29.669366163752198
l 523 524
v 0.7441192927705795 11.981464670324376 -29.945530362033576
v 0.12715707113453067 12.724496327567739 -30.204878725066955
l 525 526
v 0.2831527221824412 12.103642995879252 -30.416813869695194
v -0.4693862555531925 12.742211781406384 -30.577795213766514
l 527 528
v -0.25703390283949173 12.250110243469985 -30.78596229113197
v -1.1080257220318181 12.734960515375834 -30.987786812686114
l 529 530
v -0.8470458778432975 12.43988147291479 -31.04169174064016
v -1.7474881564623144 12.770742665935732 -31.324064851662
l 531 532
v -1.4372215798747554 12.708365647697098 -31.212827257507325
v -2.2737488884891306 12.204040227799625 -31.427018603708863
l 533 534
v -1.9640918918821832 13.052482944377616 -31.444161997590037
v -2.6915874968959574 12.455136516925267 -31.781693315093403
l 535 536
v -2.4131076117524835 13.421812086772768 -31.778086643888685
v -3.0185286427351024 12.770462141603078 -32.23547993654981
l 537 538
v -2.79022938527252 13.764882108124617 -32.21355884611688
v -3.322956664417588 12.919595980792101 -32.17241265560196
l 539 540
v -3.171823530054273 14.009340884164953 -32.70775517657977
v -3.798544602835225 13.760824198665768 -31.969202433736854
l 541 542
v -3.6413052776321 14.18417316374669 -33.15333947188894
v -4.4082413029801755 13.971086914438509 -32.54802683912875
l 543 544
v -4.182775308707645 14.36092006738059 -33.50722823565868
v -4.996166815617686 14.941893342922613 -33.53662737837722
l 545 546
v -4.699197826853894 14.645969703564377 -33.82594329520503
v -5.418789578546068 15.324866959588583 -33.97184129608027
l 547 548
v -5.135010680950845 15.027895802003606 -34.16321386204609
v -5.708514290638546 15.490031229142465 -34.839619403609994
l 549 550
v -5.482022140097308 15.420623621936922 -34.58143255289032
v -5.957434199306662 15.287968308111049 -35.45113706689038
l 551 552
v -5.817259223783716 15.725758206567567 -35.07548996371323
v -6.364768769900963 14.956265609023525 -35.40429756586897
l 553 554
v -6.231914827994579 15.97304006376868 -35.540884071690826
v -6.893059304096799 15.925652673959135 -34.79212348444911
l 555 556
v -6.645656904410692 16.30356713453682 -35.95219382443246
v -7.1931269199426415 17.11875276120305 -35.76311982788553
l 557 558
v -6.961466819123291 16.707816194160028 -36.38403405748595
v -7.373247502047439 16.544603733002475 -35.48748603217252
l 559 560
v -7.226357690552536 17.200354396752175 -36.753921071396945
v -7.631942299905407 16.366446384698534 -36.37962366011973
l 561 562
v -7.529488237668863 17.73847937252954 -37.01491058696253
v -8.047132231202903 17.035110939908897 -37.50206307227992
l 563 564
v -7.9232270418434885 18.253403309747565 -37.18622285881041
v -8.574379418907661 17.59695095675868 -37.56710458598964
l 565 566
v -8.402297613852532 18.710953884742214 -37.29031103179465
v -9.170108822606348 19.220069379992726 -37.67924207993536
l 567 568
v -8.938361301153833 19.078979896598792 -37.45377427342511
v -9.757572433361009 19.643673852091396 -37.55384353692771
l 569 570
v -9.500640631138301 19.34837357296646 -37.70033827147215
v -10.350648241503745 19.872051952517413 -37.643346893951374
l 571 572
v -10.065530894541745 19.513695265836617 -38.021549817157926
v -10.872630577895276 19.439110248152666 -37.43586459772029
l 573 574
v -10.56862690073212 19.666069539113 -38.437888838873036
v -11.265809311555111 18.967969032983238 -38.60096050833284
l 575 576
v -11.012360634931607 19.922893053346623 -38.8699618831838
v -11.64676631412427 19.342794426335956 -39.380858171238856
l 577 578
v -11.421506835607412 20.29433276080396 -39.24965324836887
v -12.012300489444296 19.86036779503691 -39.9298276870777
l 579 580
v -11.796512563928646 20.763339574595136 -39.547861420393666
v -12.318894939462025 20.22066262730639 -40.20559874228856
l 581 582
v -12.09607708678599 21.305864434873886 -39.80404722592977
v -12.471287176214075 20.881801533822816 -38.97979723670107
l 583 584
v -12.350945264685578 21.82130570285054 -40.148904810034985
v -12.758995262600617 22.138027094703602 -39.29264389235615
l 585 586
v -12.631840796716538 22.252211273845962 -40.579174320956724
v -13.004920078461844 21.341552418707526 -40.756691359830064
l 587 588
v -12.82712061131546 22.644345134718275 -41.08673873133854
v -13.033745134975195 21.689454610796957 -41.30002350235527
l 589 590
v -12.928910501391679 22.9793506639991 -41.658547667001244
v -13.047035729856148 22.133392247718184 -41.13854690899824
l 591 592
v -13.01591856311332 23.200835146366288 -42.285364245263686
v -13.156112260446516 22.344870249323062 -41.78769987818701
l 593 594
v -13.148768249373457 23.308105390001653 -42.93376198746465
v -13.424925751938712 23.27212344477395 -41.97332337235458
l 595 596
v -13.380648015741405 23.41092201467251 -43.554524444719384
v -13.750570798250232 24.2933569973728 -43.84515416840171
l 597 598
v -13.594634880303671 23.625022366727926 -44.15276809287891
v -13.85990296094189 24.522416953838476 -44.50535255144054
l 599 600
v -13.755574129255955 23.947520713679072 -44.71823566006727
v -14.019088749974465 24.21117097013402 -43.79030862255903
l 601 602
v -13.967321281517968 24.35471054038095 -45.20699366773371
v -14.332348512939639 24.659164803745476 -44.32718532392252
l 603 604
v -14.21684319726022 24.837539697351588 -45.59962698752223
v -14.572561552250487 25.659276299004617 -45.15441534186733
l 605 606
v -14.415867847789624 25.399740748802962 -45.90596702241517
v -14.649246961963238 26.303416410491064 -45.54693431145402
l 607 608
v -14.517940131241124 26.018044605881137 -46.144307935377874
v -14.587542880990117 26.951476794317177 -45.79237071538135
l 609 610
v -14.500925664065674 26.660457366207492 -46.33545997314932
v -14.377732550148496 27.629779189335565 -46.54815379038681
l 611 612
