v -0.7887587415667647 0.15844471264309148 0.5939317474571147
v 0.10679589929668211 -0.9781458412890384 0.1783966060842308
v 0.13340722283430678 -0.970866951974465 0.19904741761562572
v 0.12444267766167905 -0.9726420878967769 0.19616673731341408
v 0.07317178291891718 -0.9800331654462799 0.18488073131024613
v -0.04109342056301549 -0.9050647025651741 0.42328384679437514
v -0.1698221660853052 -0.8876637560273443 0.42803444737722035
v -0.3206176021898991 -0.8373979565372052 0.4426838776749302
v -0.47730030647191424 -0.7480831607322248 0.46103796163732663
v -0.6238915249201165 -0.6218103006844592 0.47340396607501506
v -0.6310589487587466 -0.36617418097209176 0.6838721169786959
v -0.8218267291368736 -0.30023947104570786 0.48420769025530863
v -0.39714202822646594 -0.3893999136905633 -0.8310510914702839
v -0.9405573435456088 0.00022876389301047795 0.33963484975707103
v -0.9513702040837002 0.10417711795249257 0.2898997462517869
v -0.9553575527791116 0.16646962524350611 0.24408975852991666
v -0.5690848460650668 -0.6311464828145343 -0.5270640902299658
v -0.5710570941782012 -0.6354782983589754 -0.5196740589095533
v -0.5854941536556991 -0.6573279642280049 -0.47446448073471537
v -0.1636480770605107 -0.9444099276690208 -0.28514767296015586
v -0.22679767052918653 -0.9584368525875357 -0.17309424093433257
v -0.31618947652093216 -0.9477727649154054 -0.04184496411787891
v -0.42112226939606734 -0.9016718203451634 0.09820367922916859
v 0.7407775505669433 0.1337559103305339 0.6582993065678331
v 0.601206696375513 0.21750146924280866 0.7689236757380158
v 0.4455274495879141 0.2954032407728274 0.8451285209981969
v 0.29223301329210477 0.3680829048393288 0.8826748218382908
v -0.26132068647903006 -0.35742031396985413 0.8966394024243078
v -0.35301151651913854 -0.2859732440697072 0.8908435176174917
v -0.4042669720722767 -0.2271671755238796 0.8859815402456287
v -0.4227355415627386 -0.19625313478787532 0.8847481952429126
v 0.6880697112212073 0.1723461762336873 0.7048807473875225
v 0.06550833120871324 0.045738790146561764 0.9968032010473177
v 0.0601133426895138 -0.04654268480619893 0.9971058943370683
v -0.9193145716508497 0.18665157289100637 -0.3464417825374547
v -0.9229718932468067 0.03239761252849965 -0.3835013415607035
v -0.8922375988318829 -0.13958910462221436 -0.42944958854501847
v -0.8229553241772988 -0.31509702027450925 -0.47271386929342757
v -0.719895410545818 -0.48039695328691107 -0.5009684272962945
v -0.5957521191070706 -0.624490209956202 -0.505065728641624
v -0.5089641604173151 -0.7668740348192297 -0.39097275880906784
v -0.03276666829222746 -0.6074380649977641 -0.7936909616726151
v 0.04692089609737714 -0.672838945333138 -0.7382995213004075
v 0.8487674243333481 0.516780334923136 -0.111946169328238
v 0.8666008862430506 0.49008156534782793 -0.09393063008935279
v -0.012010732606849428 -0.29700267277905695 -0.954801107385378
v 0.9461023173740045 0.2607796847356592 -0.19205301634889735
v 0.9171574370255232 0.3477904452145499 -0.19458684931474657
v 0.8770641178254811 0.40265759570225057 0.2619644896666239
v 0.792610326504172 0.5310335039334866 0.29962023966860896
v 0.6707145047518241 0.6542212813343253 0.3494804260109425
v 0.5153946825366595 0.757700749066159 0.40032224029838565
v 0.33752486207889515 0.8325117030109289 0.4393190547067891
v 0.1530329180903212 0.8766896050764224 0.45606607233131113
v 0.0278870326349676 0.8465876974897257 -0.5315181877131413
v -0.12081125327860351 0.8315593571163836 -0.5421380605283502
v -0.23277758253953224 0.7980530714081446 -0.5558110220957114
v -0.3024817967685157 0.7628770979225132 -0.5714221697563159
v -0.3316901352246511 0.7420013526443296 -0.5825938953238691
v -0.3284695456449707 0.7462372755456859 -0.5789971383089385
v -0.30474694339272385 0.77831072223236 -0.5489642248370431
v -0.2730877793469295 0.8321115900601818 -0.48271458073988216
v -0.24355450955855729 0.8943210561773203 -0.3753279224246103
v -0.9671016571299834 0.1805244947519878 0.17923529666608828
v -0.9128267642456371 0.21450162518722268 0.34747136755261065
v -0.8233254644476724 0.2322913615981092 0.5178570294192425
v -0.7010575540443922 0.23844627108745237 0.6720577964147016
v -0.5559027797316676 0.2406980799672989 0.795635930427141
v -0.27912059893894753 -0.5921263712756205 0.7559616734252675
v 0.2666671432528662 -0.94748127430399 0.17654424247945455
v 0.35881979701789996 -0.9030824940687003 0.23598805515256627
v 0.4106258897178612 -0.8661076485174971 0.28503319082680256
v 0.4297618611430641 -0.847179438283302 0.31239677024073154
v 0.42897686419159664 -0.8494412502154816 0.30729206371253065
v 0.8462143575895149 0.4261460658203984 -0.3198762129248801
v 0.8186929707860454 0.40809244773538483 -0.40398313539907027
v 0.7600131236059963 0.39532925621322784 -0.5158438049725466
v 0.6271200836072442 -0.5178585963159684 -0.5818443734866736
v 0.504018784854202 -0.4916694367332079 -0.7100888884474573
v 0.35912401510840475 -0.43618499780137954 -0.8250894433123179
v -0.07630884937008392 -0.7037289751035981 -0.706358612255457
v -0.23141372267419535 -0.6066325847292231 -0.7605554523523017
v -0.3729540926883975 -0.5048785010995707 -0.7784619090709749
v -0.4932478361355716 -0.4148985035187333 -0.7645690314978064
v -0.586342304476016 -0.3488606200684087 -0.7310943644614163
v -0.3312531652911323 0.4053814533062494 -0.8520194937910288
v -0.1837706398547033 0.7143239179838201 -0.6752552792267825
v -0.17903002668597406 0.7145453108347465 -0.6762937588865489
v -0.13166652099203346 0.7154347401487616 -0.6861611034138637
v -0.04246412740044153 0.7234282572995873 -0.6890924135590261
v 0.08139647955912359 0.7385634681298402 -0.6692522817737764
v -0.2651814130721294 0.515951593052675 0.8145383795669041
v -0.09413591520266998 0.49451132532775854 0.8640584347088698
v 0.09002898500007514 0.44387429557706065 0.8915550412542275
v 0.2734252874970544 0.3722782134110386 0.8869315328573232
v 0.44276176889929375 0.2931831297096951 0.8473521513838265
v 0.5874008032079061 0.22129358600296745 0.7784532389197547
v 0.7007501469727715 0.1682642287620276 0.6932794392139161
v 0.5830198367511721 -0.5144142711748038 0.6288607378158815
v 0.7189913536493345 -0.2852006360964552 0.6338075658649697
v 0.7457522654849522 -0.2797088438055482 0.6046623199944143
v 0.3088887480967514 0.6793861963079612 0.665599081704163
l 1 2 3 4 5 6 7 8 9 10 11 12 13 14 15 16 17 18 19 20 21 22 23 24 25 26 27 28 29 30 31 32 33 34 35 36 37 38 39 40 41 42 43 44 45 46 47 48 49 50 51 52 53 54 55 56 57 58 59 60 61 62 63 64 65 66 67 68 69 70 71 72 73 74 75 76 77 78 79 80 81 82 83 84 85 86 87 88 89 90 91 92 93 94 95 96 97 98 99 100 101 102
v -0.7887587415667647 0.15844471264309148 0.5939317474571147
v -0.7529392889047909 0.1697552948080462 0.6358188162583593
v -0.7300998619826556 0.17101886118443443 0.6615940905510618
v -0.7358276168674772 0.17387838898086203 0.6544646851439345
v -0.7722893651925886 -0.5935785877771312 0.22634839637809467
v -0.053190681179243304 0.760900337181915 0.6466849529037583
v -0.09812752003590883 0.8313057769460015 0.5470847238114102
v 0.728213568034008 0.681339124941039 0.0740405034812579
v 0.34241200382466214 0.9376482859620217 0.05974706243207464
v 0.28791652676569046 0.9493380599944188 -0.12594173836030131
v 0.7626797920391828 0.46690322986084265 -0.44757223859460016
v 0.0706704060253378 -0.9971355189590339 0.0269527464743633
v -0.015046385709245644 -0.9922087613919514 -0.12367449249597731
v -0.07339341978719742 -0.9636339958414125 -0.2569492712397757
v -0.7841373484144719 -0.614862214377184 -0.08410158234365167
v -0.7887741721612413 -0.5938987966034317 -0.15849140268274237
v -0.9737828455598134 0.2037502655056932 -0.10115729830215493
v -0.9743123545798418 0.20531622112518066 -0.09252397016967871
v -0.5400767240954536 -0.8083800123436627 0.23417704356657548
v 0.9635736202326894 -0.018006164645728073 0.26683638512470276
v -0.02026860366701609 -0.9445206434856642 0.32782607848494205
v 0.627662160550583 -0.4024005820898909 0.6664187750556629
v -0.5438309561842379 -0.8341106163737869 0.09223540940592065
v -0.8593693149800568 -0.18653488907014165 -0.4761188041133191
v -0.9372467345506728 -0.06470934972581555 -0.3426094841538425
v -0.9369488022234059 0.18913098897835431 -0.29386461341950265
v 0.7222806733310034 0.6694526531885231 -0.1736196246723229
v 0.6812254728529286 0.730726271321965 -0.04439562519213769
v 0.6281492121846387 0.7765811872659867 0.04847913794991747
v 0.5804735787751103 0.8078745653831588 0.1019269883347246
v 0.5544791844085621 0.8232712799843297 0.12156164531042782
v 0.28954213903979953 -0.15582138253873407 0.9443966573765359
v 0.3230151030164628 -0.1908249737213738 0.9269558094254009
v 0.8803446283305452 0.47384255690083477 0.021600153685397888
v 0.9368745758229875 0.34414324491894044 0.06189875728282995
v 0.34409533370139483 -0.09187319297485261 0.9344290865215672
v 0.36163237125622966 -0.26690482298576756 0.8932994142651901
v 0.3570321372947329 -0.44625961860963514 0.8205975906235268
v -0.9988458541247317 -0.005900296251788617 -0.047667034751237236
v -0.9748627977632398 -0.1637827429166149 -0.15105541585768478
v 0.3589234034941497 0.41642023743897044 -0.8353251919315295
v 0.3818922986627489 0.2764283239137322 -0.8818988910075383
v 0.37868656483885915 0.16313048600663954 -0.9110350872199058
v 0.36165838521087984 0.08802292367541585 -0.9281460969665767
v 0.3473886680750427 0.05503131073610216 -0.9361050518674245
v 0.3522881315575921 0.05987297125805591 -0.9339744641457773
v 0.526980545046027 -0.09679353722433862 -0.8443473907667342
v -0.1966734943023626 0.8651677288653291 -0.46130720519942664
v 0.0034811241294311346 0.8352251306716161 -0.5498971384444333
v 0.1494802519958762 0.8570902515545595 -0.49300299690102306
v 0.4020494376144185 0.6266619430861218 -0.6675710140512806
v 0.5687844091272234 0.5837874281089142 -0.5793759873482625
v 0.7169899771759318 0.5154701600801562 -0.46927165554313444
v 0.35291461034051336 0.8568702410604017 0.3757987064816644
v 0.46613473737862476 0.7521126082516759 0.4658809194609936
v 0.8095143360862445 -0.2762261802446138 -0.5180594917751399
v -0.7842865284512566 -0.6196601916784975 -0.03026364384609409
v -0.7483907711463539 -0.66273778712168 0.026265551279646714
v -0.7271127296126284 -0.6848376978552174 0.04800422930990443
v -0.7314447476449129 -0.6803060136753932 0.04660803471253368
v -0.7643039798445165 -0.6437455037343763 0.03783058042914834
v -0.819728710764239 -0.5715402546282933 0.037236784074669155
v -0.8844568073897625 -0.46323919688963455 0.05608566953290536
v 0.3951740560900524 -0.020876983036360014 0.9183689982641156
v -0.18298376767703717 -0.012104128312198297 0.9830414186821008
v -0.2221387923968609 0.17564616913204406 0.9590634912151025
v -0.250479225741057 0.36079375756196885 0.898380777831135
v -0.2737122397594833 0.5256407274463919 0.8054709401682189
v -0.8978247574099703 0.25978988559564087 0.3555557907332278
v -0.10403907780321914 0.8262366831152818 0.5536323814269829
v -0.1232336705136925 0.8835119975365625 0.4519070841010072
v -0.1480309241388859 0.9125591754160423 0.3812120103860571
v -0.16555455780595835 0.9225505018169622 0.34855739841085537
v -0.5232949167899443 0.6144263038672244 0.5904597760879784
v 0.44960668564487566 0.7620128058847797 -0.46603681387958384
v 0.5235742118352955 0.7423435616835059 -0.41808621255441436
v 0.6250584322451213 0.6923777510779454 -0.3604372429307451
v 0.7392047706551245 0.6037538158547785 -0.29842526180184226
v 0.8477945961813763 0.475824134526227 -0.2341702707177476
v 0.9341589502309025 0.32667540918522914 -0.1436322830604612
v 0.985942368718941 0.15040031791235486 -0.07278317069725325
v 0.9997045611139532 -0.02408019165730474 0.003306789637175442
v 0.9803612621324183 -0.17842408793163966 0.0840038127461693
v 0.93478879106006 -0.33982650687476657 0.10338211321967068
v 0.889826630145978 -0.4195952395551756 0.17929975801904158
v 0.7453184770766488 0.21055075593308986 0.6325889241080249
v 0.7236436660060571 0.1959668787155453 0.6617679556278016
v 0.7101049471388581 0.2538745154797 0.6567333510937802
v 0.7424944752828418 0.25145188718266764 0.6208654464589984
v 0.7993658254197563 0.23059340515539445 0.5548341722080851
v 0.2671704007907236 0.8774744084163166 -0.39831977043044
v 0.8048163343866896 0.13112429887608873 0.5788584335989462
v 0.8822742302453441 0.010912486880161137 0.47060928621848813
v 0.9301588532889054 -0.12705097249189093 0.34447432130295663
v 0.9421661130831247 -0.265320186698187 0.20476380023889743
v 0.9205546894636918 -0.38621897815033124 0.05842914189785267
v 0.5390777767133155 0.5555733332740428 -0.6330350875019469
v 0.47145615817422903 0.4758325435086685 -0.7425041962559316
v 0.2749684556662296 -0.9272970663984477 0.2539931082477654
v -0.3568261172943751 -0.7754095091775015 0.5209752538208762
v -0.007656006040634655 -0.9209482581254345 0.3896096654694709
v 0.20170536697185334 -0.9220681797251385 0.33031078830870564
l 103 104 105 106 107 108 109 110 111 112 113 114 115 116 117 118 119 120 121 122 123 124 125 126 127 128 129 130 131 132 133 134 135 136 137 138 139 140 141 142 143 144 145 146 147 148 149 150 151 152 153 154 155 156 157 158 159 160 161 162 163 164 165 166 167 168 169 170 171 172 173 174 175 176 177 178 179 180 181 182 183 184 185 186 187 188 189 190 191 192 193 194 195 196 197 198 199 200 201 202 203 204
v -0.7887587415667647 0.15844471264309148 0.5939317474571147
v -0.5218164914583632 -0.5685171620012112 0.6359998315661513
v -0.19100110411096327 0.9541130629652512 0.23062272504560274
v -0.19606545767610967 0.955005410104777 0.22253764395460038
v -0.21927844890481693 0.9598181791111993 0.17511717475324748
v -0.5110120144560699 0.8458985329192099 0.15271670860347272
v -0.5207441156301719 0.8533944640266449 0.023312117133068522
v -0.9207582207518914 -0.3307578134603508 -0.20689023116797656
v -0.8744122704231665 -0.30196099173392665 -0.3797666925948965
v -0.09355163520963378 -0.8943529702206431 -0.43747097755978837
v 0.9516434940620857 -0.0748274813254175 0.2979521912116091
v -0.3489815881503012 0.8743951845070915 0.33711261092237815
v -0.05337969146707816 0.9708271726780735 0.23376314792707897
v -0.8635693697731661 -0.46627989476538056 -0.19191405192732064
v -0.36936403193508266 -0.907547647856581 -0.19981861470505272
v -0.10283800635505497 -0.9820917442851328 -0.15786117399760774
v 0.7841362583206413 -0.15055601672988014 0.6020491792315115
v 0.7788074746080148 -0.15420253919169258 0.6080135643236266
v 0.7467157130881394 -0.17970863338160342 0.640406473199161
v 0.6885921373394961 -0.23696797821118565 0.6853371766486387
v 0.04738489718262273 -0.5038550175646039 -0.8624875609502808
v -0.07794707379070975 -0.5849603087011449 -0.8073076804612516
v -0.22796437060442207 -0.6471680960308677 -0.727465257737241
v -0.5942576110228137 0.679733116104355 -0.42990787689052734
v -0.7259542592739981 0.620742301351805 -0.2960902037460965
v -0.8283260521510916 0.5370257136955028 -0.1596224738488359
v -0.8416949867624542 0.5338900880698615 0.0806902913596585
v -0.888957500439027 0.42507362371350077 0.1704904010091759
v -0.9182466165734335 0.32622638538289683 0.22449832211277354
v 0.015179712158947922 -0.3021123500287902 -0.9531514592649233
v 0.014483396319029479 -0.3362552474662955 -0.9416595137216243
v 0.9659285548237302 0.1755220281469807 -0.19019475442637795
v 0.9516932692231166 0.2168482316831523 -0.2173862132963037
v 0.9192818460646379 0.2795186069684964 -0.27711051198823555
v -0.2706285616644398 0.7639080850263181 0.585836683080583
v -0.3141684926216152 0.8353914636686682 0.45102024419462783
v -0.5826799384649062 0.7666800511455224 0.2696030201723113
v -0.5779675907093264 0.8119844567246339 0.08145370542373934
v -0.5486795267696204 0.8284298428727888 -0.11249343243777152
v 0.9660122343853915 0.25143397121889716 0.060011008447100646
v 0.966643446304329 0.2299545879880501 -0.11278889652858484
v -0.22384797195790676 0.9709031552739029 -0.08508318593888764
v 0.19548209549274195 0.9168526802134201 -0.34809181709318293
v 0.7991552471106468 -0.4052139773329068 -0.4440186072560102
v 0.7798110101985162 -0.4074557467027533 -0.4752626672189505
v 0.48057023047732117 0.8745730809543801 -0.06460789153762328
v 0.5107284412013173 0.8593241242777866 -0.026805014125852795
v 0.6946966386042996 -0.09295651602388605 -0.713271103046091
v 0.7582136071254849 -0.16710998441533625 -0.6302272439989136
v 0.8088870156562179 -0.2707199112051428 -0.5219315334216325
v 0.6266708413454325 -0.5781113258756004 -0.5225619116446993
v 0.619999448515651 -0.6933111953923781 -0.3673149468560734
v 0.012733287311306907 -0.9277960857319956 -0.37287033496194744
v -0.014864613924729597 -0.9812480186053836 -0.192175360636782
v -0.027497913119499014 -0.9994396771525639 -0.019083933222771743
v -0.8294686114682014 -0.5354446854117262 0.1589994070849049
v -0.9505260687598578 0.01858984374945588 0.31008806864711935
v -0.2786599853178096 -0.9598945611936182 -0.030839000852636602
v -0.2593483630333793 -0.9657834393261027 0.0008802927638473027
v -0.16098134407132203 -0.9810014768937205 -0.10826407157191668
v -0.20182452155414504 -0.9700952377100034 -0.13484098884171591
v -0.2823731110218392 -0.9443807983019601 -0.1685536530912332
v -0.21419134620153762 0.16551385363551396 0.9626667291784285
v -0.3375313175033658 0.24738813054325268 0.9082244890833738
v -0.4573932926611235 0.3474058732030642 0.8185966864657046
v 0.04114619051492546 0.8603349084271517 0.5080657795480352
v 0.7385527428429143 0.5180336340219531 -0.43148696395281233
v 0.6053126327601862 0.5668665197214048 -0.5588013649230577
v -0.029399142718540855 -0.8384597401317923 -0.5441699684708263
v -0.1458980008752419 -0.7749846910032415 -0.6149085314509923
v -0.6764055415639054 -0.7294075656686785 -0.10217703502710501
v -0.869704514000059 -0.1679089232996409 0.464134303628028
v -0.3288076021557409 0.7269354607626255 0.6028684737572692
v 0.7487605872417156 0.41445013626280275 -0.5172897326887355
v 0.1890739965469339 -0.6473737593848607 -0.7383483185392112
v 0.8965480253134323 0.4189748821380969 -0.14374173521963435
v 0.3742974112772169 0.6118452798968615 0.6968118837814864
v -0.48715248531738875 0.03481119804055269 0.8726228489674512
v -0.3808817271792268 -0.10248011161898438 0.9189270572921053
v -0.3889310481407054 -0.6689821185546108 -0.6334000038256675
v -0.1000692635025936 -0.6561062220002911 -0.7480045240201103
v 0.056991377520776154 -0.7360275567449828 -0.6745483070917117
v 0.5856852194376377 0.39417197843614304 -0.7082381486110597
v -0.1630716694598056 0.8241126371615692 0.542444459728546
v -0.5108962880550586 0.33945619754553225 0.7897812816213675
v -0.6801744387088235 -0.05095016334909713 0.731277521726079
v -0.6577373218948935 -0.07755218170642608 0.7492444691147914
v 0.8242499892287047 0.5086193793850073 0.24883384450369453
v 0.8562609176788307 0.07473546252012736 -0.5111084537529272
v -0.17751703887334175 0.6995182609341679 0.6922152147484746
v -0.21328477101672882 0.7737862892920937 0.5964598770713022
v 0.5200007580030059 0.7976278113425674 0.3055962798352816
v 0.4976643670766739 0.8563831049613979 0.1376159702899615
v 0.9604386151100708 0.06758347521821628 -0.2701668752509769
v -0.29062972368233014 -0.9481891685296632 -0.12834198220129314
v -0.3525844585616292 -0.8869402219456342 -0.2983642778146049
v 0.9279270375082397 -0.07924800605199453 -0.36424053398539225
v 0.8798083438111923 0.011808953494861885 -0.47518188809924333
v 0.44521164565490323 -0.3399717262497638 -0.828375407604552
v 0.359032710961149 -0.3026713836960023 -0.882884786340457
v 0.3519372199965253 -0.26613451366303537 -0.897392118206114
v -0.2126938172374911 -0.24696206927062464 -0.9453946670309258
l 205 206 207 208 209 210 211 212 213 214 215 216 217 218 219 220 221 222 223 224 225 226 227 228 229 230 231 232 233 234 235 236 237 238 239 240 241 242 243 244 245 246 247 248 249 250 251 252 253 254 255 256 257 258 259 260 261 262 263 264 265 266 267 268 269 270 271 272 273 274 275 276 277 278 279 280 281 282 283 284 285 286 287 288 289 290 291 292 293 294 295 296 297 298 299 300 301 302 303 304 305 306
