v 0.0 1.0 2.0
v -0.4472674816502579 0.8473692660204962 1.524291450735717
v -0.9781117808703667 0.7074317044101119 1.139393268933432
v -1.575889585934425 0.5728072586678594 0.8672485355652455
v -2.220880871427425 0.4771048038331648 0.7111969950558503
v -2.889048327987653 0.4546741941862229 0.6604309145644507
v -3.55351320757017 0.5420614272029067 0.6797880017866333
v -4.187874215645308 0.7513902953230547 0.7371668996854766
v -4.768583870797206 1.080284137416513 0.8014314977548693
v -5.276859885213326 1.5157467978182246 0.8408341129444992
v -5.702869135801829 2.0330972083461036 0.8210106904450711
v -6.0518751106048025 2.5935959671488122 0.7045505551332454
v -6.306449608999944 3.1825841450815173 0.5098260470399367
v -6.4431549701736195 3.8075620898623743 0.30897605559906083
v -6.507759401144133 4.406906866927183 0.015485157575348296
v -6.545120600363806 4.940756144202 -0.3884132101666822
v -6.556724481220182 5.390190540985753 -0.8858805348984689
v -6.473889830055716 5.768107635841946 -1.4334587407289874
v -6.299527713260256 6.0574369240266845 -2.012605714081836
v -6.053104274924814 6.238196376762946 -2.6093809183951535
v -5.730741214129208 6.312470434775605 -3.192553468211649
v -5.35781050806249 6.268858638174496 -3.748022190272984
v -4.972025090743845 6.099158593238307 -4.2694589630955235
v -4.579265076061423 5.819916277179781 -4.735784203876264
v -4.104556918424621 5.531280186994045 -5.111105631500671
v -3.556195268958276 5.253025794497945 -5.378311162824076
v -2.9659379013582012 4.968985553129018 -5.52128732445798
v -2.377916567601293 4.6476197494513745 -5.544130149645056
v -1.8531127993943457 4.231480386475198 -5.513571403332037
v -1.4196407033659897 3.721354725909439 -5.476174158570103
v -1.0915576754255643 3.1367983040990746 -5.462753353215994
v -0.8785085235778246 2.5011486093262083 -5.475426217594666
v -0.7845242281854422 1.8377933518179401 -5.44942383556004
v -0.8156908335795293 1.1680541125845039 -5.447751813466894
v -0.9218109156477828 0.5110388668197445 -5.530058136581069
v -0.9390273338860456 -0.141655519106328 -5.682434102672438
v -0.8264890146828383 -0.7811809699069481 -5.849368598831354
v -0.5879093171482788 -1.3903854652889418 -5.995910102335792
v -0.23819631472964906 -1.9548100246484457 -6.088918350625015
v 0.19787130664919464 -2.4639729215059556 -6.100007785566362
v 0.6892595715916965 -2.911006194101288 -6.0093207277284435
v 1.1956257522877243 -3.2999920887412344 -5.804802319937984
v 1.6475200206651293 -3.677996176306043 -5.484756570847956
v 2.0096923346118327 -4.0909669757022815 -5.100100774778127
v 2.3377823447639328 -4.586376729230524 -4.789535285925723
v 2.6428692762443773 -5.146999181571262 -4.583928369616508
v 2.8577072237092263 -5.765349184115986 -4.438618122571285
v 3.0706753708733956 -6.400543495580207 -4.412206827722166
v 3.336964362359592 -7.009466221565733 -4.50073837800533
v 3.6943183829542012 -7.555110558019601 -4.655964547124242
v 4.1472804272707045 -8.014837231938243 -4.8376278984501795
v 4.685571389629623 -8.375253938904484 -5.0104498840335125
v 5.29133344000851 -8.63178886445124 -5.139937226326673
v 5.9407161167078995 -8.789096742434054 -5.19544553422682
v 6.608270425178222 -8.846491406753927 -5.169903099810455
v 7.273082808523035 -8.776638885242757 -5.118231814665059
v 7.909450319874077 -8.582591767922509 -5.035124003508528
v 8.492616570208254 -8.282342100723536 -4.896228131227389
v 9.002550387945679 -7.903314603381508 -4.682147633972214
v 9.425724942969502 -7.479930866947106 -4.380163678733055
v 9.756319169531992 -7.0505521047782675 -3.9853648217431186
v 9.996734780341871 -6.654071995058605 -3.5010832319688916
v 10.157382951793817 -6.3264622309766185 -2.938598735288366
v 10.281503771338167 -6.10158316588646 -2.3192285441179195
v 10.484218259602109 -5.971085169178792 -1.6936073243516603
v 10.79528659755253 -5.905665275135427 -1.1032840839936568
v 11.212264500184878 -5.8810578443508 -0.578833223964665
v 11.72330103098157 -5.869372365384256 -0.14497850716276162
v 12.303196866651858 -5.8242023453581115 0.18855344442793154
v 12.886674960401509 -5.668343357551459 0.47979925454943384
v 13.405503250795661 -5.416738187062005 0.8219057362014368
v 13.831676860531314 -5.108879575175748 1.2379873759922262
v 14.151227810892596 -4.781298089766457 1.7279897862504825
v 14.359658110158108 -4.472276040381333 2.285293101206136
v 14.493100768004489 -4.234975602217599 2.898102826858924
v 14.693633207231928 -4.0937075288196665 3.5220858985640717
v 15.001184416491103 -4.021005753989083 4.113399273297269
v 15.406970016871204 -4.011598036035471 4.64708226973427
v 15.868179389381705 -4.105825781066282 5.124504355831611
v 16.37310546273533 -4.295241623956219 5.522871147154184
v 16.91340234609483 -4.559605524386431 5.819059577391002
v 17.460471761140653 -4.898555654269011 6.007082624097144
v 18.00413679952059 -5.2853551012389826 6.072956104236887
v 18.540788150694347 -5.682005006599329 6.008156556555875
v 19.067439444189112 -6.049631615890787 5.815766606922807
v 19.593318331715054 -6.342844929001745 5.520749694437917
v 20.160621196451146 -6.520007693731456 5.210406554392215
v 20.779311185732542 -6.596399565206748 4.96360343315154
v 21.433372478323104 -6.59475939940028 4.816206225208013
v 22.101068730647782 -6.5406423605925506 4.7883160430480345
v 22.759452572393787 -6.464264491978065 4.8894196514521795
v 23.395662804431456 -6.427173468343812 5.098051270206369
v 24.036046102738332 -6.503806261362 5.2812491080825055
v 24.67705790011612 -6.676516047007606 5.37505746103362
v 25.302620398837995 -6.9171251955248065 5.357633358149037
v 25.89802797345461 -7.191425407062875 5.21701324736118
v 26.451253291674682 -7.4622160166349065 4.9521755714792235
v 26.954015555215907 -7.6926080742793985 4.573131500622168
v 27.41280260327034 -7.840450232418545 4.107078202508646
v 27.868325688366316 -7.862087044933867 3.6155921618240185
v 28.319562624241666 -7.752403731443467 3.1319811611610504
v 28.744343677434294 -7.518037050881503 2.669164049904957
l 1 2 3 4 5 6 7 8 9 10 11 12 13 14 15 16 17 18 19 20 21 22 23 24 25 26 27 28 29 30 31 32 33 34 35 36 37 38 39 40 41 42 43 44 45 46 47 48 49 50 51 52 53 54 55 56 57 58 59 60 61 62 63 64 65 66 67 68 69 70 71 72 73 74 75 76 77 78 79 80 81 82 83 84 85 86 87 88 89 90 91 92 93 94 95 96 97 98 99 100 101 102
v 0.0 1.0 2.0
v -0.4268413996255199 0.8652177975071647 1.500854040343441
v -0.8687266652867991 0.8617444868793918 0.9966218025567244
v -1.2918597098470408 0.9881555659089097 0.4921384359147467
v -1.6731584949235856 1.237501136819591 0.00020082471353788378
v -2.0112388229303053 1.5934850556927755 -0.4565891565637159
v -2.248329199230424 1.9551009199519407 -0.968982483706661
v -2.409859620426217 2.245392820696064 -1.5514003512398702
v -2.58335993580633 2.4162974097802685 -2.176078734927046
v -2.775274714562447 2.4579118089919527 -2.8171417279253177
v -3.010331640277232 2.380954870228657 -3.4403409344304805
v -3.338259959643136 2.2872673387947957 -4.017741910399465
v -3.666019835170788 2.3065132317483084 -4.602316850947872
v -3.925282274953158 2.435885346295266 -5.206941234192875
v -4.0808782736853715 2.6364358032993547 -5.827527342887407
v -4.1151866884285075 2.8107904613325507 -6.474016466862892
v -4.057422903894354 2.899661247427863 -7.136077326168831
v -3.999050975884557 2.8620256381208966 -7.802936442063007
v -3.9628262767350577 2.698704323984441 -8.4522514925333
v -3.852528431568038 2.4590651638854277 -9.068789587093086
v -3.629702224781713 2.2606123311057518 -9.669283210971976
v -3.3056676987056615 2.0265710327481123 -10.207607222833389
v -2.896424211302499 1.755234521159327 -10.664254745555098
v -2.5202285121202133 1.3873677451884958 -11.079847575600503
v -2.254283576395483 0.9752521925902361 -11.536967761096236
v -2.1048099803726847 0.5734421803511678 -12.052460406098412
v -2.0151800995915994 0.24172991120903076 -12.628355108955596
v -1.8269456934560593 -0.03726413897324288 -13.20823003497702
v -1.5173933883272346 -0.3047544284606778 -13.739409022643144
v -1.1036387325325872 -0.5775277071180303 -14.19099137922656
v -0.6120522949682878 -0.8719015014852494 -14.53914600738959
v -0.09455382513995317 -1.2215738324798955 -14.783164265666606
v 0.3512850175089068 -1.6671516930599464 -15.01166568374773
v 0.6973254525503856 -2.192780787976333 -15.243142024299104
v 0.9701186343160142 -2.786283704908642 -15.394347899029867
v 1.145660139272464 -3.426710966703383 -15.487255474258241
v 1.2145488482642066 -4.075607893981946 -15.641242243366953
v 1.2021766847610131 -4.696339692792231 -15.894350451520403
v 1.1736811591273235 -5.265675101331685 -16.24754386603834
v 1.2580554423578572 -5.824237881327497 -16.60867182487196
v 1.4282670094161456 -6.405502078518686 -16.896496750161834
v 1.5268755363368092 -7.034172191202423 -17.107624790354052
v 1.5026827732355859 -7.68247959288388 -17.27684956589599
v 1.349531377527439 -8.318109219871983 -17.425323229574985
v 1.0727178249880813 -8.9098720201712 -17.5760410016897
v 0.6885219885788993 -9.430475095574229 -17.751798785828573
v 0.2257300632962865 -9.859849786463231 -17.977605737763913
v -0.2862473707760205 -10.186304005205189 -18.26206925072237
v -0.8632873475148324 -10.404474560642853 -18.524658022033428
v -1.4802212388154503 -10.499504178599464 -18.769375710389514
v -2.0992390178702798 -10.46500999402816 -19.02463559965374
v -2.676618868444478 -10.319316850690871 -19.332744050777794
v -3.1808885098084323 -10.089497507133185 -19.710129794605034
v -3.5924539263020727 -9.790525203928532 -20.146939671642222
v -3.9135815127428297 -9.398089549124851 -20.58556958732548
v -4.129201835337199 -8.956154731547826 -21.04147612169582
v -4.333644443325928 -8.58053062737841 -21.558024346456396
v -4.640097571223814 -8.212770337701745 -22.027453415919712
v -5.02656532617598 -7.8100517162316265 -22.398916991283553
v -5.4588414466502435 -7.36588064452236 -22.654600812130745
v -5.898651074173774 -6.87744471838072 -22.786973917822312
v -6.307050240966225 -6.345863039338887 -22.79945753063853
v -6.647884786370438 -5.776086818550274 -22.706121190440264
v -6.8905952354802675 -5.166532092145631 -22.567493478810153
v -7.079959553941384 -4.52444445930116 -22.53001362045301
v -7.219444149038431 -3.8740334973696156 -22.613885128419383
v -7.319559571001187 -3.2443390952094786 -22.821217382765045
v -7.404977700400782 -2.665517728275265 -23.14862289565226
v -7.483962690898623 -2.1612035303968478 -23.583347783264863
v -7.534668541322483 -1.744578402115148 -24.10625126172128
v -7.649565151445646 -1.421112840810833 -24.682179730500994
v -7.8651144921097105 -1.1810231869412715 -25.269904361057453
v -8.187944337800634 -1.0123181257397094 -25.832793599340448
v -8.612230734046495 -0.907080804116219 -26.341168434632444
v -9.119794745397597 -0.8510125734119001 -26.77577317628343
v -9.666352366661368 -0.7100737177510157 -27.13762370774932
v -10.201242475554752 -0.4495417446829313 -27.446719912734004
v -10.687561196805639 -0.07408352815662922 -27.715141280218873
v -11.092718657549833 0.40142656505083263 -27.958579947607205
v -11.39142289462734 0.9534068085797229 -28.194415527159407
v -11.567780596993279 1.552187795565839 -28.43912779076464
v -11.616159526406127 2.1635956911641974 -28.709986916340114
v -11.542198456939936 2.7521596056405953 -29.02247224447296
v -11.363488824926408 3.284002421058328 -29.38952969208397
v -11.110996187598959 3.7296692571887378 -29.822141921207923
v -10.805044286503035 4.070446606270744 -30.311856652324366
v -10.426756841080605 4.3029289309845415 -30.814226415397442
v -9.99747727646144 4.414344289110225 -31.317049095667613
v -9.551196716886492 4.395526644529992 -31.817053455565187
v -9.126057519598975 4.247231942531609 -32.31383323152994
v -8.737243487753458 3.9782175630935948 -32.7892994897391
v -8.352735391494504 3.607286389333614 -33.1945017060252
v -8.06191854426793 3.1609649682266876 -33.60162275921325
v -7.8942832513371295 2.684291859240119 -34.04231080903051
v -7.852150605206849 2.216119848931 -34.52039512210911
v -7.926694832978666 1.7945466752167962 -35.036383512316775
v -8.111958797634571 1.4349395182516642 -35.57114149380486
v -8.415048830222949 1.0850678903496274 -36.056168377238556
v -8.8121269488946 0.7832476153314141 -36.50444960863045
v -9.169853894986813 0.5489996733698761 -37.02088812906271
v -9.412852643506392 0.3030051316357121 -37.59531909532902
v -9.529529746060462 0.05665213354404708 -38.207859297098764
l 103 104 105 106 107 108 109 110 111 112 113 114 115 116 117 118 119 120 121 122 123 124 125 126 127 128 129 130 131 132 133 134 135 136 137 138 139 140 141 142 143 144 145 146 147 148 149 150 151 152 153 154 155 156 157 158 159 160 161 162 163 164 165 166 167 168 169 170 171 172 173 174 175 176 177 178 179 180 181 182 183 184 185 186 187 188 189 190 191 192 193 194 195 196 197 198 199 200 201 202 203 204
v 0.0 1.0 2.0
v -0.4385988330992001 0.8599472027656521 1.512605233139162
v -0.9223344807445114 0.8304434409013521 1.049123724947627
v -1.338046777212744 0.8706308922507477 0.5246305821537405
v -1.643726112456961 0.9276580895124891 -0.06936676152363219
v -1.8274714673993473 0.9765134977412412 -0.7123131128945346
v -1.8825058837928526 1.0121969375182107 -1.3795632209174258
v -1.809920046858521 1.0400406455263176 -2.0455730384605886
v -1.637079733598698 1.1427322304759915 -2.6851865670944193
v -1.3828030240588989 1.3339436838968017 -3.2754025514071046
v -1.1358022791024747 1.6343811779883737 -3.821651870857039
v -0.9911911722546265 1.9555590049188551 -4.392279750450626
v -0.8906378740086023 2.1742468613572417 -5.0180538811323245
v -0.8120554139777173 2.276543742150824 -5.676136374218359
v -0.6342270489132316 2.317824216907467 -6.321286923171705
v -0.3342169440819617 2.3618213100936254 -6.919272331070836
v 0.06418509418205548 2.4464845453031825 -7.451956199213832
v 0.479851447833264 2.647065104288291 -7.938282965203726
v 0.8944451043191343 2.962190188313004 -8.360577984045712
v 1.315253218181284 3.368287746604402 -8.68849581823013
v 1.7732223507508142 3.803229225950953 -8.913885673617457
v 2.2983216742281742 4.147965851494556 -9.14830444635352
v 2.8519062297358624 4.381314041388883 -9.445991469408021
v 3.381842781722595 4.533420148102011 -9.827656186980114
v 3.8317597653665505 4.73699893926617 -10.281148397646973
v 4.194178439530666 5.035019846210186 -10.760064930207747
v 4.472717200094611 5.432021340195323 -11.223025118189845
v 4.687593269872318 5.924739432024129 -11.62375190559009
v 4.858506196289306 6.496491909286847 -11.929386782274968
v 4.973729407815947 7.122752192203907 -12.139654052466803
v 4.966190072043351 7.75806022625515 -12.353784063919427
v 4.83847452425435 8.36793516157558 -12.601500282271125
v 4.6539463801496135 8.914141907703883 -12.943746328319655
v 4.41892035404195 9.374182733461408 -13.371122049678533
v 4.150620074536347 9.73620916536182 -13.867731087943895
v 3.962400814932488 10.036390953972422 -14.436931584798351
v 3.8747958969835974 10.270278179026292 -15.059145970694878
v 3.8880165559709012 10.425032104367721 -15.711373874334406
v 3.9847299720005234 10.478944350273034 -16.372633873442155
v 4.09887602870403 10.419602056902805 -17.03076628099166
v 4.100285473502241 10.340990152491505 -17.69660633946579
v 3.9764219833231063 10.27666221312685 -18.35246947494006
v 3.7546923128206906 10.140623880846515 -18.970422519789526
v 3.4300493349393677 10.001886349489668 -19.540516760771176
v 3.084299439482426 9.9793567065158 -20.11451521590641
v 2.752848296833418 10.08268987270732 -20.688183973359173
v 2.3634008126118595 10.278513603894181 -21.197603765727123
v 1.9473341446155221 10.569966063316047 -21.63526256405371
v 1.6123854376388966 10.953187006514034 -22.071697981850875
v 1.3951880357038664 11.388871817269065 -22.53270648045874
v 1.3037975674493658 11.834226337880429 -23.02549104464313
v 1.3239458485154456 12.231648683221477 -23.565096759691023
v 1.4209716442836726 12.538629138901939 -24.153223594168015
v 1.5142864784283017 12.726974079713216 -24.78988938288138
v 1.5585997325732197 12.797000984283692 -25.45521439343037
v 1.5146995458849384 12.777826779588247 -26.12400071279604
v 1.353481818995631 12.78169597759366 -26.77479654294416
v 1.1043273082301426 12.872170972377873 -27.39070617843439
v 0.7441192927705795 12.981464670324376 -27.945530362033576
v 0.2831527221824412 13.103642995879252 -28.416813869695194
v -0.25703390283949173 13.250110243469985 -28.78596229113197
v -0.8470458778432975 13.43988147291479 -29.04169174064016
v -1.4372215798747554 13.708365647697098 -29.212827257507325
v -1.9640918918821832 14.052482944377616 -29.444161997590037
v -2.4131076117524835 14.421812086772768 -29.778086643888685
v -2.79022938527252 14.764882108124617 -30.213558846116882
v -3.171823530054273 15.009340884164953 -30.707755176579766
v -3.6413052776321 15.18417316374669 -31.15333947188894
v -4.182775308707645 15.36092006738059 -31.50722823565868
v -4.699197826853894 15.645969703564377 -31.82594329520503
v -5.135010680950845 16.027895802003606 -32.16321386204609
v -5.482022140097308 16.420623621936922 -32.58143255289032
v -5.817259223783716 16.72575820656757 -33.07548996371323
v -6.231914827994579 16.97304006376868 -33.540884071690826
v -6.645656904410692 17.30356713453682 -33.95219382443246
v -6.961466819123291 17.707816194160028 -34.38403405748595
v -7.226357690552536 18.200354396752175 -34.753921071396945
v -7.529488237668863 18.73847937252954 -35.01491058696253
v -7.9232270418434885 19.253403309747565 -35.18622285881041
v -8.402297613852532 19.710953884742214 -35.29031103179465
v -8.938361301153833 20.078979896598792 -35.45377427342511
v -9.500640631138301 20.34837357296646 -35.70033827147215
v -10.065530894541745 20.513695265836617 -36.021549817157926
v -10.56862690073212 20.666069539113 -36.437888838873036
v -11.012360634931607 20.922893053346623 -36.8699618831838
v -11.421506835607412 21.29433276080396 -37.24965324836887
v -11.796512563928646 21.763339574595136 -37.547861420393666
v -12.09607708678599 22.305864434873886 -37.80404722592977
v -12.350945264685578 22.82130570285054 -38.148904810034985
v -12.631840796716538 23.252211273845962 -38.579174320956724
v -12.82712061131546 23.644345134718275 -39.08673873133854
v -12.928910501391679 23.9793506639991 -39.658547667001244
v -13.01591856311332 24.200835146366288 -40.285364245263686
v -13.148768249373457 24.308105390001653 -40.93376198746465
v -13.380648015741405 24.41092201467251 -41.554524444719384
v -13.594634880303671 24.625022366727926 -42.15276809287891
v -13.755574129255955 24.947520713679072 -42.71823566006727
v -13.967321281517968 25.35471054038095 -43.20699366773371
v -14.21684319726022 25.837539697351588 -43.59962698752223
v -14.415867847789624 26.399740748802962 -43.90596702241517
v -14.517940131241124 27.018044605881137 -44.144307935377874
v -14.500925664065674 27.660457366207492 -44.33545997314932
l 205 206 207 208 209 210 211 212 213 214 215 216 217 218 219 220 221 222 223 224 225 226 227 228 229 230 231 232 233 234 235 236 237 238 239 240 241 242 243 244 245 246 247 248 249 250 251 252 253 254 255 256 257 258 259 260 261 262 263 264 265 266 267 268 269 270 271 272 273 274 275 276 277 278 279 280 281 282 283 284 285 286 287 288 289 290 291 292 293 294 295 296 297 298 299 300 301 302 303 304 305 306
