# WaveFront *.obj file (generated by Cinema 4D)

v 0.768513 0.000000 0.000000
v 0.779514 -0.067903 -0.028125
v 0.826383 -0.057874 0.000000
v 0.884253 -0.038583 0.000000
v 0.942123 -0.019291 0.000000
v 0.999993 0.000000 0.000000
v 0.768513 -0.060388 -0.025012
v 0.826383 -0.053469 0.022146
v 0.884253 -0.035646 0.014764
v 0.942123 -0.017823 0.007382
v 0.779514 0.067903 0.028125
v 0.779514 -0.051971 -0.051967
v 0.826383 -0.040923 0.040920
v 0.884253 -0.027282 0.027280
v 0.942123 -0.013641 0.013640
v 0.768513 0.060388 0.025012
v 0.768513 -0.046219 -0.046216
v 0.826383 -0.022147 0.053465
v 0.884253 -0.014765 0.035643
v 0.942123 -0.007382 0.017822
v 0.779514 0.051971 0.051967
v 0.779514 -0.028127 -0.067899
v 0.826383 0.000000 0.057870
v 0.884253 0.000000 0.038580
v 0.942123 0.000000 0.019290
v 0.768513 0.046219 0.046216
v 0.768513 -0.025014 -0.060384
v 0.826383 0.022147 0.053465
v 0.884253 0.014765 0.035643
v 0.942123 0.007382 0.017822
v 0.779514 0.028127 0.067899
v 0.779514 0.000000 -0.073493
v 0.826383 0.040923 0.040920
v 0.884253 0.027282 0.027280
v 0.942123 0.013641 0.013640
v 0.768513 0.025014 0.060384
v 0.768513 0.000000 -0.065359
v 0.826383 0.053469 0.022146
v 0.884253 0.035646 0.014764
v 0.942123 0.017823 0.007382
v 0.779514 0.000000 0.073493
v 0.779514 0.028127 -0.067899
v 0.826383 0.057874 0.000000
v 0.884253 0.038583 0.000000
v 0.942123 0.019291 0.000000
v 0.768513 0.000000 0.065359
v 0.768513 0.025014 -0.060384
v 0.826383 0.053469 -0.022146
v 0.884253 0.035646 -0.014764
v 0.942123 0.017823 -0.007382
v 0.779514 -0.028127 0.067899
v 0.779514 0.051971 -0.051967
v 0.826383 0.040923 -0.040920
v 0.884253 0.027282 -0.027280
v 0.942123 0.013641 -0.013640
v 0.768513 -0.025014 0.060384
v 0.768513 0.046219 -0.046216
v 0.826383 0.022147 -0.053465
v 0.884253 0.014765 -0.035643
v 0.942123 0.007382 -0.017822
v 0.779514 -0.051971 0.051967
v 0.779514 0.067903 -0.028125
v 0.826383 0.000000 -0.057870
v 0.884253 0.000000 -0.038580
v 0.942123 0.000000 -0.019290
v 0.768513 -0.046219 0.046216
v 0.768513 0.060388 -0.025012
v 0.826383 -0.022147 -0.053465
v 0.884253 -0.014765 -0.035643
v 0.942123 -0.007382 -0.017822
v 0.779514 -0.067903 0.028125
v 0.779514 0.073498 0.000000
v 0.826383 -0.040923 -0.040920
v 0.884253 -0.027282 -0.027280
v 0.942123 -0.013641 -0.013640
v 0.768513 -0.060388 0.025012
v 0.768513 0.065364 0.000000
v 0.826383 -0.053469 -0.022146
v 0.884253 -0.035646 -0.014764
v 0.942123 -0.017823 -0.007382
v 0.779514 -0.073498 0.000000
v 0.000063 -0.000000 0.000000
v 0.768513 -0.065364 0.000000
v 0.000063 -0.023150 0.000000
v 0.192963 -0.023150 0.000000
v 0.385863 -0.023150 0.000000
v 0.578763 -0.023150 0.000000
v 0.771663 -0.023150 0.000000
v 0.000063 -0.021387 0.008858
v 0.192963 -0.021387 0.008858
v 0.385863 -0.021387 0.008858
v 0.578763 -0.021387 0.008858
v 0.771663 -0.021387 0.008858
v 0.000063 -0.016369 0.016368
v 0.192963 -0.016369 0.016368
v 0.385863 -0.016369 0.016368
v 0.578763 -0.016369 0.016368
v 0.771663 -0.016369 0.016368
v 0.000063 -0.008859 0.021386
v 0.192963 -0.008859 0.021386
v 0.385863 -0.008859 0.021386
v 0.578763 -0.008859 0.021386
v 0.771663 -0.008859 0.021386
v 0.000063 -0.000000 0.023148
v 0.192963 -0.000000 0.023148
v 0.385863 -0.000000 0.023148
v 0.578763 -0.000000 0.023148
v 0.771663 0.000000 0.023148
v 0.000063 0.008859 0.021386
v 0.192963 0.008859 0.021386
v 0.385863 0.008859 0.021386
v 0.578763 0.008859 0.021386
v 0.771663 0.008859 0.021386
v 0.000063 0.016369 0.016368
v 0.192963 0.016369 0.016368
v 0.385863 0.016369 0.016368
v 0.578763 0.016369 0.016368
v 0.771663 0.016369 0.016368
v 0.000063 0.021387 0.008858
v 0.192963 0.021387 0.008858
v 0.385863 0.021387 0.008858
v 0.578763 0.021387 0.008858
v 0.771663 0.021387 0.008858
v 0.000063 0.023150 0.000000
v 0.192963 0.023150 0.000000
v 0.385863 0.023150 0.000000
v 0.578763 0.023150 0.000000
v 0.771663 0.023150 0.000000
v 0.000063 0.021387 -0.008858
v 0.192963 0.021387 -0.008858
v 0.385863 0.021387 -0.008858
v 0.578763 0.021387 -0.008858
v 0.771663 0.021387 -0.008858
v 0.000063 0.016369 -0.016368
v 0.192963 0.016369 -0.016368
v 0.385863 0.016369 -0.016368
v 0.578763 0.016369 -0.016368
v 0.771663 0.016369 -0.016368
v 0.000063 0.008859 -0.021386
v 0.192963 0.008859 -0.021386
v 0.385863 0.008859 -0.021386
v 0.578763 0.008859 -0.021386
v 0.771663 0.008859 -0.021386
v 0.000063 -0.000000 -0.023148
v 0.192963 -0.000000 -0.023148
v 0.385863 -0.000000 -0.023148
v 0.578763 0.000000 -0.023148
v 0.771663 0.000000 -0.023148
v 0.000063 -0.008859 -0.021386
v 0.192963 -0.008859 -0.021386
v 0.385863 -0.008859 -0.021386
v 0.578763 -0.008859 -0.021386
v 0.771663 -0.008859 -0.021386
v 0.000063 -0.016369 -0.016368
v 0.192963 -0.016369 -0.016368
v 0.385863 -0.016369 -0.016368
v 0.578763 -0.016369 -0.016368
v 0.771663 -0.016369 -0.016368
v 0.000063 -0.021387 -0.008858
v 0.192963 -0.021387 -0.008858
v 0.385863 -0.021387 -0.008858
v 0.578763 -0.021387 -0.008858
v 0.771663 -0.021387 -0.008858
# 163 vertices

vn -1.000000 0.000000 0.000000
vn 0.316248 -0.948677 -0.000000
vn 0.316248 -0.948677 -0.000000
vn 0.316245 -0.876456 0.363063
vn 0.316245 -0.876456 0.363063
vn 0.316248 -0.948677 0.000000
vn 0.316245 -0.876456 0.363063
vn 0.316247 -0.948677 0.000000
vn 0.316244 -0.876456 0.363063
vn 1.000000 -0.000000 -0.000000
vn 0.316238 -0.670796 0.670840
vn 0.316238 -0.670796 0.670840
vn 0.316238 -0.670796 0.670840
vn 0.316238 -0.670796 0.670840
vn 0.316231 -0.363025 0.876476
vn 0.316231 -0.363025 0.876476
vn 0.316231 -0.363025 0.876477
vn 0.316228 0.000000 0.948683
vn 0.316228 0.000000 0.948683
vn 0.316228 0.000000 0.948683
vn 0.316228 0.000000 0.948683
vn 0.316231 0.363025 0.876476
vn 0.316231 0.363025 0.876476
vn 0.316231 0.363025 0.876476
vn 0.316231 0.363025 0.876477
vn 0.316238 0.670796 0.670840
vn 0.316238 0.670796 0.670840
vn 0.316238 0.670796 0.670840
vn 0.316238 0.670796 0.670840
vn 0.316245 0.876456 0.363063
vn 0.316245 0.876456 0.363063
vn 0.316245 0.876456 0.363063
vn 0.316244 0.876456 0.363063
vn 0.316248 0.948677 0.000000
vn 0.316248 0.948677 0.000000
vn 0.316248 0.948677 0.000000
vn 0.316247 0.948677 0.000000
vn 0.316245 0.876456 -0.363063
vn 0.316245 0.876456 -0.363063
vn 0.316245 0.876456 -0.363063
vn 0.316244 0.876456 -0.363063
vn 0.316238 0.670796 -0.670840
vn 0.316238 0.670796 -0.670840
vn 0.316238 0.670796 -0.670840
vn 0.316238 0.670796 -0.670840
vn 0.316231 0.363025 -0.876476
vn 0.316231 0.363025 -0.876476
vn 0.316231 0.363025 -0.876477
vn 0.316228 -0.000000 -0.948683
vn 0.316228 -0.000000 -0.948683
vn 0.316228 -0.000000 -0.948683
vn 0.316228 -0.000000 -0.948683
vn 0.316231 -0.363025 -0.876476
vn 0.316231 -0.363025 -0.876476
vn 0.316231 -0.363025 -0.876476
vn 0.316231 -0.363025 -0.876477
vn 0.316238 -0.670796 -0.670840
vn 0.316238 -0.670796 -0.670840
vn 0.316238 -0.670796 -0.670840
vn 0.316238 -0.670796 -0.670840
vn 0.316245 -0.876456 -0.363063
vn 0.316245 -0.876456 -0.363063
vn 0.316245 -0.876456 -0.363063
vn 0.316244 -0.876456 -0.363063
vn 0.000000 -1.000000 0.000000
vn 0.000000 -0.923871 0.382704
vn 0.000000 -0.923871 0.382704
vn -0.594533 -0.742857 -0.307722
vn -0.594537 -0.804068 0.000000
vn 0.000000 -0.707084 0.707129
vn 0.000000 -0.707084 0.707130
vn -0.594524 -0.568550 -0.568588
vn 0.000000 -0.382663 0.923888
vn 0.000000 -0.382663 0.923888
vn -0.594515 -0.307693 -0.742885
vn -0.000000 0.000000 1.000000
vn -0.000000 0.000000 1.000000
vn -0.000000 0.000000 1.000000
vn -0.000000 0.000000 1.000000
vn -0.000000 0.000000 1.000000
vn -0.594511 0.000000 -0.804088
vn -0.000000 0.382663 0.923888
vn -0.000000 0.382663 0.923888
vn -0.000000 0.382663 0.923888
vn -0.000000 0.382663 0.923888
vn -0.000000 0.382663 0.923888
vn -0.594515 0.307693 -0.742885
vn 0.000000 0.707084 0.707129
vn 0.000000 0.707084 0.707130
vn -0.594524 0.568550 -0.568588
vn 0.000000 0.923871 0.382704
vn 0.000000 0.923871 0.382704
vn 0.000000 0.923871 0.382704
vn 0.000000 0.923871 0.382704
vn -0.594533 0.742858 -0.307722
vn 0.000000 1.000000 0.000000
vn -0.594537 0.804068 0.000000
vn 0.000000 0.923871 -0.382704
vn 0.000000 0.923871 -0.382704
vn -0.594533 0.742857 0.307722
vn 0.000000 0.707084 -0.707129
vn 0.000000 0.707084 -0.707130
vn -0.594524 0.568550 0.568588
vn 0.000000 0.382663 -0.923888
vn 0.000000 0.382663 -0.923888
vn -0.594515 0.307693 0.742885
vn 0.000000 0.000000 -1.000000
vn 0.000000 0.000000 -1.000000
vn 0.000000 -0.000000 -1.000000
vn -0.594511 0.000000 0.804088
vn 0.000000 -0.382663 -0.923888
vn 0.000000 -0.382663 -0.923888
vn 0.000000 -0.382663 -0.923888
vn -0.594515 -0.307693 0.742885
vn 0.000000 -0.707084 -0.707129
vn 0.000000 -0.707084 -0.707130
vn -0.594524 -0.568550 0.568588
vn 0.000000 -0.923871 -0.382704
vn 0.000000 -0.923871 -0.382704
vn 0.000000 -0.923871 -0.382704
vn 0.000000 -0.923871 -0.382704
vn -0.594533 -0.742858 0.307722
# 122 normals

o Cone
usemtl default
f 1//1 83//1 76//1
f 81//2 3//3 8//4 71//5
f 3//3 4//6 9//7 8//4
f 4//6 5//8 10//9 9//7
f 5//8 6//10 10//9
f 1//1 76//1 66//1
f 71//5 8//4 13//11 61//12
f 8//4 9//7 14//13 13//11
f 9//7 10//9 15//14 14//13
f 10//9 6//10 15//14
f 1//1 66//1 56//1
f 61//12 13//11 18//15 51//16
f 13//11 14//13 19//16 18//15
f 14//13 15//14 20//17 19//16
f 15//14 6//10 20//17
f 1//1 56//1 46//1
f 51//16 18//15 23//18 41//19
f 18//15 19//16 24//20 23//18
f 19//16 20//17 25//21 24//20
f 20//17 6//10 25//21
f 1//1 46//1 36//1
f 41//19 23//18 28//22 31//23
f 23//18 24//20 29//24 28//22
f 24//20 25//21 30//25 29//24
f 25//21 6//10 30//25
f 1//1 36//1 26//1
f 31//23 28//22 33//26 21//27
f 28//22 29//24 34//28 33//26
f 29//24 30//25 35//29 34//28
f 30//25 6//10 35//29
f 1//1 26//1 16//1
f 21//27 33//26 38//30 11//31
f 33//26 34//28 39//32 38//30
f 34//28 35//29 40//33 39//32
f 35//29 6//10 40//33
f 1//1 16//1 77//1
f 11//31 38//30 43//34 72//35
f 38//30 39//32 44//36 43//34
f 39//32 40//33 45//37 44//36
f 40//33 6//10 45//37
f 1//1 77//1 67//1
f 72//35 43//34 48//38 62//39
f 43//34 44//36 49//40 48//38
f 44//36 45//37 50//41 49//40
f 45//37 6//10 50//41
f 1//1 67//1 57//1
f 62//39 48//38 53//42 52//43
f 48//38 49//40 54//44 53//42
f 49//40 50//41 55//45 54//44
f 50//41 6//10 55//45
f 1//1 57//1 47//1
f 52//43 53//42 58//46 42//47
f 53//42 54//44 59//47 58//46
f 54//44 55//45 60//48 59//47
f 55//45 6//10 60//48
f 1//1 47//1 37//1
f 42//47 58//46 63//49 32//50
f 58//46 59//47 64//51 63//49
f 59//47 60//48 65//52 64//51
f 60//48 6//10 65//52
f 1//1 37//1 27//1
f 32//50 63//49 68//53 22//54
f 63//49 64//51 69//55 68//53
f 64//51 65//52 70//56 69//55
f 65//52 6//10 70//56
f 1//1 27//1 17//1
f 22//54 68//53 73//57 12//58
f 68//53 69//55 74//59 73//57
f 69//55 70//56 75//60 74//59
f 70//56 6//10 75//60
f 1//1 17//1 7//1
f 12//58 73//57 78//61 2//62
f 73//57 74//59 79//63 78//61
f 74//59 75//60 80//64 79//63
f 75//60 6//10 80//64
f 1//1 7//1 83//1
f 2//62 78//61 3//3 81//2
f 78//61 79//63 4//6 3//3
f 79//63 80//64 5//8 4//6
f 80//64 6//10 5//8
f 82//1 84//1 89//1
f 84//65 85//65 90//66 89//67
f 85//65 86//65 91//66 90//66
f 86//65 87//65 92//66 91//66
f 87//65 88//65 93//66 92//66
f 2//68 81//69 83//69 7//68
f 82//1 89//1 94//1
f 89//67 90//66 95//70 94//71
f 90//66 91//66 96//70 95//70
f 91//66 92//66 97//70 96//70
f 92//66 93//66 98//71 97//70
f 12//72 2//68 7//68 17//72
f 82//1 94//1 99//1
f 94//71 95//70 100//73 99//74
f 95//70 96//70 101//74 100//73
f 96//70 97//70 102//74 101//74
f 97//70 98//71 103//74 102//74
f 22//75 12//72 17//72 27//75
f 82//1 99//1 104//1
f 99//74 100//73 105//76 104//77
f 100//73 101//74 106//78 105//76
f 101//74 102//74 107//79 106//78
f 102//74 103//74 108//80 107//79
f 32//81 22//75 27//75 37//81
f 82//1 104//1 109//1
f 104//77 105//76 110//82 109//83
f 105//76 106//78 111//84 110//82
f 106//78 107//79 112//85 111//84
f 107//79 108//80 113//86 112//85
f 42//87 32//81 37//81 47//87
f 82//1 109//1 114//1
f 109//83 110//82 115//88 114//89
f 110//82 111//84 116//88 115//88
f 111//84 112//85 117//88 116//88
f 112//85 113//86 118//89 117//88
f 52//90 42//87 47//87 57//90
f 82//1 114//1 119//1
f 114//89 115//88 120//91 119//92
f 115//88 116//88 121//91 120//91
f 116//88 117//88 122//93 121//91
f 117//88 118//89 123//94 122//93
f 62//95 52//90 57//90 67//95
f 82//1 119//1 124//1
f 119//92 120//91 125//96 124//96
f 120//91 121//91 126//96 125//96
f 121//91 122//93 127//96 126//96
f 122//93 123//94 128//96 127//96
f 72//97 62//95 67//95 77//97
f 82//1 124//1 129//1
f 124//96 125//96 130//98 129//99
f 125//96 126//96 131//98 130//98
f 126//96 127//96 132//98 131//98
f 127//96 128//96 133//98 132//98
f 11//100 72//97 77//97 16//100
f 82//1 129//1 134//1
f 129//99 130//98 135//101 134//102
f 130//98 131//98 136//101 135//101
f 131//98 132//98 137//101 136//101
f 132//98 133//98 138//102 137//101
f 21//103 11//100 16//100 26//103
f 82//1 134//1 139//1
f 134//102 135//101 140//104 139//105
f 135//101 136//101 141//105 140//104
f 136//101 137//101 142//105 141//105
f 137//101 138//102 143//105 142//105
f 31//106 21//103 26//103 36//106
f 82//1 139//1 144//1
f 139//105 140//104 145//107 144//108
f 140//104 141//105 146//109 145//107
f 141//105 142//105 147//108 146//109
f 142//105 143//105 148//108 147//108
f 41//110 31//106 36//106 46//110
f 82//1 144//1 149//1
f 144//108 145//107 150//111 149//112
f 145//107 146//109 151//111 150//111
f 146//109 147//108 152//113 151//111
f 147//108 148//108 153//112 152//113
f 51//114 41//110 46//110 56//114
f 82//1 149//1 154//1
f 149//112 150//111 155//115 154//116
f 150//111 151//111 156//115 155//115
f 151//111 152//113 157//115 156//115
f 152//113 153//112 158//116 157//115
f 61//117 51//114 56//114 66//117
f 82//1 154//1 159//1
f 154//116 155//115 160//118 159//119
f 155//115 156//115 161//118 160//118
f 156//115 157//115 162//120 161//118
f 157//115 158//116 163//121 162//120
f 71//122 61//117 66//117 76//122
f 82//1 159//1 84//1
f 159//119 160//118 85//65 84//65
f 160//118 161//118 86//65 85//65
f 161//118 162//120 87//65 86//65
f 162//120 163//121 88//65 87//65
f 81//69 71//122 76//122 83//69

